M48
;DRILL file {KiCad 4.0.1-stable} date Saturday, December 26, 2015 'PMt' 06:59:47 PM
;FORMAT={-:-/ absolute / inch / decimal}
FMAT,2
INCH,TZ
T1C0.010
T2C0.016
T3C0.033
T4C0.037
T5C0.040
T6C0.041
T7C0.043
T8C0.047
T9C0.138
T10C0.157
T11C0.039
T12C0.063
T13C0.126
%
G90
G05
M72
T1
X1.998Y-3.1791
X1.998Y-3.435
X2.0906Y-3.1614
X2.1752Y-3.1594
X2.3583Y-2.2234
X2.5591Y-4.3996
X2.5935Y-2.4754
X2.6161Y-2.1713
X2.6467Y-2.4902
X2.6575Y-4.3996
X2.6919Y-2.4281
X2.7146Y-2.1713
X2.7234Y-2.3366
X2.752Y-2.5453
X2.753Y-2.2628
X2.753Y-2.3809
X2.753Y-2.4852
X2.7559Y-4.3996
X2.8051Y-2.3917
X2.8081Y-2.3327
X2.8179Y-2.4203
X2.8366Y-4.7283
X2.8366Y-4.7598
X2.8366Y-4.9803
X2.8366Y-5.0118
X2.8543Y-4.3996
X2.9006Y-2.5039
X2.9301Y-2.3917
X2.9331Y-2.185
X2.941Y-2.5039
X2.9528Y-4.3996
X2.9626Y-2.0472
X2.9626Y-2.2608
X2.9724Y-4.9705
X2.9793Y-2.5039
X2.9823Y-4.7362
X2.9823Y-4.8307
X2.9911Y-2.2441
X3.0364Y-2.1132
X3.0768Y-2.2421
X3.0787Y-2.2933
X3.0787Y-2.4941
X3.1201Y-4.7461
X3.1358Y-2.3366
X3.1358Y-2.4508
X3.1732Y-2.5453
X3.2657Y-4.7126
X3.2657Y-4.8071
X3.2657Y-4.9016
X3.2657Y-4.9961
X3.2874Y-5.3543
X3.3484Y-1.9469
X3.4222Y-2.5226
X3.4469Y-2.1299
X3.4469Y-2.2835
X3.4469Y-2.3839
X3.4469Y-2.4429
X3.4547Y-2.7087
X3.4547Y-2.7697
X3.4547Y-2.8346
X3.4547Y-2.8996
X3.4744Y-1.8061
X3.4843Y-3.1998
X3.4951Y-2.124
X3.4951Y-2.0512
X3.5236Y-3.7205
X3.5256Y-3.4665
X3.5256Y-3.5236
X3.5256Y-3.5709
X3.5256Y-3.5925
X3.5276Y-2.9429
X3.5335Y-1.8051
X3.5374Y-3.6234
X3.5374Y-3.6482
X3.5433Y-3.6811
X3.5433Y-5.3248
X3.5433Y-5.4134
X3.5433Y-5.5118
X3.5433Y-5.6102
X3.5433Y-5.7087
X3.5542Y-1.8317
X3.5542Y-2.1388
X3.5728Y-3.7992
X3.5748Y-3.5413
X3.5759Y-3.5105
X3.5827Y-1.6919
X3.5827Y-1.8031
X3.5827Y-2.0384
X3.5866Y-5.0591
X3.5866Y-5.3642
X3.5934Y-3.493
X3.6093Y-3.7727
X3.6122Y-1.8012
X3.6122Y-3.7402
X3.622Y-3.4665
X3.624Y-3.4882
X3.6269Y-3.7903
X3.6329Y-1.8258
X3.6329Y-2.0453
X3.6417Y-2.9429
X3.6417Y-5.3248
X3.6417Y-5.7087
X3.6526Y-1.939
X3.6536Y-1.8051
X3.6536Y-2.124
X3.6594Y-3.7992
X3.6713Y-1.6919
X3.6811Y-1.8031
X3.6811Y-3.4665
X3.6929Y-2.9429
X3.6949Y-3.7992
X3.695Y-2.1073
X3.7008Y-5.3248
X3.7234Y-1.8238
X3.7254Y-2.1663
X3.7303Y-1.6919
X3.7303Y-2.0472
X3.7303Y-3.189
X3.7402Y-3.4665
X3.7402Y-5.7087
X3.7559Y-5.4311
X3.7598Y-3.1201
X3.7598Y-3.189
X3.7618Y-2.9429
X3.7681Y-1.825
X3.7697Y-3.7992
X3.7708Y-5.3926
X3.7874Y-3.3091
X3.7883Y-5.3751
X3.7894Y-3.689
X3.7933Y-1.8514
X3.7933Y-2.1398
X3.7992Y-3.0807
X3.7992Y-3.2277
X3.7992Y-3.4665
X3.7992Y-3.7795
X3.7992Y-5.3248
X3.8023Y-3.6584
X3.8081Y-2.1073
X3.811Y-3.2884
X3.8169Y-3.1693
X3.8189Y-1.6919
X3.8189Y-1.811
X3.8189Y-2.0472
X3.8198Y-3.6408
X3.8209Y-5.3661
X3.8386Y-3.3366
X3.8445Y-1.8189
X3.8445Y-3.622
X3.8474Y-3.3869
X3.8481Y-2.9453
X3.8583Y-3.0807
X3.8583Y-3.1201
X3.8583Y-3.1496
X3.8583Y-3.4665
X3.8583Y-5.3248
X3.8588Y-3.188
X3.8681Y-1.6919
X3.8681Y-2.0472
X3.8839Y-3.3869
X3.8878Y-1.8041
X3.8878Y-5.7087
X3.8927Y-3.5433
X3.8947Y-3.2283
X3.8976Y-3.4449
X3.8976Y-3.4843
X3.8976Y-3.6417
X3.8976Y-3.7205
X3.8976Y-3.7992
X3.8976Y-3.8386
X3.8976Y-3.9272
X3.9016Y-3.0118
X3.9134Y-1.8553
X3.9134Y-2.1663
X3.936Y-2.1978
X3.937Y-3.0906
X3.937Y-3.1299
X3.937Y-3.3268
X3.937Y-3.4843
X3.937Y-3.563
X3.937Y-3.6417
X3.937Y-3.7205
X3.937Y-3.7992
X3.9409Y-2.9429
X3.9459Y-2.0758
X3.9567Y-1.811
X3.9567Y-5.3248
X3.9567Y-5.6496
X3.9665Y-1.6919
X3.9665Y-2.0472
X3.9754Y-2.9823
X3.9764Y-3.1299
X3.9764Y-3.1693
X3.9764Y-3.248
X3.9764Y-3.3268
X3.9764Y-3.3661
X3.9764Y-3.4055
X3.9764Y-3.5236
X3.9764Y-3.6024
X3.9764Y-3.6811
X3.9764Y-3.7598
X3.9764Y-3.7992
X3.9764Y-5.8268
X3.9765Y-3.0906
X3.9813Y-2.2205
X3.9862Y-1.8169
X3.9862Y-3.9272
X3.9961Y-3.8878
X3.9961Y-5.3248
X4.003Y-2.2421
X4.0108Y-1.8278
X4.0157Y-3.0906
X4.0157Y-3.1299
X4.0157Y-3.1693
X4.0157Y-3.2087
X4.0157Y-3.3661
X4.0157Y-3.4055
X4.0157Y-3.5236
X4.0157Y-3.6811
X4.0157Y-3.7598
X4.0157Y-3.7992
X4.0157Y-4.2106
X4.0354Y-4.0551
X4.0374Y-1.8189
X4.0472Y-5.3937
X4.0551Y-1.6929
X4.0551Y-2.0472
X4.0551Y-2.1142
X4.0551Y-3.0906
X4.0551Y-3.1299
X4.0551Y-3.2874
X4.0551Y-3.4055
X4.0551Y-3.4843
X4.0551Y-3.5236
X4.0551Y-3.563
X4.0551Y-3.6417
X4.0551Y-3.6811
X4.0551Y-3.7205
X4.0551Y-3.7598
X4.0561Y-2.0758
X4.0571Y-1.8031
X4.066Y-5.3698
X4.0827Y-1.8179
X4.0836Y-5.3522
X4.0906Y-4.3602
X4.0945Y-3.0906
X4.0945Y-3.1299
X4.0945Y-3.2087
X4.0945Y-3.4055
X4.0945Y-3.4843
X4.0945Y-3.5236
X4.0945Y-3.563
X4.0945Y-3.6024
X4.0945Y-3.6417
X4.0945Y-3.6811
X4.0945Y-3.7205
X4.0945Y-3.8386
X4.0945Y-5.8268
X4.1034Y-2.1368
X4.1043Y-2.0472
X4.1053Y-1.6929
X4.1083Y-5.3327
X4.1102Y-2.9429
X4.1142Y-3.0079
X4.125Y-1.814
X4.1339Y-3.0906
X4.1339Y-3.1299
X4.1339Y-3.3268
X4.1339Y-3.4055
X4.1339Y-3.5236
X4.1339Y-3.563
X4.1339Y-3.6024
X4.1339Y-3.6417
X4.1339Y-3.6811
X4.1339Y-3.7205
X4.1339Y-4.2077
X4.1339Y-4.2815
X4.1339Y-4.3425
X4.1437Y-5.3248
X4.1457Y-2.0768
X4.1486Y-1.8041
X4.1535Y-5.2559
X4.1693Y-2.125
X4.1713Y-4.3622
X4.1732Y-3.0906
X4.1732Y-3.1299
X4.1732Y-3.248
X4.1732Y-3.4055
X4.1732Y-3.4843
X4.1732Y-3.5236
X4.1732Y-3.563
X4.1732Y-3.6024
X4.1732Y-3.6417
X4.1732Y-3.6811
X4.1732Y-3.878
X4.192Y-2.9685
X4.1929Y-5.3543
X4.1929Y-5.4134
X4.1929Y-5.5118
X4.1929Y-5.6102
X4.1929Y-5.7185
X4.1929Y-5.8346
X4.2028Y-1.6939
X4.2028Y-1.8031
X4.2028Y-2.0472
X4.2126Y-3.0906
X4.2126Y-3.1299
X4.2126Y-3.1693
X4.2126Y-3.3661
X4.2126Y-3.4055
X4.2126Y-3.4843
X4.2126Y-3.5236
X4.2126Y-3.563
X4.2126Y-3.6024
X4.2126Y-3.6417
X4.2126Y-3.7992
X4.2146Y-3.9665
X4.2146Y-4.0453
X4.252Y-3.0906
X4.252Y-3.1299
X4.252Y-3.2874
X4.252Y-3.3661
X4.252Y-3.4843
X4.252Y-3.5236
X4.252Y-3.563
X4.252Y-3.6024
X4.252Y-3.6417
X4.252Y-3.7205
X4.2618Y-1.6939
X4.2618Y-1.8031
X4.2618Y-2.0472
X4.2913Y-1.6919
X4.2913Y-2.0472
X4.2913Y-3.0906
X4.2913Y-3.1299
X4.2913Y-3.2087
X4.2913Y-3.4055
X4.2913Y-3.4843
X4.2913Y-3.563
X4.2913Y-3.6024
X4.2913Y-3.6417
X4.2913Y-3.8386
X4.3012Y-2.1181
X4.3012Y-2.2146
X4.3012Y-2.2795
X4.3012Y-2.3346
X4.3012Y-2.4173
X4.3012Y-2.5138
X4.3012Y-2.5748
X4.3012Y-2.6496
X4.3012Y-2.7343
X4.3012Y-3.9665
X4.3012Y-4.0453
X4.313Y-2.874
X4.313Y-2.9429
X4.3169Y-3.0069
X4.3268Y-5.0236
X4.3307Y-3.0512
X4.3406Y-2.6329
X4.3602Y-1.6919
X4.3602Y-2.0472
X4.3701Y-3.1299
X4.3701Y-3.3268
X4.3701Y-3.4055
X4.3701Y-3.4843
X4.3701Y-3.5236
X4.3701Y-3.6024
X4.3701Y-3.6417
X4.3701Y-3.7598
X4.3799Y-2.6122
X4.3799Y-4.685
X4.3878Y-4.0453
X4.3898Y-2.1161
X4.3898Y-2.2736
X4.3898Y-3.8878
X4.3898Y-3.9665
X4.3996Y-2.4803
X4.4094Y-3.0512
X4.4094Y-3.248
X4.4094Y-3.4055
X4.4094Y-3.4843
X4.4094Y-3.5236
X4.4094Y-3.563
X4.4094Y-3.6024
X4.4094Y-3.6417
X4.4094Y-3.6811
X4.4291Y-2.563
X4.4291Y-2.7126
X4.4488Y-3.1693
X4.4488Y-3.3661
X4.4488Y-3.4055
X4.4488Y-3.4843
X4.4488Y-3.5236
X4.4488Y-3.563
X4.4488Y-3.6024
X4.4488Y-3.6417
X4.4488Y-3.7992
X4.4567Y-3.9114
X4.4882Y-2.815
X4.4882Y-3.0906
X4.4882Y-3.2874
X4.4882Y-3.3661
X4.4882Y-3.4055
X4.4882Y-3.4843
X4.4882Y-3.5236
X4.4882Y-3.563
X4.4882Y-3.6024
X4.4882Y-3.6417
X4.4882Y-3.6811
X4.4882Y-3.7205
X4.4882Y-3.7598
X4.4882Y-3.7992
X4.498Y-4.685
X4.5197Y-4.7933
X4.5276Y-3.0118
X4.5276Y-3.1299
X4.5276Y-3.2087
X4.5276Y-3.3661
X4.5276Y-3.4055
X4.5276Y-3.4843
X4.5276Y-3.5236
X4.5276Y-3.563
X4.5276Y-3.6024
X4.5276Y-3.6417
X4.5276Y-3.8386
X4.5472Y-2.7854
X4.5669Y-2.6378
X4.5669Y-3.1299
X4.5669Y-3.3268
X4.5669Y-3.3661
X4.5669Y-3.4055
X4.5669Y-3.4843
X4.5669Y-3.5236
X4.5669Y-3.6417
X4.5669Y-3.7598
X4.5669Y-3.7992
X4.5866Y-3.8878
X4.6024Y-3.9409
X4.6063Y-3.0512
X4.6063Y-3.248
X4.6063Y-3.4843
X4.6063Y-3.6811
X4.6063Y-3.7992
X4.6161Y-4.685
X4.622Y-3.9606
X4.6299Y-5.0236
X4.6358Y-2.815
X4.6427Y-2.4902
X4.6457Y-3.1693
X4.6457Y-3.3661
X4.6457Y-3.6024
X4.6457Y-3.6811
X4.6457Y-3.7598
X4.6457Y-3.7992
X4.685Y-3.0906
X4.685Y-3.2874
X4.685Y-3.7598
X4.685Y-3.7992
X4.7047Y-2.7559
X4.7244Y-3.0118
X4.7244Y-3.2087
X4.7244Y-3.4055
X4.7244Y-3.5236
X4.7244Y-3.6417
X4.7244Y-3.8386
X4.7343Y-4.685
X4.747Y-2.4902
X4.7638Y-3.1299
X4.7677Y-3.3465
X4.7677Y-3.5433
X4.7736Y-3.7402
X4.7835Y-3.2224
X4.7835Y-3.3071
X4.7835Y-3.3858
X4.8031Y-3.2008
X4.8031Y-3.2815
X4.8209Y-3.5906
X4.8425Y-2.6969
X4.8425Y-2.7854
X4.8474Y-2.6132
X4.8563Y-2.874
X4.8563Y-2.9331
X4.8583Y-3.2579
X4.8583Y-3.2972
X4.8583Y-3.3563
X4.8583Y-3.3957
X4.8583Y-3.4744
X4.8583Y-3.5138
X4.8583Y-3.5728
X4.8583Y-3.6122
X4.8622Y-2.9744
X4.8622Y-3.061
X4.8622Y-3.1476
X4.9114Y-4.7933
X4.9173Y-3.2579
X4.9173Y-3.2972
X4.9173Y-3.3563
X4.9173Y-3.3957
X4.9173Y-3.4744
X4.9173Y-3.5138
X4.9173Y-3.5728
X4.9173Y-3.6122
X4.9409Y-2.9744
X4.9409Y-3.061
X4.9409Y-3.1476
X4.9469Y-2.874
X4.9469Y-2.9331
X4.9764Y-3.3563
X4.9764Y-3.3957
X4.9764Y-3.4744
X4.9764Y-3.5138
X4.9764Y-3.5728
X4.9764Y-3.6122
X5.0138Y-2.874
X5.0138Y-2.9331
X5.0197Y-2.9744
X5.0197Y-3.061
X5.0197Y-3.1476
X5.0236Y-5.0236
X5.0787Y-3.2736
X5.0787Y-3.4193
X5.0984Y-2.9744
X5.0984Y-3.061
X5.0984Y-3.061
X5.0984Y-3.1476
X5.1043Y-2.874
X5.1043Y-2.9331
X5.1693Y-3.0098
X5.2165Y-2.3819
X5.2461Y-2.8346
X5.248Y-3.4035
X5.3514Y-3.19
X5.3858Y-3.4094
X5.4232Y-3.4764
X5.4232Y-3.5354
X5.4232Y-3.6142
X5.4783Y-3.19
X5.4862Y-2.5
X5.4862Y-2.814
X5.4921Y-2.3819
X5.5197Y-3.5827
T2
X1.998Y-2.8829
X1.998Y-2.9833
X2.0059Y-3.6309
X2.0059Y-3.7008
X2.0571Y-3.7894
X2.0699Y-2.8632
X2.0699Y-2.9134
X2.0699Y-2.9636
X2.0699Y-3.375
X2.0699Y-3.4252
X2.0699Y-3.4754
X2.0866Y-3.2283
X2.1299Y-3.4508
X2.1801Y-2.8878
X2.1801Y-2.9882
X2.1801Y-3.3504
X2.1801Y-3.4508
X2.2028Y-3.6417
X2.2244Y-3.8189
X2.2293Y-2.8386
X2.2293Y-3.3504
X2.2293Y-3.4498
X2.2303Y-3.4016
X2.2441Y-3.689
X2.2539Y-3.1693
X2.2539Y-3.2874
X2.2539Y-3.8189
X2.2788Y-2.9892
X2.2795Y-2.8878
X2.2795Y-3.3996
X2.2795Y-3.4498
X2.2805Y-2.4606
X2.2815Y-3.0531
X2.2923Y-2.7264
X2.2982Y-3.1201
X2.3012Y-3.2283
X2.3219Y-3.2756
X2.3287Y-2.8888
X2.3297Y-3.4498
X2.3337Y-3.3494
X2.3573Y-3.5246
X2.3573Y-3.5728
X2.3583Y-3.2766
X2.3583Y-3.3071
X2.374Y-3.3858
X2.374Y-3.4646
X2.3819Y-2.8632
X2.3839Y-2.9528
X2.4213Y-4.1339
X2.437Y-2.1949
X2.4685Y-3.4646
X2.4744Y-3.3858
X2.4744Y-3.5433
X2.4764Y-3.3071
X2.4892Y-2.7854
X2.4892Y-2.8642
X2.4902Y-3.0315
X2.4911Y-2.9528
X2.5659Y-2.123
X2.5659Y-2.247
X2.5679Y-2.5197
X2.5827Y-3.3071
X2.5827Y-3.3858
X2.5827Y-3.4646
X2.5827Y-3.5433
X2.6033Y-2.7854
X2.6033Y-2.8632
X2.6043Y-2.9518
X2.6083Y-3.0315
X2.6289Y-2.3524
X2.6644Y-2.3524
X2.6791Y-3.4646
X2.6791Y-3.5433
X2.6909Y-3.3071
X2.6909Y-3.3858
X2.7402Y-4.9488
X2.7598Y-4.8858
X2.7756Y-4.8543
X2.7904Y-4.9173
X2.7953Y-4.8228
X2.8219Y-2.123
X2.8219Y-2.248
X2.8396Y-4.6545
X3.0768Y-4.9705
X3.0896Y-4.815
X3.0906Y-4.874
X3.1201Y-4.9567
X3.2106Y-2.2067
X3.4843Y-5.7874
X3.5236Y-5.7874
X3.563Y-5.8307
X3.6811Y-5.8307
X4.252Y-4.4803
X4.3307Y-1.6929
X4.3307Y-2.0472
X4.3996Y-1.6929
X4.3996Y-2.0472
X4.5256Y-1.7913
X4.5256Y-1.9488
X4.874Y-3.7894
X4.876Y-3.6909
X4.9528Y-3.6909
X4.9528Y-3.7894
X5.1043Y-3.5118
X5.1043Y-3.7559
T3
X3.0157Y-4.5817
T4
X2.7323Y-4.5817
X2.7323Y-5.1427
X2.9173Y-4.5817
X2.9173Y-5.1427
X3.1142Y-4.5817
X3.1142Y-5.1427
X3.2953Y-4.6732
X3.2953Y-4.8622
X3.2953Y-5.0512
T5
X5.3937Y-3.9665
X5.3937Y-4.0665
X5.3937Y-4.1665
X5.3937Y-4.2665
X5.3937Y-4.3665
X5.3937Y-4.685
X5.3937Y-4.785
X5.3937Y-4.885
X5.3937Y-4.985
X5.3937Y-5.085
X5.4937Y-3.9665
X5.4937Y-4.0665
X5.4937Y-4.1665
X5.4937Y-4.2665
X5.4937Y-4.3665
X5.4937Y-4.685
X5.4937Y-4.785
X5.4937Y-4.885
X5.4937Y-4.985
X5.4937Y-5.085
T6
X1.8346Y-4.5817
X1.8346Y-4.9195
X2.0315Y-5.1427
X2.2283Y-4.5817
X2.4252Y-5.1427
X2.622Y-4.5817
X2.622Y-4.8053
X2.622Y-5.0179
X2.8189Y-5.1427
X3.2126Y-5.1427
T7
X4.4567Y-1.8701
T8
X3.4173Y-1.8701
T9
X1.9882Y-4.1339
X2.1063Y-4.3189
X2.2244Y-4.1339
X3.1299Y-1.8504
X4.7047Y-1.8504
T10
X5.1181Y-5.2362
X5.3543Y-1.811
T11
X5.3734Y-3.2398
X5.4134Y-3.0398
X5.4534Y-3.2398
T12
X3.0512Y-4.6732
X3.0512Y-5.0512
T13
X1.9429Y-2.2146
X1.9429Y-5.5768
T0
M30
