G04 #@! TF.FileFunction,Copper,L4,Bot,Signal*
%FSLAX46Y46*%
G04 Gerber Fmt 4.6, Leading zero omitted, Abs format (unit mm)*
G04 Created by KiCad (PCBNEW 4.0.1-stable) date Saturday, December 26, 2015 'PMt' 06:59:42 PM*
%MOMM*%
G01*
G04 APERTURE LIST*
%ADD10C,0.100000*%
%ADD11C,0.050000*%
%ADD12R,1.727200X1.727200*%
%ADD13O,1.727200X1.727200*%
%ADD14R,0.300000X0.500000*%
%ADD15C,0.300000*%
%ADD16R,0.300000X0.200000*%
%ADD17C,4.500000*%
%ADD18R,0.700000X4.500000*%
%ADD19O,0.700000X0.500000*%
%ADD20C,0.950000*%
%ADD21C,1.050000*%
%ADD22C,1.150000*%
%ADD23R,0.600000X0.400000*%
%ADD24R,0.400000X0.600000*%
%ADD25C,1.097280*%
%ADD26C,1.198880*%
%ADD27R,0.900000X0.500000*%
%ADD28R,0.500000X0.900000*%
%ADD29R,0.600000X0.500000*%
%ADD30R,0.500000X0.600000*%
%ADD31R,0.500000X0.300000*%
%ADD32R,0.200000X0.300000*%
%ADD33C,0.500000*%
%ADD34C,0.700000*%
%ADD35C,0.200000*%
%ADD36C,0.350000*%
%ADD37C,0.300000*%
%ADD38C,0.150000*%
%ADD39C,0.160000*%
G04 APERTURE END LIST*
D10*
D11*
X107150000Y-138250000D02*
X141850000Y-138250000D01*
X107150000Y-155000000D02*
X107150000Y-138250000D01*
X99950000Y-155000000D02*
X107150000Y-155000000D01*
X99950000Y-146500000D02*
X99950000Y-155000000D01*
X98050000Y-146500000D02*
X99950000Y-146500000D01*
X98050000Y-155000000D02*
X98050000Y-146500000D01*
X86850000Y-155000000D02*
X98050000Y-155000000D01*
X86850000Y-138250000D02*
X86850000Y-155000000D01*
X56850000Y-138250000D02*
X86850000Y-138250000D01*
X56850000Y-146500000D02*
X56850000Y-138250000D01*
X41850000Y-146500000D02*
X56850000Y-146500000D01*
X41850000Y-39850000D02*
X41850000Y-146500000D01*
X141850000Y-39850000D02*
X41850000Y-39850000D01*
X141850000Y-138250000D02*
X141850000Y-39850000D01*
D12*
X137000000Y-100750000D03*
D13*
X139540000Y-100750000D03*
X137000000Y-103290000D03*
X139540000Y-103290000D03*
X137000000Y-105830000D03*
X139540000Y-105830000D03*
X137000000Y-108370000D03*
X139540000Y-108370000D03*
X137000000Y-110910000D03*
X139540000Y-110910000D03*
D12*
X137000000Y-119000000D03*
D13*
X139540000Y-119000000D03*
X137000000Y-121540000D03*
X139540000Y-121540000D03*
X137000000Y-124080000D03*
X139540000Y-124080000D03*
X137000000Y-126620000D03*
X139540000Y-126620000D03*
X137000000Y-129160000D03*
X139540000Y-129160000D03*
D14*
X104500000Y-90000000D03*
X105500000Y-90000000D03*
D15*
X104650000Y-90100000D03*
X104650000Y-89900000D03*
X104350000Y-89900000D03*
X104350000Y-90100000D03*
X105350000Y-90100000D03*
X105350000Y-89900000D03*
X105650000Y-89900000D03*
X105650000Y-90100000D03*
D16*
X105650000Y-90000000D03*
X105350000Y-90000000D03*
X104650000Y-90000000D03*
X104350000Y-90000000D03*
D17*
X56500000Y-105000000D03*
X50500000Y-105000000D03*
X53500000Y-109700000D03*
D18*
X97500000Y-151000000D03*
X102499100Y-151000000D03*
X100500000Y-151000000D03*
X101500000Y-151000000D03*
X96500000Y-151000000D03*
X95500000Y-151000000D03*
X94500000Y-151000000D03*
X93500000Y-151000000D03*
X92500000Y-151000000D03*
X91500000Y-151000000D03*
X90500000Y-151000000D03*
X89500000Y-151000000D03*
X88500000Y-151000000D03*
X87500000Y-151000000D03*
X103500000Y-151000000D03*
X104500000Y-151000000D03*
X105500000Y-151000000D03*
X106500000Y-151000000D03*
D19*
X106500000Y-153250000D03*
X105500000Y-153250000D03*
X104500000Y-153250000D03*
X103500000Y-153250000D03*
X102500000Y-153250000D03*
X101500000Y-153250000D03*
X100500000Y-153250000D03*
X97500000Y-153250000D03*
X96500000Y-153250000D03*
X95500000Y-153250000D03*
X94500000Y-153250000D03*
X93500000Y-153250000D03*
X92500000Y-153250000D03*
X91500000Y-153250000D03*
X90500000Y-153250000D03*
X89500000Y-153250000D03*
X88500000Y-153250000D03*
X87500000Y-153250000D03*
D20*
X76600000Y-116375000D03*
D21*
X79100000Y-116375000D03*
X74100000Y-116375000D03*
X69400000Y-116375000D03*
X69400000Y-130625000D03*
X79100000Y-130625000D03*
X74100000Y-130625000D03*
X83700000Y-118700000D03*
X83700000Y-123500000D03*
X83700000Y-128300000D03*
D22*
X71600000Y-130625000D03*
X81600000Y-130625000D03*
X66600000Y-116375000D03*
X66600000Y-122055000D03*
X66600000Y-127455000D03*
X56600000Y-116375000D03*
X46600000Y-116375000D03*
X61600000Y-130625000D03*
X51600000Y-130625000D03*
X46600000Y-124955000D03*
D23*
X75000000Y-112300000D03*
X75000000Y-113200000D03*
X65000000Y-112300000D03*
X65000000Y-113200000D03*
X67500000Y-112300000D03*
X67500000Y-113200000D03*
X70000000Y-112300000D03*
X70000000Y-113200000D03*
X72500000Y-112300000D03*
X72500000Y-113200000D03*
D24*
X102950000Y-91500000D03*
X102050000Y-91500000D03*
D25*
X113200380Y-47500000D03*
D26*
X86799620Y-47500000D03*
D27*
X77500000Y-120750000D03*
X77500000Y-122250000D03*
X76000000Y-125000000D03*
X76000000Y-123500000D03*
D28*
X103750000Y-87500000D03*
X105250000Y-87500000D03*
D29*
X76150000Y-126250000D03*
X77250000Y-126250000D03*
D30*
X79250000Y-122300000D03*
X79250000Y-121200000D03*
X77750000Y-123700000D03*
X77750000Y-124800000D03*
X79250000Y-123950000D03*
X79250000Y-125050000D03*
X75750000Y-120950000D03*
X75750000Y-122050000D03*
D14*
X106500000Y-86000000D03*
X107500000Y-86000000D03*
D15*
X106650000Y-86100000D03*
X106650000Y-85900000D03*
X106350000Y-85900000D03*
X106350000Y-86100000D03*
X107350000Y-86100000D03*
X107350000Y-85900000D03*
X107650000Y-85900000D03*
X107650000Y-86100000D03*
D16*
X107650000Y-86000000D03*
X107350000Y-86000000D03*
X106650000Y-86000000D03*
X106350000Y-86000000D03*
D14*
X100500000Y-88000000D03*
X99500000Y-88000000D03*
D15*
X100350000Y-87900000D03*
X100350000Y-88100000D03*
X100650000Y-88100000D03*
X100650000Y-87900000D03*
X99650000Y-87900000D03*
X99650000Y-88100000D03*
X99350000Y-88100000D03*
X99350000Y-87900000D03*
D16*
X99350000Y-88000000D03*
X99650000Y-88000000D03*
X100350000Y-88000000D03*
X100650000Y-88000000D03*
D14*
X119500000Y-79000000D03*
X120500000Y-79000000D03*
D15*
X119650000Y-79100000D03*
X119650000Y-78900000D03*
X119350000Y-78900000D03*
X119350000Y-79100000D03*
X120350000Y-79100000D03*
X120350000Y-78900000D03*
X120650000Y-78900000D03*
X120650000Y-79100000D03*
D16*
X120650000Y-79000000D03*
X120350000Y-79000000D03*
X119650000Y-79000000D03*
X119350000Y-79000000D03*
D14*
X117500000Y-94000000D03*
X118500000Y-94000000D03*
D15*
X117650000Y-94100000D03*
X117650000Y-93900000D03*
X117350000Y-93900000D03*
X117350000Y-94100000D03*
X118350000Y-94100000D03*
X118350000Y-93900000D03*
X118650000Y-93900000D03*
X118650000Y-94100000D03*
D16*
X118650000Y-94000000D03*
X118350000Y-94000000D03*
X117650000Y-94000000D03*
X117350000Y-94000000D03*
D31*
X110500000Y-90000000D03*
X110500000Y-89000000D03*
D15*
X110600000Y-89850000D03*
X110400000Y-89850000D03*
X110400000Y-90150000D03*
X110600000Y-90150000D03*
X110600000Y-89150000D03*
X110400000Y-89150000D03*
X110400000Y-88850000D03*
X110600000Y-88850000D03*
D32*
X110500000Y-88850000D03*
X110500000Y-89150000D03*
X110500000Y-89850000D03*
X110500000Y-90150000D03*
D14*
X109500000Y-87500000D03*
X110500000Y-87500000D03*
D15*
X109650000Y-87600000D03*
X109650000Y-87400000D03*
X109350000Y-87400000D03*
X109350000Y-87600000D03*
X110350000Y-87600000D03*
X110350000Y-87400000D03*
X110650000Y-87400000D03*
X110650000Y-87600000D03*
D16*
X110650000Y-87500000D03*
X110350000Y-87500000D03*
X109650000Y-87500000D03*
X109350000Y-87500000D03*
D14*
X106500000Y-87500000D03*
X107500000Y-87500000D03*
D15*
X106650000Y-87600000D03*
X106650000Y-87400000D03*
X106350000Y-87400000D03*
X106350000Y-87600000D03*
X107350000Y-87600000D03*
X107350000Y-87400000D03*
X107650000Y-87400000D03*
X107650000Y-87600000D03*
D16*
X107650000Y-87500000D03*
X107350000Y-87500000D03*
X106650000Y-87500000D03*
X106350000Y-87500000D03*
D31*
X99500000Y-91000000D03*
X99500000Y-92000000D03*
D15*
X99400000Y-91150000D03*
X99600000Y-91150000D03*
X99600000Y-90850000D03*
X99400000Y-90850000D03*
X99400000Y-91850000D03*
X99600000Y-91850000D03*
X99600000Y-92150000D03*
X99400000Y-92150000D03*
D32*
X99500000Y-92150000D03*
X99500000Y-91850000D03*
X99500000Y-91150000D03*
X99500000Y-90850000D03*
D14*
X110000000Y-84000000D03*
X109000000Y-84000000D03*
D15*
X109850000Y-83900000D03*
X109850000Y-84100000D03*
X110150000Y-84100000D03*
X110150000Y-83900000D03*
X109150000Y-83900000D03*
X109150000Y-84100000D03*
X108850000Y-84100000D03*
X108850000Y-83900000D03*
D16*
X108850000Y-84000000D03*
X109150000Y-84000000D03*
X109850000Y-84000000D03*
X110150000Y-84000000D03*
D14*
X110500000Y-98000000D03*
X109500000Y-98000000D03*
D15*
X110350000Y-97900000D03*
X110350000Y-98100000D03*
X110650000Y-98100000D03*
X110650000Y-97900000D03*
X109650000Y-97900000D03*
X109650000Y-98100000D03*
X109350000Y-98100000D03*
X109350000Y-97900000D03*
D16*
X109350000Y-98000000D03*
X109650000Y-98000000D03*
X110350000Y-98000000D03*
X110650000Y-98000000D03*
D14*
X103500000Y-86000000D03*
X102500000Y-86000000D03*
D15*
X103350000Y-85900000D03*
X103350000Y-86100000D03*
X103650000Y-86100000D03*
X103650000Y-85900000D03*
X102650000Y-85900000D03*
X102650000Y-86100000D03*
X102350000Y-86100000D03*
X102350000Y-85900000D03*
D16*
X102350000Y-86000000D03*
X102650000Y-86000000D03*
X103350000Y-86000000D03*
X103650000Y-86000000D03*
D31*
X101500000Y-95000000D03*
X101500000Y-96000000D03*
D15*
X101400000Y-95150000D03*
X101600000Y-95150000D03*
X101600000Y-94850000D03*
X101400000Y-94850000D03*
X101400000Y-95850000D03*
X101600000Y-95850000D03*
X101600000Y-96150000D03*
X101400000Y-96150000D03*
D32*
X101500000Y-96150000D03*
X101500000Y-95850000D03*
X101500000Y-95150000D03*
X101500000Y-94850000D03*
D14*
X100500000Y-85000000D03*
X101500000Y-85000000D03*
D15*
X100650000Y-85100000D03*
X100650000Y-84900000D03*
X100350000Y-84900000D03*
X100350000Y-85100000D03*
X101350000Y-85100000D03*
X101350000Y-84900000D03*
X101650000Y-84900000D03*
X101650000Y-85100000D03*
D16*
X101650000Y-85000000D03*
X101350000Y-85000000D03*
X100650000Y-85000000D03*
X100350000Y-85000000D03*
D14*
X118500000Y-97000000D03*
X119500000Y-97000000D03*
D15*
X118650000Y-97100000D03*
X118650000Y-96900000D03*
X118350000Y-96900000D03*
X118350000Y-97100000D03*
X119350000Y-97100000D03*
X119350000Y-96900000D03*
X119650000Y-96900000D03*
X119650000Y-97100000D03*
D16*
X119650000Y-97000000D03*
X119350000Y-97000000D03*
X118650000Y-97000000D03*
X118350000Y-97000000D03*
D14*
X104500000Y-98000000D03*
X105500000Y-98000000D03*
D15*
X104650000Y-98100000D03*
X104650000Y-97900000D03*
X104350000Y-97900000D03*
X104350000Y-98100000D03*
X105350000Y-98100000D03*
X105350000Y-97900000D03*
X105650000Y-97900000D03*
X105650000Y-98100000D03*
D16*
X105650000Y-98000000D03*
X105350000Y-98000000D03*
X104650000Y-98000000D03*
X104350000Y-98000000D03*
D14*
X107500000Y-97000000D03*
X108500000Y-97000000D03*
D15*
X107650000Y-97100000D03*
X107650000Y-96900000D03*
X107350000Y-96900000D03*
X107350000Y-97100000D03*
X108350000Y-97100000D03*
X108350000Y-96900000D03*
X108650000Y-96900000D03*
X108650000Y-97100000D03*
D16*
X108650000Y-97000000D03*
X108350000Y-97000000D03*
X107650000Y-97000000D03*
X107350000Y-97000000D03*
D14*
X114500000Y-95000000D03*
X115500000Y-95000000D03*
D15*
X114650000Y-95100000D03*
X114650000Y-94900000D03*
X114350000Y-94900000D03*
X114350000Y-95100000D03*
X115350000Y-95100000D03*
X115350000Y-94900000D03*
X115650000Y-94900000D03*
X115650000Y-95100000D03*
D16*
X115650000Y-95000000D03*
X115350000Y-95000000D03*
X114650000Y-95000000D03*
X114350000Y-95000000D03*
D14*
X112500000Y-87500000D03*
X113500000Y-87500000D03*
D15*
X112650000Y-87600000D03*
X112650000Y-87400000D03*
X112350000Y-87400000D03*
X112350000Y-87600000D03*
X113350000Y-87600000D03*
X113350000Y-87400000D03*
X113650000Y-87400000D03*
X113650000Y-87600000D03*
D16*
X113650000Y-87500000D03*
X113350000Y-87500000D03*
X112650000Y-87500000D03*
X112350000Y-87500000D03*
D14*
X106500000Y-83000000D03*
X107500000Y-83000000D03*
D15*
X106650000Y-83100000D03*
X106650000Y-82900000D03*
X106350000Y-82900000D03*
X106350000Y-83100000D03*
X107350000Y-83100000D03*
X107350000Y-82900000D03*
X107650000Y-82900000D03*
X107650000Y-83100000D03*
D16*
X107650000Y-83000000D03*
X107350000Y-83000000D03*
X106650000Y-83000000D03*
X106350000Y-83000000D03*
D14*
X101500000Y-80000000D03*
X100500000Y-80000000D03*
D15*
X101350000Y-79900000D03*
X101350000Y-80100000D03*
X101650000Y-80100000D03*
X101650000Y-79900000D03*
X100650000Y-79900000D03*
X100650000Y-80100000D03*
X100350000Y-80100000D03*
X100350000Y-79900000D03*
D16*
X100350000Y-80000000D03*
X100650000Y-80000000D03*
X101350000Y-80000000D03*
X101650000Y-80000000D03*
D14*
X112500000Y-80000000D03*
X111500000Y-80000000D03*
D15*
X112350000Y-79900000D03*
X112350000Y-80100000D03*
X112650000Y-80100000D03*
X112650000Y-79900000D03*
X111650000Y-79900000D03*
X111650000Y-80100000D03*
X111350000Y-80100000D03*
X111350000Y-79900000D03*
D16*
X111350000Y-80000000D03*
X111650000Y-80000000D03*
X112350000Y-80000000D03*
X112650000Y-80000000D03*
D31*
X114500000Y-89000000D03*
X114500000Y-90000000D03*
D15*
X114400000Y-89150000D03*
X114600000Y-89150000D03*
X114600000Y-88850000D03*
X114400000Y-88850000D03*
X114400000Y-89850000D03*
X114600000Y-89850000D03*
X114600000Y-90150000D03*
X114400000Y-90150000D03*
D32*
X114500000Y-90150000D03*
X114500000Y-89850000D03*
X114500000Y-89150000D03*
X114500000Y-88850000D03*
D14*
X103500000Y-84000000D03*
X104500000Y-84000000D03*
D15*
X103650000Y-84100000D03*
X103650000Y-83900000D03*
X103350000Y-83900000D03*
X103350000Y-84100000D03*
X104350000Y-84100000D03*
X104350000Y-83900000D03*
X104650000Y-83900000D03*
X104650000Y-84100000D03*
D16*
X104650000Y-84000000D03*
X104350000Y-84000000D03*
X103650000Y-84000000D03*
X103350000Y-84000000D03*
D14*
X112500000Y-78000000D03*
X113500000Y-78000000D03*
D15*
X112650000Y-78100000D03*
X112650000Y-77900000D03*
X112350000Y-77900000D03*
X112350000Y-78100000D03*
X113350000Y-78100000D03*
X113350000Y-77900000D03*
X113650000Y-77900000D03*
X113650000Y-78100000D03*
D16*
X113650000Y-78000000D03*
X113350000Y-78000000D03*
X112650000Y-78000000D03*
X112350000Y-78000000D03*
D14*
X113500000Y-83000000D03*
X112500000Y-83000000D03*
D15*
X113350000Y-82900000D03*
X113350000Y-83100000D03*
X113650000Y-83100000D03*
X113650000Y-82900000D03*
X112650000Y-82900000D03*
X112650000Y-83100000D03*
X112350000Y-83100000D03*
X112350000Y-82900000D03*
D16*
X112350000Y-83000000D03*
X112650000Y-83000000D03*
X113350000Y-83000000D03*
X113650000Y-83000000D03*
D14*
X101500000Y-93000000D03*
X100500000Y-93000000D03*
D15*
X101350000Y-92900000D03*
X101350000Y-93100000D03*
X101650000Y-93100000D03*
X101650000Y-92900000D03*
X100650000Y-92900000D03*
X100650000Y-93100000D03*
X100350000Y-93100000D03*
X100350000Y-92900000D03*
D16*
X100350000Y-93000000D03*
X100650000Y-93000000D03*
X101350000Y-93000000D03*
X101650000Y-93000000D03*
D14*
X107500000Y-92000000D03*
X106500000Y-92000000D03*
D15*
X107350000Y-91900000D03*
X107350000Y-92100000D03*
X107650000Y-92100000D03*
X107650000Y-91900000D03*
X106650000Y-91900000D03*
X106650000Y-92100000D03*
X106350000Y-92100000D03*
X106350000Y-91900000D03*
D16*
X106350000Y-92000000D03*
X106650000Y-92000000D03*
X107350000Y-92000000D03*
X107650000Y-92000000D03*
D14*
X115500000Y-87500000D03*
X116500000Y-87500000D03*
D15*
X115650000Y-87600000D03*
X115650000Y-87400000D03*
X115350000Y-87400000D03*
X115350000Y-87600000D03*
X116350000Y-87600000D03*
X116350000Y-87400000D03*
X116650000Y-87400000D03*
X116650000Y-87600000D03*
D16*
X116650000Y-87500000D03*
X116350000Y-87500000D03*
X115650000Y-87500000D03*
X115350000Y-87500000D03*
D31*
X112500000Y-89000000D03*
X112500000Y-90000000D03*
D15*
X112400000Y-89150000D03*
X112600000Y-89150000D03*
X112600000Y-88850000D03*
X112400000Y-88850000D03*
X112400000Y-89850000D03*
X112600000Y-89850000D03*
X112600000Y-90150000D03*
X112400000Y-90150000D03*
D32*
X112500000Y-90150000D03*
X112500000Y-89850000D03*
X112500000Y-89150000D03*
X112500000Y-88850000D03*
D31*
X104500000Y-92000000D03*
X104500000Y-91000000D03*
D15*
X104600000Y-91850000D03*
X104400000Y-91850000D03*
X104400000Y-92150000D03*
X104600000Y-92150000D03*
X104600000Y-91150000D03*
X104400000Y-91150000D03*
X104400000Y-90850000D03*
X104600000Y-90850000D03*
D32*
X104500000Y-90850000D03*
X104500000Y-91150000D03*
X104500000Y-91850000D03*
X104500000Y-92150000D03*
D31*
X106500000Y-90000000D03*
X106500000Y-89000000D03*
D15*
X106600000Y-89850000D03*
X106400000Y-89850000D03*
X106400000Y-90150000D03*
X106600000Y-90150000D03*
X106600000Y-89150000D03*
X106400000Y-89150000D03*
X106400000Y-88850000D03*
X106600000Y-88850000D03*
D32*
X106500000Y-88850000D03*
X106500000Y-89150000D03*
X106500000Y-89850000D03*
X106500000Y-90150000D03*
D14*
X102500000Y-81000000D03*
X103500000Y-81000000D03*
D15*
X102650000Y-81100000D03*
X102650000Y-80900000D03*
X102350000Y-80900000D03*
X102350000Y-81100000D03*
X103350000Y-81100000D03*
X103350000Y-80900000D03*
X103650000Y-80900000D03*
X103650000Y-81100000D03*
D16*
X103650000Y-81000000D03*
X103350000Y-81000000D03*
X102650000Y-81000000D03*
X102350000Y-81000000D03*
D14*
X115500000Y-98000000D03*
X116500000Y-98000000D03*
D15*
X115650000Y-98100000D03*
X115650000Y-97900000D03*
X115350000Y-97900000D03*
X115350000Y-98100000D03*
X116350000Y-98100000D03*
X116350000Y-97900000D03*
X116650000Y-97900000D03*
X116650000Y-98100000D03*
D16*
X116650000Y-98000000D03*
X116350000Y-98000000D03*
X115650000Y-98000000D03*
X115350000Y-98000000D03*
D14*
X113500000Y-92000000D03*
X112500000Y-92000000D03*
D15*
X113350000Y-91900000D03*
X113350000Y-92100000D03*
X113650000Y-92100000D03*
X113650000Y-91900000D03*
X112650000Y-91900000D03*
X112650000Y-92100000D03*
X112350000Y-92100000D03*
X112350000Y-91900000D03*
D16*
X112350000Y-92000000D03*
X112650000Y-92000000D03*
X113350000Y-92000000D03*
X113650000Y-92000000D03*
D14*
X106500000Y-84500000D03*
X107500000Y-84500000D03*
D15*
X106650000Y-84600000D03*
X106650000Y-84400000D03*
X106350000Y-84400000D03*
X106350000Y-84600000D03*
X107350000Y-84600000D03*
X107350000Y-84400000D03*
X107650000Y-84400000D03*
X107650000Y-84600000D03*
D16*
X107650000Y-84500000D03*
X107350000Y-84500000D03*
X106650000Y-84500000D03*
X106350000Y-84500000D03*
D14*
X117500000Y-83000000D03*
X118500000Y-83000000D03*
D15*
X117650000Y-83100000D03*
X117650000Y-82900000D03*
X117350000Y-82900000D03*
X117350000Y-83100000D03*
X118350000Y-83100000D03*
X118350000Y-82900000D03*
X118650000Y-82900000D03*
X118650000Y-83100000D03*
D16*
X118650000Y-83000000D03*
X118350000Y-83000000D03*
X117650000Y-83000000D03*
X117350000Y-83000000D03*
D14*
X109500000Y-92000000D03*
X110500000Y-92000000D03*
D15*
X109650000Y-92100000D03*
X109650000Y-91900000D03*
X109350000Y-91900000D03*
X109350000Y-92100000D03*
X110350000Y-92100000D03*
X110350000Y-91900000D03*
X110650000Y-91900000D03*
X110650000Y-92100000D03*
D16*
X110650000Y-92000000D03*
X110350000Y-92000000D03*
X109650000Y-92000000D03*
X109350000Y-92000000D03*
D14*
X105500000Y-80000000D03*
X106500000Y-80000000D03*
D15*
X105650000Y-80100000D03*
X105650000Y-79900000D03*
X105350000Y-79900000D03*
X105350000Y-80100000D03*
X106350000Y-80100000D03*
X106350000Y-79900000D03*
X106650000Y-79900000D03*
X106650000Y-80100000D03*
D16*
X106650000Y-80000000D03*
X106350000Y-80000000D03*
X105650000Y-80000000D03*
X105350000Y-80000000D03*
D14*
X116500000Y-92000000D03*
X117500000Y-92000000D03*
D15*
X116650000Y-92100000D03*
X116650000Y-91900000D03*
X116350000Y-91900000D03*
X116350000Y-92100000D03*
X117350000Y-92100000D03*
X117350000Y-91900000D03*
X117650000Y-91900000D03*
X117650000Y-92100000D03*
D16*
X117650000Y-92000000D03*
X117350000Y-92000000D03*
X116650000Y-92000000D03*
X116350000Y-92000000D03*
D31*
X97500000Y-80500000D03*
X97500000Y-81500000D03*
D15*
X97400000Y-80650000D03*
X97600000Y-80650000D03*
X97600000Y-80350000D03*
X97400000Y-80350000D03*
X97400000Y-81350000D03*
X97600000Y-81350000D03*
X97600000Y-81650000D03*
X97400000Y-81650000D03*
D32*
X97500000Y-81650000D03*
X97500000Y-81350000D03*
X97500000Y-80650000D03*
X97500000Y-80350000D03*
D31*
X108500000Y-89000000D03*
X108500000Y-90000000D03*
D15*
X108400000Y-89150000D03*
X108600000Y-89150000D03*
X108600000Y-88850000D03*
X108400000Y-88850000D03*
X108400000Y-89850000D03*
X108600000Y-89850000D03*
X108600000Y-90150000D03*
X108400000Y-90150000D03*
D32*
X108500000Y-90150000D03*
X108500000Y-89850000D03*
X108500000Y-89150000D03*
X108500000Y-88850000D03*
D14*
X116500000Y-80000000D03*
X117500000Y-80000000D03*
D15*
X116650000Y-80100000D03*
X116650000Y-79900000D03*
X116350000Y-79900000D03*
X116350000Y-80100000D03*
X117350000Y-80100000D03*
X117350000Y-79900000D03*
X117650000Y-79900000D03*
X117650000Y-80100000D03*
D16*
X117650000Y-80000000D03*
X117350000Y-80000000D03*
X116650000Y-80000000D03*
X116350000Y-80000000D03*
D14*
X108250000Y-81250000D03*
X107250000Y-81250000D03*
D15*
X108100000Y-81150000D03*
X108100000Y-81350000D03*
X108400000Y-81350000D03*
X108400000Y-81150000D03*
X107400000Y-81150000D03*
X107400000Y-81350000D03*
X107100000Y-81350000D03*
X107100000Y-81150000D03*
D16*
X107100000Y-81250000D03*
X107400000Y-81250000D03*
X108100000Y-81250000D03*
X108400000Y-81250000D03*
D31*
X96000000Y-77750000D03*
X96000000Y-78750000D03*
D15*
X95900000Y-77900000D03*
X96100000Y-77900000D03*
X96100000Y-77600000D03*
X95900000Y-77600000D03*
X95900000Y-78600000D03*
X96100000Y-78600000D03*
X96100000Y-78900000D03*
X95900000Y-78900000D03*
D32*
X96000000Y-78900000D03*
X96000000Y-78600000D03*
X96000000Y-77900000D03*
X96000000Y-77600000D03*
D14*
X106500000Y-94000000D03*
X107500000Y-94000000D03*
D15*
X106650000Y-94100000D03*
X106650000Y-93900000D03*
X106350000Y-93900000D03*
X106350000Y-94100000D03*
X107350000Y-94100000D03*
X107350000Y-93900000D03*
X107650000Y-93900000D03*
X107650000Y-94100000D03*
D16*
X107650000Y-94000000D03*
X107350000Y-94000000D03*
X106650000Y-94000000D03*
X106350000Y-94000000D03*
D14*
X99250000Y-82750000D03*
X100250000Y-82750000D03*
D15*
X99400000Y-82850000D03*
X99400000Y-82650000D03*
X99100000Y-82650000D03*
X99100000Y-82850000D03*
X100100000Y-82850000D03*
X100100000Y-82650000D03*
X100400000Y-82650000D03*
X100400000Y-82850000D03*
D16*
X100400000Y-82750000D03*
X100100000Y-82750000D03*
X99400000Y-82750000D03*
X99100000Y-82750000D03*
D31*
X96000000Y-80500000D03*
X96000000Y-81500000D03*
D15*
X95900000Y-80650000D03*
X96100000Y-80650000D03*
X96100000Y-80350000D03*
X95900000Y-80350000D03*
X95900000Y-81350000D03*
X96100000Y-81350000D03*
X96100000Y-81650000D03*
X95900000Y-81650000D03*
D32*
X96000000Y-81650000D03*
X96000000Y-81350000D03*
X96000000Y-80650000D03*
X96000000Y-80350000D03*
D14*
X111500000Y-96000000D03*
X112500000Y-96000000D03*
D15*
X111650000Y-96100000D03*
X111650000Y-95900000D03*
X111350000Y-95900000D03*
X111350000Y-96100000D03*
X112350000Y-96100000D03*
X112350000Y-95900000D03*
X112650000Y-95900000D03*
X112650000Y-96100000D03*
D16*
X112650000Y-96000000D03*
X112350000Y-96000000D03*
X111650000Y-96000000D03*
X111350000Y-96000000D03*
D31*
X97500000Y-77750000D03*
X97500000Y-78750000D03*
D15*
X97400000Y-77900000D03*
X97600000Y-77900000D03*
X97600000Y-77600000D03*
X97400000Y-77600000D03*
X97400000Y-78600000D03*
X97600000Y-78600000D03*
X97600000Y-78900000D03*
X97400000Y-78900000D03*
D32*
X97500000Y-78900000D03*
X97500000Y-78600000D03*
X97500000Y-77900000D03*
X97500000Y-77600000D03*
D14*
X119250000Y-81250000D03*
X118250000Y-81250000D03*
D15*
X119100000Y-81150000D03*
X119100000Y-81350000D03*
X119400000Y-81350000D03*
X119400000Y-81150000D03*
X118400000Y-81150000D03*
X118400000Y-81350000D03*
X118100000Y-81350000D03*
X118100000Y-81150000D03*
D16*
X118100000Y-81250000D03*
X118400000Y-81250000D03*
X119100000Y-81250000D03*
X119400000Y-81250000D03*
D33*
X91677262Y-95827262D03*
X104000000Y-93500000D03*
X92122738Y-96272738D03*
X103000000Y-93500000D03*
X106500000Y-148200000D03*
X96250000Y-93700000D03*
X97650000Y-92000000D03*
X92050000Y-88600000D03*
X90800000Y-89950000D03*
X89550000Y-91250000D03*
X91750000Y-95000000D03*
X96500000Y-96000000D03*
X95750000Y-96500000D03*
X93850000Y-96500000D03*
X92950000Y-96500000D03*
X90750000Y-96500000D03*
X89500000Y-94500000D03*
X90000000Y-93500000D03*
X104350000Y-135450000D03*
X102800000Y-137000000D03*
X101500000Y-135250000D03*
X100500000Y-135250000D03*
X98000000Y-135250000D03*
X95400000Y-137950000D03*
X97050000Y-136300000D03*
X96500000Y-135250000D03*
X94000000Y-135250000D03*
X100500000Y-143500000D03*
X83500000Y-136000000D03*
D34*
X93500000Y-148100000D03*
X90500000Y-148100000D03*
D33*
X98750000Y-145000000D03*
X95000000Y-145000000D03*
X92500000Y-145000000D03*
X90000000Y-145000000D03*
X90000000Y-142500000D03*
X90000000Y-140000000D03*
X90000000Y-137500000D03*
X90000000Y-135250000D03*
X92500000Y-135250000D03*
X105250000Y-135250000D03*
X106500000Y-136000000D03*
X106500000Y-137500000D03*
X106500000Y-140000000D03*
X106500000Y-142500000D03*
X106500000Y-145250000D03*
X101000000Y-148000000D03*
X104000000Y-148000000D03*
X85050000Y-49450000D03*
D34*
X114950000Y-49500000D03*
X114950000Y-45500000D03*
D33*
X98000000Y-88050000D03*
X96500000Y-88050000D03*
X95000000Y-88050000D03*
X93500000Y-88050000D03*
X92000000Y-88050000D03*
X89550000Y-88050000D03*
X89550000Y-89500000D03*
X89550000Y-90700000D03*
X109250000Y-53800000D03*
X109250000Y-56250000D03*
X109250000Y-57900000D03*
X109250000Y-59300000D03*
X109250000Y-61400000D03*
X109250000Y-63850000D03*
X109250000Y-65400000D03*
X109250000Y-67300000D03*
X109250000Y-69450000D03*
X109550000Y-73000000D03*
X109550000Y-74750000D03*
X104400000Y-74750000D03*
X100100000Y-74750000D03*
X87550000Y-54100000D03*
X87550000Y-58000000D03*
X87550000Y-60550000D03*
X87550000Y-62050000D03*
X87750000Y-68800000D03*
X87750000Y-70350000D03*
X87750000Y-72000000D03*
X87750000Y-73650000D03*
X89600000Y-74750000D03*
X92500000Y-74750000D03*
X93800000Y-74750000D03*
X95550000Y-74750000D03*
X97740555Y-74809445D03*
X101000000Y-89500000D03*
X92776010Y-49250000D03*
X102000000Y-106950000D03*
X105000000Y-110300000D03*
X105000000Y-108750000D03*
X105000000Y-106875000D03*
X74425000Y-60750000D03*
D34*
X54100000Y-87650000D03*
X56650000Y-86400000D03*
X57900000Y-86350000D03*
X68050000Y-88000000D03*
X65600000Y-88000000D03*
X68350000Y-86000000D03*
X65600000Y-86000000D03*
X62850000Y-86000000D03*
D33*
X50750000Y-87250000D03*
D34*
X55950000Y-92500000D03*
D33*
X127600000Y-127600000D03*
X109900000Y-127600000D03*
X117600000Y-127600000D03*
X111250000Y-119000000D03*
X114250000Y-119000000D03*
X117250000Y-119000000D03*
X120250000Y-119000000D03*
X118000000Y-93500000D03*
X106476010Y-75400527D03*
X103000000Y-78500000D03*
X123000000Y-70750000D03*
X129650000Y-73000000D03*
X125650000Y-73000000D03*
X98014371Y-80973998D03*
X96500000Y-81982989D03*
X95500000Y-79250000D03*
X98000000Y-79250000D03*
X108000000Y-85500000D03*
X93500000Y-45800000D03*
X91000000Y-45800000D03*
X97000000Y-46000000D03*
X100500000Y-46000000D03*
X103050000Y-45800000D03*
X108250000Y-45800000D03*
X106750000Y-45800000D03*
X136800000Y-86600000D03*
X139500000Y-60500000D03*
X53100000Y-80300000D03*
X50750000Y-80750000D03*
X55250000Y-80250000D03*
X111500000Y-57750000D03*
X129650000Y-74500000D03*
X129500000Y-75550000D03*
X129500000Y-79950000D03*
X129500000Y-77750000D03*
X129500000Y-77750000D03*
X125500000Y-79950000D03*
X125500000Y-77750000D03*
X125500000Y-75550000D03*
X125650000Y-74500000D03*
X111450000Y-102750000D03*
X109250000Y-102750000D03*
X107050000Y-102750000D03*
X106000000Y-98500000D03*
X120000000Y-97500000D03*
X135925000Y-81025000D03*
X99000000Y-87500000D03*
D34*
X125800000Y-96250000D03*
X125800000Y-93750000D03*
X129650000Y-95400000D03*
D33*
X123400000Y-91750000D03*
X126400000Y-91750000D03*
X124900000Y-91750000D03*
X126400000Y-89250000D03*
X124900000Y-89250000D03*
X123400000Y-89250000D03*
X129000000Y-83150000D03*
X123400000Y-82750000D03*
X124900000Y-82750000D03*
X126400000Y-85250000D03*
X124900000Y-85250000D03*
X123400000Y-85250000D03*
D34*
X52250000Y-96250000D03*
D33*
X99000000Y-88500000D03*
X72050000Y-127300000D03*
X72050000Y-126500000D03*
X82950000Y-126900000D03*
X82950000Y-124500000D03*
X82950000Y-119700000D03*
X82950000Y-122100000D03*
X79250000Y-120550000D03*
X75750000Y-122700000D03*
X72050000Y-120100000D03*
X116500000Y-98750000D03*
X109000000Y-97500000D03*
X121000000Y-79500000D03*
X99000000Y-97500000D03*
X99000000Y-96500000D03*
X139350000Y-71475000D03*
X139350000Y-63500000D03*
X120575000Y-63250000D03*
D34*
X66775000Y-59750000D03*
D33*
X114000000Y-86500000D03*
X111000000Y-89500000D03*
X111000000Y-88500000D03*
X109000000Y-90500000D03*
X108000000Y-92500000D03*
X108000000Y-88500000D03*
X106000000Y-88500000D03*
X120000000Y-76500000D03*
X117000000Y-77500000D03*
X120000000Y-86500000D03*
X109000000Y-91500000D03*
X116000000Y-67000000D03*
X112500000Y-68900000D03*
X115000000Y-81500000D03*
X119000000Y-83500000D03*
X116000000Y-84500000D03*
X114000000Y-78500000D03*
X118000000Y-80500000D03*
X121100000Y-90000000D03*
X117000000Y-88500000D03*
X111000000Y-79500000D03*
X112000000Y-82500000D03*
X113000000Y-85500000D03*
X116000000Y-95500000D03*
X113000000Y-96500000D03*
X118000000Y-91500000D03*
X115000000Y-88500000D03*
X113000000Y-88500000D03*
X114000000Y-89500000D03*
X112000000Y-89500000D03*
X113000000Y-92500000D03*
X115000000Y-90500000D03*
X112000000Y-93500000D03*
X111000000Y-92500000D03*
X114000000Y-91500000D03*
X113000000Y-90500000D03*
X112000000Y-90500000D03*
X112000000Y-91500000D03*
X108000000Y-94500000D03*
X103000000Y-88500000D03*
X104000000Y-88500000D03*
X108000000Y-83500000D03*
X107000000Y-86500000D03*
X105000000Y-86500000D03*
X103000000Y-86500000D03*
X102000000Y-86500000D03*
X101000000Y-86500000D03*
X105000000Y-84500000D03*
X102000000Y-85500000D03*
X107000000Y-80500000D03*
X104000000Y-81500000D03*
D34*
X62700000Y-88000000D03*
X63275000Y-75000000D03*
X63225000Y-72750000D03*
X66150000Y-74975000D03*
X66125000Y-72725000D03*
X58225000Y-69250000D03*
X60500000Y-72725000D03*
X50750000Y-75775000D03*
X50750000Y-73225000D03*
X52575000Y-72725000D03*
X52575000Y-75275000D03*
X52575000Y-74000000D03*
X58450000Y-82000000D03*
X60300000Y-86000000D03*
X53000000Y-82000000D03*
X52575000Y-85725000D03*
X59150000Y-73375000D03*
X60550000Y-75000000D03*
X57900000Y-73350000D03*
X52575000Y-88275000D03*
X52575000Y-87000000D03*
X50950000Y-92225000D03*
X50950000Y-94000000D03*
X57900000Y-87625000D03*
X60300000Y-88000000D03*
X59175000Y-87625000D03*
D33*
X100000000Y-79500000D03*
X101000000Y-82500000D03*
D34*
X65225000Y-64000000D03*
X67675000Y-59750000D03*
X57925000Y-62500000D03*
D33*
X68950000Y-55150000D03*
X66450000Y-55150000D03*
X59900000Y-56475000D03*
X78200000Y-58250000D03*
X78200000Y-63350000D03*
X73675000Y-63600000D03*
X71573733Y-61474646D03*
X74701010Y-63598853D03*
X75675000Y-63600000D03*
X75975000Y-57000000D03*
X69925000Y-57475000D03*
X69925000Y-60475000D03*
X108000000Y-90500000D03*
X106000000Y-90500000D03*
X105000000Y-90500000D03*
X107000000Y-89500000D03*
X105000000Y-89500000D03*
X107000000Y-91500000D03*
X99000000Y-92500000D03*
X99000000Y-94500000D03*
X105000000Y-91500000D03*
X103000000Y-90500000D03*
X101000000Y-93500000D03*
X103000000Y-92500000D03*
X106000000Y-92500000D03*
X105000000Y-92500000D03*
X105000000Y-93500000D03*
X105000000Y-94500000D03*
X104000000Y-94500000D03*
X103000000Y-94500000D03*
X103000000Y-95500000D03*
X102000000Y-95500000D03*
X102000000Y-96500000D03*
X101000000Y-96500000D03*
X100000000Y-96500000D03*
X98875000Y-90000000D03*
X109650000Y-76375000D03*
X104275000Y-43000000D03*
X94750000Y-52000000D03*
X110750000Y-52000000D03*
X109000000Y-52000000D03*
X108250000Y-52000000D03*
X106750000Y-52000000D03*
X104250000Y-52000000D03*
X103000000Y-52000000D03*
X100750000Y-52000000D03*
X98250000Y-52000000D03*
X97000000Y-52000000D03*
X110750000Y-42975000D03*
X109000000Y-42975000D03*
X108250000Y-43025000D03*
X106750000Y-43025000D03*
X103000000Y-43000000D03*
X100750000Y-42975000D03*
X98250000Y-42975000D03*
X97000000Y-42975000D03*
X94750000Y-42975000D03*
X93250000Y-42975000D03*
X91000000Y-42975000D03*
X91000000Y-51775000D03*
X88776010Y-52100000D03*
X99100000Y-76500000D03*
D34*
X78150000Y-126250000D03*
X79250000Y-125900000D03*
D33*
X115000000Y-92500000D03*
D34*
X56500000Y-97000000D03*
X57250000Y-97000000D03*
X56625000Y-72100000D03*
X57250000Y-80500000D03*
X56625000Y-85100000D03*
X57250000Y-83500000D03*
X55375000Y-85100000D03*
X55375000Y-73350000D03*
X58375000Y-79250000D03*
X57880490Y-75925000D03*
X57950000Y-77550000D03*
X55375000Y-75900000D03*
X56625000Y-87625000D03*
X55375000Y-87650000D03*
X57000000Y-93700000D03*
X68350000Y-84000000D03*
X65600000Y-84000000D03*
X62900000Y-84000000D03*
D33*
X123400000Y-88250000D03*
D34*
X123800000Y-96250000D03*
X123850000Y-93750000D03*
X129650000Y-89200000D03*
D33*
X123400000Y-90750000D03*
X126400000Y-90750000D03*
X124900000Y-90750000D03*
X126400000Y-88250000D03*
X124900000Y-88250000D03*
X102500000Y-103000000D03*
X107000000Y-88500000D03*
X109000000Y-92500000D03*
X109000000Y-88500000D03*
X112000000Y-88500000D03*
X115000000Y-89500000D03*
X113000000Y-89500000D03*
X114000000Y-92500000D03*
X115000000Y-91500000D03*
X112000000Y-92500000D03*
X111000000Y-91500000D03*
X113000000Y-91500000D03*
X114000000Y-90500000D03*
D34*
X59900000Y-83225000D03*
X59275000Y-85075000D03*
X58975000Y-83200000D03*
X59900000Y-84000000D03*
D33*
X108000000Y-91500000D03*
X107000000Y-90500000D03*
X106000000Y-89500000D03*
X107000000Y-92500000D03*
X106000000Y-91500000D03*
X105950000Y-110800000D03*
X103900000Y-110750000D03*
D34*
X68050000Y-90000000D03*
X65600000Y-90000000D03*
X62850000Y-90000000D03*
D33*
X123400000Y-86250000D03*
X124900000Y-83750000D03*
X123400000Y-83750000D03*
X124900000Y-86250000D03*
X126400000Y-86250000D03*
X129000000Y-86850000D03*
X109000000Y-86500000D03*
X113000000Y-86500000D03*
X111000000Y-86500000D03*
X114000000Y-88500000D03*
X106000000Y-86500000D03*
D34*
X59875000Y-89525000D03*
X59875000Y-90750000D03*
D33*
X120000000Y-92500000D03*
X114800000Y-121750000D03*
X124750000Y-121750000D03*
D34*
X71675000Y-53925000D03*
X66250000Y-77000000D03*
X110000000Y-43000000D03*
X110000000Y-52000000D03*
D33*
X121100000Y-85000000D03*
X100973990Y-75750000D03*
X104500000Y-76400000D03*
X108000000Y-78500000D03*
X105000000Y-79500000D03*
X123000000Y-68500000D03*
X127350000Y-73000000D03*
X123350000Y-73000000D03*
X96950000Y-80500000D03*
X95500000Y-81000000D03*
X96500000Y-78250000D03*
X98000000Y-78250000D03*
X140200000Y-91000000D03*
X132500000Y-60500000D03*
X133250000Y-72000000D03*
X111500000Y-53750000D03*
X127350000Y-74500000D03*
X127500000Y-75550000D03*
X127500000Y-77750000D03*
X127500000Y-79950000D03*
X123350000Y-74500000D03*
X123500000Y-75550000D03*
X123500000Y-77750000D03*
X123500000Y-79950000D03*
X107050000Y-100750000D03*
X109250000Y-100750000D03*
X111500000Y-100750000D03*
X116000000Y-92500000D03*
X101500000Y-98750000D03*
X75000000Y-111750000D03*
X72500000Y-111750000D03*
X70000000Y-111750000D03*
X67500000Y-111750000D03*
X65000000Y-111750000D03*
X75750000Y-120300000D03*
X75500000Y-126250000D03*
X121250000Y-95000000D03*
X115000000Y-97500000D03*
X118000000Y-96500000D03*
X120000000Y-89500000D03*
X111000000Y-84500000D03*
X110250000Y-66875000D03*
X139150000Y-81025000D03*
X111750000Y-63000000D03*
X123125000Y-66375000D03*
X117925000Y-63250000D03*
X109000000Y-81500000D03*
D34*
X81550000Y-56050000D03*
X65175000Y-53925000D03*
D33*
X119000000Y-78500000D03*
X115000000Y-86500000D03*
X115000000Y-76500000D03*
X118000000Y-85500000D03*
X114000000Y-83500000D03*
X116000000Y-79500000D03*
X120000000Y-81500000D03*
X117000000Y-82500000D03*
X112000000Y-77500000D03*
X113000000Y-80500000D03*
X114000000Y-94500000D03*
X117000000Y-93500000D03*
X107000000Y-85500000D03*
X104000000Y-86500000D03*
X106000000Y-82500000D03*
X100000000Y-84500000D03*
X98925000Y-82000000D03*
X103000000Y-83500000D03*
X102000000Y-80500000D03*
X104000000Y-97500000D03*
X106000000Y-93500000D03*
X111500000Y-98750000D03*
X111000000Y-95500000D03*
X107000000Y-96500000D03*
D34*
X63250000Y-77000000D03*
X63225000Y-70750000D03*
X66125000Y-70750000D03*
X111750000Y-43000000D03*
X111750000Y-52000000D03*
D33*
X108000000Y-89500000D03*
X99000000Y-99750000D03*
X100000000Y-88500000D03*
X101000000Y-91500000D03*
X100000000Y-92500000D03*
X100000000Y-90500000D03*
X100000000Y-94500000D03*
X101000000Y-95500000D03*
X104000000Y-90500000D03*
X104000000Y-92500000D03*
X101250000Y-99750000D03*
X102000000Y-89500000D03*
X102000000Y-93500000D03*
X74500000Y-55500000D03*
D34*
X71675000Y-57100000D03*
D33*
X79650000Y-59350000D03*
X79650000Y-62250000D03*
X69925000Y-63125000D03*
X69175000Y-59350000D03*
D34*
X65175000Y-57075000D03*
X61900000Y-55750000D03*
D33*
X65875000Y-62875000D03*
X67225000Y-63250000D03*
D34*
X78500000Y-123800000D03*
X78475000Y-122300000D03*
D33*
X133300000Y-86450000D03*
X131300000Y-76450000D03*
X105500000Y-133500000D03*
X77125000Y-53675000D03*
X71250000Y-60750000D03*
X101002011Y-78500000D03*
X92276090Y-51950000D03*
X102000000Y-78500000D03*
X93854111Y-53525000D03*
X104000000Y-79500000D03*
X96725000Y-53525000D03*
X99975000Y-55825000D03*
X106000000Y-79500000D03*
X100225000Y-52725000D03*
X106000000Y-78500000D03*
X101675000Y-56950000D03*
X107000000Y-79500000D03*
X103025000Y-52725000D03*
X108000000Y-79500000D03*
X109000000Y-78500000D03*
X105302011Y-52750000D03*
X105375000Y-45825000D03*
X105901010Y-53975000D03*
X109000000Y-79500000D03*
X104775000Y-46075000D03*
X103700000Y-46175000D03*
X104226010Y-54275000D03*
X102550000Y-46200000D03*
X103000000Y-53700000D03*
X107000000Y-78500000D03*
X101875000Y-46425000D03*
X101250000Y-46150000D03*
X101126010Y-56400000D03*
X99400000Y-47125000D03*
X99400000Y-55025000D03*
X98750000Y-45825000D03*
X105000000Y-78500000D03*
X97650000Y-46200000D03*
X104000000Y-78500000D03*
X96350000Y-47025000D03*
X96350000Y-54350000D03*
X103000000Y-79500000D03*
X95709815Y-46355453D03*
X94575000Y-46325000D03*
X94625000Y-55025000D03*
X75250000Y-52000000D03*
X75250000Y-57425000D03*
X102000000Y-79500000D03*
X92802020Y-45850000D03*
X92276010Y-46375000D03*
X92802100Y-53950000D03*
X101000000Y-79500000D03*
X91750000Y-45750000D03*
X90276010Y-54325000D03*
X90276010Y-46525000D03*
X100000000Y-78500000D03*
X89750000Y-45850000D03*
X88775970Y-53950000D03*
X88250000Y-45875000D03*
X121500000Y-84000000D03*
X115000000Y-85500000D03*
X122000000Y-81300000D03*
X114000000Y-85500000D03*
X122000000Y-83350000D03*
X116000000Y-85500000D03*
X96800000Y-83526010D03*
D34*
X69600000Y-125700000D03*
D33*
X96577262Y-92922738D03*
X89850000Y-92665000D03*
X97022738Y-92477262D03*
X89850000Y-92035000D03*
X119000000Y-95500000D03*
X118000000Y-95500000D03*
X119000000Y-96500000D03*
X114000000Y-95500000D03*
X114000000Y-96500000D03*
X104000000Y-91500000D03*
X137750000Y-88300000D03*
X116000000Y-88500000D03*
X117750000Y-71500000D03*
X114000000Y-71500000D03*
X111250000Y-66350000D03*
X115500000Y-70750000D03*
X137750000Y-89800000D03*
X116000000Y-89500000D03*
X137750000Y-91800000D03*
X122450000Y-91200000D03*
X112500000Y-65100000D03*
X115000000Y-79500000D03*
X121500000Y-86000000D03*
X116000000Y-86500000D03*
X121500000Y-81850000D03*
X112000000Y-86500000D03*
X116900000Y-100100000D03*
X116000000Y-96500000D03*
X117400000Y-100600000D03*
X117000000Y-96500000D03*
X80600000Y-64650000D03*
X69900000Y-64650000D03*
X86925000Y-64075000D03*
X68375000Y-61675000D03*
X98000000Y-80000000D03*
X101000000Y-80500000D03*
X94750000Y-81000000D03*
X102000000Y-81500000D03*
X119500000Y-70000000D03*
X110000000Y-77500000D03*
X88500000Y-81275000D03*
X78150000Y-56950000D03*
X71325000Y-59250000D03*
X91272738Y-88721272D03*
X103000000Y-89500000D03*
X90827262Y-89166748D03*
X104000000Y-89500000D03*
X95777262Y-136972738D03*
X96222738Y-136527262D03*
X103277262Y-136391748D03*
X103722738Y-135946272D03*
D34*
X88500000Y-147000000D03*
X89500000Y-147000000D03*
X61500000Y-105000000D03*
D33*
X91100000Y-128500000D03*
X91100000Y-136250000D03*
D34*
X108000000Y-113800000D03*
D33*
X101000000Y-85500000D03*
D34*
X71000000Y-122500000D03*
D33*
X97500000Y-84750000D03*
D34*
X70500000Y-123300000D03*
D33*
X96200000Y-84052020D03*
D34*
X70875000Y-124900000D03*
D33*
X101000000Y-84500000D03*
D34*
X70100000Y-124100000D03*
D33*
X72050000Y-120900000D03*
X97725000Y-86026010D03*
X98650000Y-86026010D03*
D34*
X72125000Y-118225000D03*
D33*
X113200000Y-99350000D03*
X114000000Y-93500000D03*
D35*
X97381656Y-94485000D02*
X93231655Y-94485000D01*
X104000000Y-93500000D02*
X103523999Y-93023999D01*
X103523999Y-93023999D02*
X102771519Y-93023999D01*
X102771519Y-93023999D02*
X102523999Y-93271519D01*
X100795518Y-94000000D02*
X100351047Y-93555529D01*
X91889393Y-95827262D02*
X91677262Y-95827262D01*
X102523999Y-93271519D02*
X102523999Y-93676001D01*
X102523999Y-93676001D02*
X102200000Y-94000000D01*
X98311127Y-93555529D02*
X97381656Y-94485000D01*
X102200000Y-94000000D02*
X100795518Y-94000000D01*
X93231655Y-94485000D02*
X91889393Y-95827262D01*
X100351047Y-93555529D02*
X98311127Y-93555529D01*
X92122738Y-96272738D02*
X92122738Y-96060607D01*
X95806476Y-94847725D02*
X95834917Y-94829854D01*
X93800000Y-94815000D02*
X93833378Y-94818760D01*
X94517274Y-95158523D02*
X94535145Y-95130082D01*
X94535145Y-95130082D02*
X94546239Y-95098378D01*
X94553760Y-94931621D02*
X94564854Y-94899917D01*
X95146239Y-94931621D02*
X95150000Y-94965000D01*
X93368345Y-94815000D02*
X93800000Y-94815000D01*
X93982725Y-95158523D02*
X94006476Y-95182274D01*
X94666621Y-94818760D02*
X94700000Y-94815000D01*
X94634917Y-94829854D02*
X94666621Y-94818760D01*
X94034917Y-95200145D02*
X94066621Y-95211239D01*
X92122738Y-96060607D02*
X93368345Y-94815000D01*
X94100000Y-95215000D02*
X94400000Y-95215000D01*
X95764854Y-94899917D02*
X95782725Y-94871476D01*
X93950000Y-94965000D02*
X93950000Y-95065000D01*
X93893523Y-94847725D02*
X93917274Y-94871476D01*
X93833378Y-94818760D02*
X93865082Y-94829854D01*
X94006476Y-95182274D02*
X94034917Y-95200145D01*
X93950000Y-95065000D02*
X93953760Y-95098378D01*
X93865082Y-94829854D02*
X93893523Y-94847725D01*
X94493523Y-95182274D02*
X94517274Y-95158523D01*
X93964854Y-95130082D02*
X93982725Y-95158523D01*
X93917274Y-94871476D02*
X93935145Y-94899917D01*
X93935145Y-94899917D02*
X93946239Y-94931621D01*
X94433378Y-95211239D02*
X94465082Y-95200145D01*
X94564854Y-94899917D02*
X94582725Y-94871476D01*
X94582725Y-94871476D02*
X94606476Y-94847725D01*
X93946239Y-94931621D02*
X93950000Y-94965000D01*
X93953760Y-95098378D02*
X93964854Y-95130082D01*
X95000000Y-94815000D02*
X95033378Y-94818760D01*
X94700000Y-94815000D02*
X95000000Y-94815000D01*
X94066621Y-95211239D02*
X94100000Y-95215000D01*
X94400000Y-95215000D02*
X94433378Y-95211239D01*
X94465082Y-95200145D02*
X94493523Y-95182274D01*
X95150000Y-94965000D02*
X95150000Y-95065000D01*
X94546239Y-95098378D02*
X94550000Y-95065000D01*
X94550000Y-95065000D02*
X94550000Y-94965000D01*
X94550000Y-94965000D02*
X94553760Y-94931621D01*
X94606476Y-94847725D02*
X94634917Y-94829854D01*
X95033378Y-94818760D02*
X95065082Y-94829854D01*
X95135145Y-94899917D02*
X95146239Y-94931621D01*
X95117274Y-94871476D02*
X95135145Y-94899917D01*
X95093523Y-94847725D02*
X95117274Y-94871476D01*
X95065082Y-94829854D02*
X95093523Y-94847725D01*
X95746239Y-95098378D02*
X95750000Y-95065000D01*
X95735145Y-95130082D02*
X95746239Y-95098378D01*
X95717274Y-95158523D02*
X95735145Y-95130082D01*
X95150000Y-95065000D02*
X95153760Y-95098378D01*
X95164854Y-95130082D02*
X95182725Y-95158523D01*
X95153760Y-95098378D02*
X95164854Y-95130082D01*
X95206476Y-95182274D02*
X95234917Y-95200145D01*
X95182725Y-95158523D02*
X95206476Y-95182274D01*
X95750000Y-94965000D02*
X95753760Y-94931621D01*
X95750000Y-95065000D02*
X95750000Y-94965000D01*
X95234917Y-95200145D02*
X95266621Y-95211239D01*
X95266621Y-95211239D02*
X95300000Y-95215000D01*
X95600000Y-95215000D02*
X95633378Y-95211239D01*
X95300000Y-95215000D02*
X95600000Y-95215000D01*
X95693523Y-95182274D02*
X95717274Y-95158523D01*
X95665082Y-95200145D02*
X95693523Y-95182274D01*
X95633378Y-95211239D02*
X95665082Y-95200145D01*
X95753760Y-94931621D02*
X95764854Y-94899917D01*
X95782725Y-94871476D02*
X95806476Y-94847725D01*
X95834917Y-94829854D02*
X95866621Y-94818760D01*
X95866621Y-94818760D02*
X95900000Y-94815000D01*
X95900000Y-94815000D02*
X97518344Y-94815000D01*
X97518344Y-94815000D02*
X98447815Y-93885529D01*
X98447815Y-93885529D02*
X100220001Y-93885529D01*
X100220001Y-93885529D02*
X100660481Y-94326010D01*
X100660481Y-94326010D02*
X102335037Y-94326010D01*
X102335037Y-94326010D02*
X103000000Y-93661047D01*
X103000000Y-93661047D02*
X103000000Y-93500000D01*
X103000000Y-93665529D02*
X103000000Y-93500000D01*
D36*
X90500000Y-148100000D02*
X90500000Y-151000000D01*
X106500000Y-148200000D02*
X106500000Y-151000000D01*
D37*
X100500000Y-151000000D02*
X100500000Y-148450000D01*
X100500000Y-148450000D02*
X100950000Y-148000000D01*
X100950000Y-148000000D02*
X101000000Y-148000000D01*
X104000000Y-148000000D02*
X103500000Y-148500000D01*
X103500000Y-148500000D02*
X103500000Y-151000000D01*
X105350000Y-90000000D02*
X105350000Y-90150000D01*
X105350000Y-90150000D02*
X105000000Y-90500000D01*
X118350000Y-94000000D02*
X118350000Y-93850000D01*
X118350000Y-93850000D02*
X118000000Y-93500000D01*
X97400000Y-81350000D02*
X97638369Y-81350000D01*
X97638369Y-81350000D02*
X98014371Y-80973998D01*
X96100000Y-81650000D02*
X96167011Y-81650000D01*
X96167011Y-81650000D02*
X96500000Y-81982989D01*
X96000000Y-78900000D02*
X95850000Y-78900000D01*
X95850000Y-78900000D02*
X95500000Y-79250000D01*
X97500000Y-78900000D02*
X97650000Y-78900000D01*
X97650000Y-78900000D02*
X98000000Y-79250000D01*
X97500000Y-78600000D02*
X97500000Y-78800000D01*
X97500000Y-78800000D02*
X97600000Y-78900000D01*
X107650000Y-84500000D02*
X107650000Y-85150000D01*
X107650000Y-85150000D02*
X108000000Y-85500000D01*
X102650000Y-86000000D02*
X102650000Y-86150000D01*
X102650000Y-86150000D02*
X103000000Y-86500000D01*
X110400000Y-88850000D02*
X110400000Y-88900000D01*
X110400000Y-88900000D02*
X111000000Y-89500000D01*
X100100000Y-82750000D02*
X100750000Y-82750000D01*
X100750000Y-82750000D02*
X101000000Y-82500000D01*
X109150000Y-84000000D02*
X108500000Y-84000000D01*
X108500000Y-84000000D02*
X108000000Y-83500000D01*
X106000000Y-98500000D02*
X106000000Y-98450000D01*
X106000000Y-98450000D02*
X105650000Y-98100000D01*
X108650000Y-97000000D02*
X108650000Y-97150000D01*
X108650000Y-97150000D02*
X109000000Y-97500000D01*
X109350000Y-98000000D02*
X109350000Y-97850000D01*
X109350000Y-97850000D02*
X109000000Y-97500000D01*
X116500000Y-98750000D02*
X116500000Y-98150000D01*
X116500000Y-98150000D02*
X116650000Y-98000000D01*
X119650000Y-97000000D02*
X119650000Y-97150000D01*
X119650000Y-97150000D02*
X120000000Y-97500000D01*
X117650000Y-92000000D02*
X117650000Y-91850000D01*
X117650000Y-91850000D02*
X118000000Y-91500000D01*
X115650000Y-95000000D02*
X115650000Y-95150000D01*
X115650000Y-95150000D02*
X116000000Y-95500000D01*
X112650000Y-96000000D02*
X112650000Y-96150000D01*
X112650000Y-96150000D02*
X113000000Y-96500000D01*
X107650000Y-94000000D02*
X107650000Y-94150000D01*
X107650000Y-94150000D02*
X108000000Y-94500000D01*
X101650000Y-85000000D02*
X101650000Y-85150000D01*
X101650000Y-85150000D02*
X102000000Y-85500000D01*
X104650000Y-84000000D02*
X104650000Y-84150000D01*
X104650000Y-84150000D02*
X105000000Y-84500000D01*
X120650000Y-79000000D02*
X120650000Y-79150000D01*
X120650000Y-79150000D02*
X121000000Y-79500000D01*
X118100000Y-81250000D02*
X118100000Y-80600000D01*
X118100000Y-80600000D02*
X118000000Y-80500000D01*
X118650000Y-83000000D02*
X118650000Y-83150000D01*
X118650000Y-83150000D02*
X119000000Y-83500000D01*
X117650000Y-80100000D02*
X117650000Y-80150000D01*
X117650000Y-80150000D02*
X118000000Y-80500000D01*
X113650000Y-78000000D02*
X113650000Y-78150000D01*
X113650000Y-78150000D02*
X114000000Y-78500000D01*
X111000000Y-79500000D02*
X111000000Y-79550000D01*
X111000000Y-79550000D02*
X111350000Y-79900000D01*
X112350000Y-83000000D02*
X112350000Y-82850000D01*
X112350000Y-82850000D02*
X112000000Y-82500000D01*
X107500000Y-83000000D02*
X108000000Y-83500000D01*
X107100000Y-81250000D02*
X107100000Y-80600000D01*
X107100000Y-80600000D02*
X107000000Y-80500000D01*
X106650000Y-80100000D02*
X106650000Y-80150000D01*
X106650000Y-80150000D02*
X107000000Y-80500000D01*
X103650000Y-81000000D02*
X103650000Y-81150000D01*
X103650000Y-81150000D02*
X104000000Y-81500000D01*
X100000000Y-79500000D02*
X100000000Y-79550000D01*
X100000000Y-79550000D02*
X100350000Y-79900000D01*
X99000000Y-88500000D02*
X99350000Y-88150000D01*
X99350000Y-88150000D02*
X99350000Y-88100000D01*
X117000000Y-87500000D02*
X117000000Y-88500000D01*
X116650000Y-87500000D02*
X117000000Y-87500000D01*
X113500000Y-87250000D02*
X113500000Y-87500000D01*
X113500000Y-87000000D02*
X113500000Y-87250000D01*
X114000000Y-86500000D02*
X113500000Y-87000000D01*
X111000000Y-88500000D02*
X111000000Y-87950000D01*
X111000000Y-87950000D02*
X110650000Y-87600000D01*
X108000000Y-88500000D02*
X108000000Y-87850000D01*
X108000000Y-87850000D02*
X107650000Y-87500000D01*
X107350000Y-86000000D02*
X107350000Y-86150000D01*
X107350000Y-86150000D02*
X107000000Y-86500000D01*
X114500000Y-90150000D02*
X114650000Y-90150000D01*
X114650000Y-90150000D02*
X115000000Y-90500000D01*
X112350000Y-92000000D02*
X112500000Y-92000000D01*
X112500000Y-92000000D02*
X113000000Y-92500000D01*
X107000000Y-89500000D02*
X106950000Y-89500000D01*
X106950000Y-89500000D02*
X106600000Y-89150000D01*
X108500000Y-90150000D02*
X108350000Y-90150000D01*
X108350000Y-90150000D02*
X108000000Y-90500000D01*
X99500000Y-92000000D02*
X99000000Y-92500000D01*
X101500000Y-96150000D02*
X101350000Y-96150000D01*
X101350000Y-96150000D02*
X101000000Y-96500000D01*
X100650000Y-93000000D02*
X100650000Y-93150000D01*
X100650000Y-93150000D02*
X101000000Y-93500000D01*
X104500000Y-91150000D02*
X104650000Y-91150000D01*
X104650000Y-91150000D02*
X105000000Y-91500000D01*
X106350000Y-92000000D02*
X106350000Y-92150000D01*
X106350000Y-92150000D02*
X106000000Y-92500000D01*
X111000000Y-92500000D02*
X111000000Y-92350000D01*
X111000000Y-92350000D02*
X110650000Y-92000000D01*
X112500000Y-90150000D02*
X112650000Y-90150000D01*
X112650000Y-90150000D02*
X113000000Y-90500000D01*
X79250000Y-121200000D02*
X79250000Y-120550000D01*
X75750000Y-122050000D02*
X75750000Y-122700000D01*
X77750000Y-124800000D02*
X78300000Y-124800000D01*
X78300000Y-124800000D02*
X78550000Y-125050000D01*
X78550000Y-125050000D02*
X79250000Y-125050000D01*
X77250000Y-126250000D02*
X78150000Y-126250000D01*
X79250000Y-125050000D02*
X79250000Y-125900000D01*
X114500000Y-89150000D02*
X114650000Y-89150000D01*
X114650000Y-89150000D02*
X115000000Y-89500000D01*
X113000000Y-91500000D02*
X113000000Y-91550000D01*
X113000000Y-91550000D02*
X113350000Y-91900000D01*
X107000000Y-90500000D02*
X106500000Y-90000000D01*
X108500000Y-89150000D02*
X108500000Y-89000000D01*
X108500000Y-89000000D02*
X109000000Y-88500000D01*
X107000000Y-92500000D02*
X107000000Y-92450000D01*
X107000000Y-92450000D02*
X107350000Y-92100000D01*
X109350000Y-92000000D02*
X109350000Y-92150000D01*
X109350000Y-92150000D02*
X109000000Y-92500000D01*
X110500000Y-91000000D02*
X111000000Y-91500000D01*
X110500000Y-90150000D02*
X110500000Y-91000000D01*
X112500000Y-88850000D02*
X112350000Y-88850000D01*
X112350000Y-88850000D02*
X112000000Y-88500000D01*
X115350000Y-87500000D02*
X115000000Y-87500000D01*
X115000000Y-87500000D02*
X114000000Y-88500000D01*
X112500000Y-87000000D02*
X112500000Y-87500000D01*
X113000000Y-86500000D02*
X112500000Y-87000000D01*
X109000000Y-86500000D02*
X109000000Y-87150000D01*
X109000000Y-87150000D02*
X109350000Y-87500000D01*
D35*
X103750000Y-87500000D02*
X104300000Y-87500000D01*
X104300000Y-87500000D02*
X104500000Y-87300000D01*
X104500000Y-87300000D02*
X104500000Y-86300000D01*
X104500000Y-86300000D02*
X104800000Y-86000000D01*
X104800000Y-86000000D02*
X105500000Y-86000000D01*
X105500000Y-86000000D02*
X106000000Y-86500000D01*
D37*
X117350000Y-94000000D02*
X117350000Y-93850000D01*
X117350000Y-93850000D02*
X117000000Y-93500000D01*
X105350000Y-80000000D02*
X105350000Y-79850000D01*
X105350000Y-79850000D02*
X105000000Y-79500000D01*
X97500000Y-80500000D02*
X96950000Y-80500000D01*
X96000000Y-80500000D02*
X95500000Y-81000000D01*
X96000000Y-77750000D02*
X96500000Y-78250000D01*
X97500000Y-77750000D02*
X98000000Y-78250000D01*
X103350000Y-84000000D02*
X103350000Y-83850000D01*
X103350000Y-83850000D02*
X103000000Y-83500000D01*
X106650000Y-84500000D02*
X106650000Y-85150000D01*
X106650000Y-85150000D02*
X107000000Y-85500000D01*
X99100000Y-82750000D02*
X99100000Y-82175000D01*
X99100000Y-82175000D02*
X98925000Y-82000000D01*
X109850000Y-84000000D02*
X110500000Y-84000000D01*
X110500000Y-84000000D02*
X111000000Y-84500000D01*
X110650000Y-98000000D02*
X110750000Y-98000000D01*
X110750000Y-98000000D02*
X111500000Y-98750000D01*
X104350000Y-98000000D02*
X104350000Y-97850000D01*
X104350000Y-97850000D02*
X104000000Y-97500000D01*
X107350000Y-97000000D02*
X107350000Y-96850000D01*
X107350000Y-96850000D02*
X107000000Y-96500000D01*
X115350000Y-98000000D02*
X115350000Y-97850000D01*
X115350000Y-97850000D02*
X115000000Y-97500000D01*
X118350000Y-96900000D02*
X118350000Y-96850000D01*
X118350000Y-96850000D02*
X118000000Y-96500000D01*
X116000000Y-92500000D02*
X116000000Y-92450000D01*
X116000000Y-92450000D02*
X116350000Y-92100000D01*
X114000000Y-94500000D02*
X114000000Y-94550000D01*
X114000000Y-94550000D02*
X114350000Y-94900000D01*
X111350000Y-96000000D02*
X111350000Y-95850000D01*
X111350000Y-95850000D02*
X111000000Y-95500000D01*
X106350000Y-94000000D02*
X106350000Y-93850000D01*
X106350000Y-93850000D02*
X106000000Y-93500000D01*
X104000000Y-86500000D02*
X104000000Y-86450000D01*
X104000000Y-86450000D02*
X103650000Y-86100000D01*
X100350000Y-85000000D02*
X100350000Y-84850000D01*
X100350000Y-84850000D02*
X100000000Y-84500000D01*
X119350000Y-79000000D02*
X119350000Y-78850000D01*
X119350000Y-78850000D02*
X119000000Y-78500000D01*
X119400000Y-81250000D02*
X119750000Y-81250000D01*
X119750000Y-81250000D02*
X120000000Y-81500000D01*
X117350000Y-82900000D02*
X117350000Y-82850000D01*
X117350000Y-82850000D02*
X117000000Y-82500000D01*
X113650000Y-83100000D02*
X113650000Y-83150000D01*
X113650000Y-83150000D02*
X114000000Y-83500000D01*
X116350000Y-80000000D02*
X116350000Y-79850000D01*
X116350000Y-79850000D02*
X116000000Y-79500000D01*
X112350000Y-78000000D02*
X112350000Y-77850000D01*
X112350000Y-77850000D02*
X112000000Y-77500000D01*
X113000000Y-80500000D02*
X113000000Y-80450000D01*
X113000000Y-80450000D02*
X112650000Y-80100000D01*
X106350000Y-83000000D02*
X106350000Y-82850000D01*
X106350000Y-82850000D02*
X106000000Y-82500000D01*
X108400000Y-81250000D02*
X108750000Y-81250000D01*
X108750000Y-81250000D02*
X109000000Y-81500000D01*
X102350000Y-81000000D02*
X102350000Y-80850000D01*
X102350000Y-80850000D02*
X102000000Y-80500000D01*
X102000000Y-80500000D02*
X102000000Y-80450000D01*
X102000000Y-80450000D02*
X101650000Y-80100000D01*
X75000000Y-112300000D02*
X75000000Y-111750000D01*
X72500000Y-112300000D02*
X72500000Y-111750000D01*
X70000000Y-112300000D02*
X70000000Y-111750000D01*
X67500000Y-112300000D02*
X67500000Y-111750000D01*
X65000000Y-112300000D02*
X65000000Y-111750000D01*
X75750000Y-120950000D02*
X75750000Y-120300000D01*
X76150000Y-126250000D02*
X75500000Y-126250000D01*
X76450000Y-120950000D02*
X76650000Y-120750000D01*
X76650000Y-120750000D02*
X77500000Y-120750000D01*
X75750000Y-120950000D02*
X76450000Y-120950000D01*
X76000000Y-125000000D02*
X76000000Y-126100000D01*
X76000000Y-126100000D02*
X76150000Y-126250000D01*
D35*
X107523999Y-89023999D02*
X108000000Y-89500000D01*
X106650000Y-87600000D02*
X107026001Y-87976001D01*
X107026001Y-87976001D02*
X107180483Y-87976001D01*
X107180483Y-87976001D02*
X107523999Y-88319517D01*
X107523999Y-88319517D02*
X107523999Y-89023999D01*
D37*
X105250000Y-87500000D02*
X106350000Y-87500000D01*
D35*
X106650000Y-86000000D02*
X106500000Y-86150000D01*
X106500000Y-86150000D02*
X106500000Y-87500000D01*
D37*
X100000000Y-88500000D02*
X100350000Y-88150000D01*
X100350000Y-88150000D02*
X100350000Y-88000000D01*
X99500000Y-90850000D02*
X99650000Y-90850000D01*
X99650000Y-90850000D02*
X100000000Y-90500000D01*
X101500000Y-95150000D02*
X101350000Y-95150000D01*
X101350000Y-95150000D02*
X101000000Y-95500000D01*
X101000000Y-91500000D02*
X102050000Y-91500000D01*
X104350000Y-90000000D02*
X104350000Y-90150000D01*
X104350000Y-90150000D02*
X104000000Y-90500000D01*
X104500000Y-92150000D02*
X104350000Y-92150000D01*
X104350000Y-92150000D02*
X104000000Y-92500000D01*
X102000000Y-93500000D02*
X101500000Y-93000000D01*
X77000000Y-123500000D02*
X76000000Y-123500000D01*
X77750000Y-123700000D02*
X77200000Y-123700000D01*
X77200000Y-123700000D02*
X77000000Y-123500000D01*
X78500000Y-123800000D02*
X77850000Y-123800000D01*
X77850000Y-123800000D02*
X77750000Y-123700000D01*
X78500000Y-123800000D02*
X79100000Y-123800000D01*
X79100000Y-123800000D02*
X79250000Y-123950000D01*
X78475000Y-122300000D02*
X77550000Y-122300000D01*
X77550000Y-122300000D02*
X77500000Y-122250000D01*
X78475000Y-122300000D02*
X79250000Y-122300000D01*
D35*
X133300000Y-78450000D02*
X133300000Y-86450000D01*
X131300000Y-76450000D02*
X133300000Y-78450000D01*
X105500000Y-133500000D02*
X89000000Y-133500000D01*
X89000000Y-133500000D02*
X87500000Y-135000000D01*
X87500000Y-135000000D02*
X87500000Y-151000000D01*
D37*
X76175000Y-58200000D02*
X77125000Y-57250000D01*
X77125000Y-57250000D02*
X77125000Y-53675000D01*
X74325000Y-58200000D02*
X76175000Y-58200000D01*
X72024999Y-60500001D02*
X74325000Y-58200000D01*
X71250000Y-60750000D02*
X71499999Y-60500001D01*
X71499999Y-60500001D02*
X72024999Y-60500001D01*
X101002011Y-76724542D02*
X101002011Y-76652011D01*
X98025000Y-68650000D02*
X92276090Y-62901090D01*
X101002011Y-76652011D02*
X98025000Y-73675000D01*
X98025000Y-73675000D02*
X98025000Y-68650000D01*
X92276090Y-62901090D02*
X92276090Y-51950000D01*
X101002011Y-78500000D02*
X101002011Y-76724542D01*
X101002011Y-76724542D02*
X101000000Y-76722531D01*
X102000000Y-78500000D02*
X102000000Y-75050000D01*
X102000000Y-75050000D02*
X99450000Y-72500000D01*
X99450000Y-72500000D02*
X99450000Y-67920889D01*
X99450000Y-67920889D02*
X93854111Y-62325000D01*
X93854111Y-62325000D02*
X93854111Y-53525000D01*
X103000000Y-76750000D02*
X103000000Y-74500000D01*
X100925000Y-66450000D02*
X96925000Y-62450000D01*
X103000000Y-74500000D02*
X100925000Y-72425000D01*
X100925000Y-72425000D02*
X100925000Y-66450000D01*
X96925000Y-62450000D02*
X96925000Y-53725000D01*
X96925000Y-53725000D02*
X96725000Y-53525000D01*
D35*
X103000000Y-77500000D02*
X103000000Y-76750000D01*
X103500000Y-78000000D02*
X103000000Y-77500000D01*
X103500000Y-79000000D02*
X103500000Y-78000000D01*
X104000000Y-79500000D02*
X103500000Y-79000000D01*
D37*
X105500000Y-77000000D02*
X105500000Y-74250000D01*
D35*
X105500000Y-78750000D02*
X105500000Y-77000000D01*
X105500000Y-79000000D02*
X105500000Y-78750000D01*
X106000000Y-79500000D02*
X105500000Y-79000000D01*
D37*
X102900000Y-65075000D02*
X99975000Y-62150000D01*
X99975000Y-62150000D02*
X99975000Y-55825000D01*
X102900000Y-71650000D02*
X102900000Y-65075000D01*
X105500000Y-74250000D02*
X102900000Y-71650000D01*
X106000000Y-74700000D02*
X106000000Y-73950000D01*
X106000000Y-73950000D02*
X103550000Y-71500000D01*
X103550000Y-71500000D02*
X103550000Y-64750000D01*
X103550000Y-64750000D02*
X100600000Y-61800000D01*
X100600000Y-61800000D02*
X100600000Y-53100000D01*
X100600000Y-53100000D02*
X100225000Y-52725000D01*
D35*
X106000000Y-75250000D02*
X106000000Y-74700000D01*
X106000000Y-78500000D02*
X106000000Y-75250000D01*
D37*
X101675000Y-56950000D02*
X101675000Y-61600000D01*
X101675000Y-61600000D02*
X104225000Y-64150000D01*
X104225000Y-64150000D02*
X104225000Y-71375000D01*
X104225000Y-71375000D02*
X107052011Y-74202011D01*
X107052011Y-74202011D02*
X107052011Y-75943052D01*
X107052011Y-75943052D02*
X106500000Y-76495063D01*
X106500000Y-76495063D02*
X106500000Y-77000000D01*
D35*
X106500000Y-78000000D02*
X106500000Y-77000000D01*
X106500000Y-79000000D02*
X106500000Y-78000000D01*
X107000000Y-79500000D02*
X106500000Y-79000000D01*
D37*
X103700000Y-53775000D02*
X103700000Y-53400000D01*
X103700000Y-53400000D02*
X103025000Y-52725000D01*
X103700000Y-60175000D02*
X103700000Y-53775000D01*
X105525000Y-62000000D02*
X103700000Y-60175000D01*
X105525000Y-62050000D02*
X105525000Y-62000000D01*
X105525000Y-71050000D02*
X105525000Y-62050000D01*
X107904031Y-73429031D02*
X105525000Y-71050000D01*
X107501001Y-76698999D02*
X107904031Y-76295969D01*
X107904031Y-76295969D02*
X107904031Y-73429031D01*
X107501001Y-78001001D02*
X107501001Y-76698999D01*
D35*
X108000000Y-79500000D02*
X107501001Y-79001001D01*
X107501001Y-79001001D02*
X107501001Y-78001001D01*
D37*
X109000000Y-78500000D02*
X109000000Y-72475000D01*
X109000000Y-72475000D02*
X107025000Y-70500000D01*
X107025000Y-70500000D02*
X107025000Y-60775000D01*
X107025000Y-60775000D02*
X105375000Y-59125000D01*
X105375000Y-59125000D02*
X105375000Y-52822989D01*
X105375000Y-52822989D02*
X105302011Y-52750000D01*
X105901010Y-53975000D02*
X105901010Y-48601010D01*
X105901010Y-48601010D02*
X105375000Y-48075000D01*
X105375000Y-48075000D02*
X105375000Y-45825000D01*
X108500000Y-78000000D02*
X108500000Y-72800000D01*
X108500000Y-72800000D02*
X106350000Y-70650000D01*
X106350000Y-61172998D02*
X104776001Y-59598999D01*
X104776001Y-59598999D02*
X104776001Y-46076001D01*
X104776001Y-46076001D02*
X104775000Y-46075000D01*
X106350000Y-70650000D02*
X106350000Y-61172998D01*
D35*
X108500000Y-78250000D02*
X108500000Y-78000000D01*
X108500000Y-79000000D02*
X108500000Y-78250000D01*
X109000000Y-79500000D02*
X108500000Y-79000000D01*
D37*
X103700000Y-52228482D02*
X103700000Y-46175000D01*
X104226010Y-54275000D02*
X104226010Y-52754492D01*
X104226010Y-52754492D02*
X103700000Y-52228482D01*
X103000000Y-53700000D02*
X102473999Y-53173999D01*
X102473999Y-53173999D02*
X102473999Y-46276001D01*
X102473999Y-46276001D02*
X102550000Y-46200000D01*
X107000000Y-78500000D02*
X107000000Y-76597531D01*
X107000000Y-76597531D02*
X107478021Y-76119510D01*
X107478021Y-76119510D02*
X107478021Y-73778021D01*
X107478021Y-73778021D02*
X104825000Y-71125000D01*
X102425000Y-61500000D02*
X102425000Y-53825000D01*
X104825000Y-71125000D02*
X104825000Y-63900000D01*
X104825000Y-63900000D02*
X102425000Y-61500000D01*
X102425000Y-53825000D02*
X102000000Y-53400000D01*
X102000000Y-53400000D02*
X102000000Y-46550000D01*
X102000000Y-46550000D02*
X101875000Y-46425000D01*
X101376009Y-46726009D02*
X101250000Y-46600000D01*
X101250000Y-46600000D02*
X101250000Y-46150000D01*
X101126010Y-56400000D02*
X101376009Y-56150001D01*
X101376009Y-56150001D02*
X101376009Y-46726009D01*
X99400000Y-55025000D02*
X99400000Y-47125000D01*
X105000000Y-74550000D02*
X102200000Y-71750000D01*
X102200000Y-71750000D02*
X102200000Y-65375000D01*
X105000000Y-76000000D02*
X105000000Y-74550000D01*
D35*
X105000000Y-78500000D02*
X105000000Y-76000000D01*
D37*
X98825000Y-46175000D02*
X98750000Y-46100000D01*
X98750000Y-46100000D02*
X98750000Y-45825000D01*
X98825000Y-62000000D02*
X98825000Y-46175000D01*
X102200000Y-65375000D02*
X98825000Y-62000000D01*
X97650000Y-61875000D02*
X97650000Y-46200000D01*
X101600000Y-65825000D02*
X97650000Y-61875000D01*
X101600000Y-66522531D02*
X101600000Y-65825000D01*
X101600000Y-72175000D02*
X101600000Y-66522531D01*
X103575000Y-74150000D02*
X101600000Y-72175000D01*
X103575000Y-76975000D02*
X103575000Y-74150000D01*
X104000000Y-77400000D02*
X103575000Y-76975000D01*
X104000000Y-78500000D02*
X104000000Y-77400000D01*
X96050000Y-54050000D02*
X96050000Y-47325000D01*
X96050000Y-47325000D02*
X96350000Y-47025000D01*
X96350000Y-54350000D02*
X96050000Y-54050000D01*
D35*
X103000000Y-79500000D02*
X102501001Y-79001001D01*
X102501001Y-79001001D02*
X102501001Y-78976001D01*
D37*
X95350000Y-46675000D02*
X95669547Y-46355453D01*
X95669547Y-46355453D02*
X95709815Y-46355453D01*
X95350000Y-62825000D02*
X95350000Y-46675000D01*
X100175000Y-67650000D02*
X95350000Y-62825000D01*
X100175000Y-72475000D02*
X100175000Y-67650000D01*
X102501001Y-74801001D02*
X100175000Y-72475000D01*
X102501001Y-77976001D02*
X102501001Y-74801001D01*
D35*
X102501001Y-78976001D02*
X102501001Y-77976001D01*
D37*
X94625000Y-55025000D02*
X94625000Y-52653482D01*
X94625000Y-52653482D02*
X94125000Y-52153482D01*
X94125000Y-52153482D02*
X94125000Y-47225000D01*
X94125000Y-47225000D02*
X94125000Y-46775000D01*
X94125000Y-46775000D02*
X94575000Y-46325000D01*
X75250000Y-53500000D02*
X75250000Y-52000000D01*
X75250000Y-56225000D02*
X75250000Y-53500000D01*
X75250000Y-57425000D02*
X75250000Y-56225000D01*
X101500000Y-78000000D02*
X101500000Y-75300000D01*
X101500000Y-75300000D02*
X98775000Y-72575000D01*
X98775000Y-72575000D02*
X98775000Y-68200000D01*
X98775000Y-68200000D02*
X93328101Y-62753101D01*
X93328101Y-62753101D02*
X93328101Y-46376081D01*
X93328101Y-46376081D02*
X92802020Y-45850000D01*
D35*
X102000000Y-79500000D02*
X101500000Y-79000000D01*
X101500000Y-79000000D02*
X101500000Y-78950000D01*
X101500000Y-78950000D02*
X101500000Y-78000000D01*
D37*
X92250000Y-51145428D02*
X92250000Y-46401010D01*
X92250000Y-46401010D02*
X92276010Y-46375000D01*
X92802100Y-53950000D02*
X92802100Y-51697528D01*
X92802100Y-51697528D02*
X92250000Y-51145428D01*
X97450000Y-73775000D02*
X100500000Y-76825000D01*
X100500000Y-76825000D02*
X100500000Y-78000000D01*
D35*
X100500000Y-79000000D02*
X100500000Y-78000000D01*
X101000000Y-79500000D02*
X100500000Y-79000000D01*
D37*
X97450000Y-69050000D02*
X91750000Y-63350000D01*
X91750000Y-63350000D02*
X91750000Y-45750000D01*
X97450000Y-73775000D02*
X97450000Y-69050000D01*
X90276010Y-54325000D02*
X90276010Y-46525000D01*
X100000000Y-78500000D02*
X96775000Y-75275000D01*
X89750000Y-45850000D02*
X89750000Y-62575000D01*
X89750000Y-62575000D02*
X96775000Y-69600000D01*
X96775000Y-69600000D02*
X96775000Y-75275000D01*
X88775970Y-53950000D02*
X88775970Y-53596447D01*
X88775970Y-53596447D02*
X88250000Y-53070477D01*
X88250000Y-53070477D02*
X88250000Y-46228553D01*
X88250000Y-46228553D02*
X88250000Y-45875000D01*
D38*
X121500000Y-84000000D02*
X121250001Y-84249999D01*
X121250001Y-84249999D02*
X120859664Y-84249999D01*
X120859664Y-84249999D02*
X119459663Y-85650000D01*
X115500000Y-86000000D02*
X115000000Y-85500000D01*
X119459663Y-85650000D02*
X118850000Y-85650000D01*
X118850000Y-85650000D02*
X118500000Y-86000000D01*
X118500000Y-86000000D02*
X115500000Y-86000000D01*
X119617482Y-84400000D02*
X117100000Y-84400000D01*
X117100000Y-84400000D02*
X116500000Y-85000000D01*
X122000000Y-82017482D02*
X119617482Y-84400000D01*
X122000000Y-81300000D02*
X122000000Y-82017482D01*
X116500000Y-85000000D02*
X114500000Y-85000000D01*
X114500000Y-85000000D02*
X114000000Y-85500000D01*
X122000000Y-83350000D02*
X121250000Y-83350000D01*
X121250000Y-83350000D02*
X119600000Y-85000000D01*
X119600000Y-85000000D02*
X117500000Y-85000000D01*
X117000000Y-85500000D02*
X116000000Y-85500000D01*
X117500000Y-85000000D02*
X117000000Y-85500000D01*
D37*
X96800000Y-83526010D02*
X85548990Y-83526010D01*
X85548990Y-83526010D02*
X80900000Y-88175000D01*
X80900000Y-88175000D02*
X80900000Y-98500000D01*
X80900000Y-98500000D02*
X73450000Y-105950000D01*
X73450000Y-105950000D02*
X65650000Y-105950000D01*
X65650000Y-105950000D02*
X62525000Y-109075000D01*
X62525000Y-109075000D02*
X62525000Y-112000000D01*
X62525000Y-112000000D02*
X63725000Y-113200000D01*
X63725000Y-113200000D02*
X65000000Y-113200000D01*
X65000000Y-113200000D02*
X65000000Y-114675000D01*
X65000000Y-114675000D02*
X64500000Y-115175000D01*
X64500000Y-115175000D02*
X64500000Y-117175000D01*
X68125000Y-120800000D02*
X68125000Y-124225000D01*
X64500000Y-117175000D02*
X68125000Y-120800000D01*
X68125000Y-124225000D02*
X69600000Y-125700000D01*
D35*
X89850000Y-92665000D02*
X90000001Y-92514999D01*
X90000001Y-92514999D02*
X96381654Y-92514999D01*
X96381654Y-92514999D02*
X96577262Y-92710607D01*
X96577262Y-92710607D02*
X96577262Y-92922738D01*
X89850000Y-92035000D02*
X90000001Y-92185001D01*
X90976740Y-92083929D02*
X90983259Y-92026074D01*
X91450000Y-91925001D02*
X91478927Y-91928261D01*
X91478927Y-91928261D02*
X91506404Y-91937876D01*
X90931053Y-92156640D02*
X90951638Y-92136055D01*
X91567125Y-91998597D02*
X91576740Y-92026074D01*
X91583259Y-92083929D02*
X91592874Y-92111406D01*
X91592874Y-92111406D02*
X91608361Y-92136055D01*
X91608361Y-92136055D02*
X91628946Y-92156640D01*
X91053595Y-91937876D02*
X91081072Y-91928261D01*
X91551638Y-91973948D02*
X91567125Y-91998597D01*
X92106404Y-92172127D02*
X92131053Y-92156640D01*
X91628946Y-92156640D02*
X91653595Y-92172127D01*
X91653595Y-92172127D02*
X91681072Y-92181742D01*
X91681072Y-92181742D02*
X91710000Y-92185001D01*
X91710000Y-92185001D02*
X92050000Y-92185001D01*
X92050000Y-92185001D02*
X92078927Y-92181742D01*
X92078927Y-92181742D02*
X92106404Y-92172127D01*
X90967125Y-92111406D02*
X90976740Y-92083929D01*
X90000001Y-92185001D02*
X90850000Y-92185001D01*
X92281072Y-91928261D02*
X92310000Y-91925001D01*
X92253595Y-91937876D02*
X92281072Y-91928261D01*
X92228946Y-91953363D02*
X92253595Y-91937876D01*
X92208361Y-91973948D02*
X92228946Y-91953363D01*
X92192874Y-91998597D02*
X92208361Y-91973948D01*
X92183259Y-92026074D02*
X92192874Y-91998597D01*
X92176740Y-92083929D02*
X92183259Y-92026074D01*
X92167125Y-92111406D02*
X92176740Y-92083929D01*
X92151638Y-92136055D02*
X92167125Y-92111406D01*
X90850000Y-92185001D02*
X90878927Y-92181742D01*
X92751638Y-91973948D02*
X92767125Y-91998597D01*
X92731053Y-91953363D02*
X92751638Y-91973948D01*
X92706404Y-91937876D02*
X92731053Y-91953363D01*
X92678927Y-91928261D02*
X92706404Y-91937876D01*
X92650000Y-91925001D02*
X92678927Y-91928261D01*
X92310000Y-91925001D02*
X92650000Y-91925001D01*
X90878927Y-92181742D02*
X90906404Y-92172127D01*
X90906404Y-92172127D02*
X90931053Y-92156640D01*
X91008361Y-91973948D02*
X91028946Y-91953363D01*
X91576740Y-92026074D02*
X91583259Y-92083929D01*
X90951638Y-92136055D02*
X90967125Y-92111406D01*
X90983259Y-92026074D02*
X90992874Y-91998597D01*
X90992874Y-91998597D02*
X91008361Y-91973948D01*
X94028946Y-92156640D02*
X94053595Y-92172127D01*
X94053595Y-92172127D02*
X94081072Y-92181742D01*
X91028946Y-91953363D02*
X91053595Y-91937876D01*
X91081072Y-91928261D02*
X91110000Y-91925001D01*
X91531053Y-91953363D02*
X91551638Y-91973948D01*
X91110000Y-91925001D02*
X91450000Y-91925001D01*
X91506404Y-91937876D02*
X91531053Y-91953363D01*
X92131053Y-92156640D02*
X92151638Y-92136055D01*
X92808361Y-92136055D02*
X92828946Y-92156640D01*
X92792874Y-92111406D02*
X92808361Y-92136055D01*
X92783259Y-92083929D02*
X92792874Y-92111406D01*
X92776740Y-92026074D02*
X92783259Y-92083929D01*
X92767125Y-91998597D02*
X92776740Y-92026074D01*
X92881072Y-92181742D02*
X92910000Y-92185001D01*
X92853595Y-92172127D02*
X92881072Y-92181742D01*
X92828946Y-92156640D02*
X92853595Y-92172127D01*
X93250000Y-92185001D02*
X93278927Y-92181742D01*
X92910000Y-92185001D02*
X93250000Y-92185001D01*
X93367125Y-92111406D02*
X93376740Y-92083929D01*
X93351638Y-92136055D02*
X93367125Y-92111406D01*
X93331053Y-92156640D02*
X93351638Y-92136055D01*
X93306404Y-92172127D02*
X93331053Y-92156640D01*
X93278927Y-92181742D02*
X93306404Y-92172127D01*
X93376740Y-92083929D02*
X93383259Y-92026074D01*
X93383259Y-92026074D02*
X93392874Y-91998597D01*
X93392874Y-91998597D02*
X93408361Y-91973948D01*
X93408361Y-91973948D02*
X93428946Y-91953363D01*
X93428946Y-91953363D02*
X93453595Y-91937876D01*
X93453595Y-91937876D02*
X93481072Y-91928261D01*
X93481072Y-91928261D02*
X93510000Y-91925001D01*
X93510000Y-91925001D02*
X93850000Y-91925001D01*
X93850000Y-91925001D02*
X93878927Y-91928261D01*
X93878927Y-91928261D02*
X93906404Y-91937876D01*
X93906404Y-91937876D02*
X93931053Y-91953363D01*
X93931053Y-91953363D02*
X93951638Y-91973948D01*
X93951638Y-91973948D02*
X93967125Y-91998597D01*
X93967125Y-91998597D02*
X93976740Y-92026074D01*
X93976740Y-92026074D02*
X93983259Y-92083929D01*
X93983259Y-92083929D02*
X93992874Y-92111406D01*
X93992874Y-92111406D02*
X94008361Y-92136055D01*
X94008361Y-92136055D02*
X94028946Y-92156640D01*
X94081072Y-92181742D02*
X94110000Y-92185001D01*
X94110000Y-92185001D02*
X94450000Y-92185001D01*
X94450000Y-92185001D02*
X94478927Y-92181742D01*
X94478927Y-92181742D02*
X94506404Y-92172127D01*
X94506404Y-92172127D02*
X94531053Y-92156640D01*
X94531053Y-92156640D02*
X94551638Y-92136055D01*
X94551638Y-92136055D02*
X94567125Y-92111406D01*
X94567125Y-92111406D02*
X94576740Y-92083929D01*
X94576740Y-92083929D02*
X94583259Y-92026074D01*
X94583259Y-92026074D02*
X94592874Y-91998597D01*
X94592874Y-91998597D02*
X94608361Y-91973948D01*
X94608361Y-91973948D02*
X94628946Y-91953363D01*
X94628946Y-91953363D02*
X94653595Y-91937876D01*
X94653595Y-91937876D02*
X94681072Y-91928261D01*
X94681072Y-91928261D02*
X94710000Y-91925001D01*
X94710000Y-91925001D02*
X95050000Y-91925001D01*
X95050000Y-91925001D02*
X95078927Y-91928261D01*
X95078927Y-91928261D02*
X95106404Y-91937876D01*
X95106404Y-91937876D02*
X95131053Y-91953363D01*
X95131053Y-91953363D02*
X95151638Y-91973948D01*
X95151638Y-91973948D02*
X95167125Y-91998597D01*
X95167125Y-91998597D02*
X95176740Y-92026074D01*
X95176740Y-92026074D02*
X95183259Y-92083929D01*
X95183259Y-92083929D02*
X95192874Y-92111406D01*
X95192874Y-92111406D02*
X95208361Y-92136055D01*
X95208361Y-92136055D02*
X95228946Y-92156640D01*
X95228946Y-92156640D02*
X95253595Y-92172127D01*
X95253595Y-92172127D02*
X95281072Y-92181742D01*
X95281072Y-92181742D02*
X95310000Y-92185001D01*
X95310000Y-92185001D02*
X96518346Y-92185001D01*
X96518346Y-92185001D02*
X96810607Y-92477262D01*
X96810607Y-92477262D02*
X97022738Y-92477262D01*
X119000000Y-95500000D02*
X121650000Y-95500000D01*
X121650000Y-95500000D02*
X129440000Y-103290000D01*
X129440000Y-103290000D02*
X137000000Y-103290000D01*
X118000000Y-95500000D02*
X118500000Y-96000000D01*
X118500000Y-96000000D02*
X121450000Y-96000000D01*
X121450000Y-96000000D02*
X129350000Y-103900000D01*
X129350000Y-103900000D02*
X134900000Y-103900000D01*
X134900000Y-103900000D02*
X135500000Y-104500000D01*
X135500000Y-104500000D02*
X138330000Y-104500000D01*
X138330000Y-104500000D02*
X139540000Y-103290000D01*
X121250000Y-96500000D02*
X133120000Y-108370000D01*
X133120000Y-108370000D02*
X137000000Y-108370000D01*
X119000000Y-96500000D02*
X121250000Y-96500000D01*
X114000000Y-95500000D02*
X114500000Y-96000000D01*
X114500000Y-96000000D02*
X114500000Y-98550000D01*
X114500000Y-98550000D02*
X134950000Y-119000000D01*
X134950000Y-119000000D02*
X137000000Y-119000000D01*
X114000000Y-96500000D02*
X114000000Y-98700000D01*
X114000000Y-98700000D02*
X135600000Y-120300000D01*
X135600000Y-120300000D02*
X138240000Y-120300000D01*
X138240000Y-120300000D02*
X139540000Y-119000000D01*
D37*
X104000000Y-91500000D02*
X102950000Y-91500000D01*
D38*
X135550000Y-88300000D02*
X137750000Y-88300000D01*
X134050000Y-89800000D02*
X135550000Y-88300000D01*
X132250000Y-89800000D02*
X134050000Y-89800000D01*
X130650000Y-89800000D02*
X132250000Y-89800000D01*
X126400000Y-89800000D02*
X130650000Y-89800000D01*
X122800000Y-89800000D02*
X126400000Y-89800000D01*
X122700000Y-89700000D02*
X122800000Y-89800000D01*
X122000000Y-89000000D02*
X122700000Y-89700000D01*
X121475000Y-89000000D02*
X122000000Y-89000000D01*
X121475000Y-89000000D02*
X121500000Y-89000000D01*
X116825000Y-89000000D02*
X121475000Y-89000000D01*
X116500000Y-89000000D02*
X116825000Y-89000000D01*
X116249999Y-88749999D02*
X116500000Y-89000000D01*
X116000000Y-88500000D02*
X116249999Y-88749999D01*
D37*
X117500000Y-71500000D02*
X117750000Y-71500000D01*
X114000000Y-71500000D02*
X117500000Y-71500000D01*
X115500000Y-70750000D02*
X111750000Y-70750000D01*
X111750000Y-70750000D02*
X111250000Y-70250000D01*
X111250000Y-70250000D02*
X111250000Y-66350000D01*
D38*
X137400000Y-90200000D02*
X137750000Y-89850000D01*
X137750000Y-89850000D02*
X137750000Y-89800000D01*
X123200000Y-90200000D02*
X137400000Y-90200000D01*
X122900000Y-90500000D02*
X123200000Y-90200000D01*
X122800000Y-90500000D02*
X122900000Y-90500000D01*
X121750000Y-90500000D02*
X122800000Y-90500000D01*
X116000000Y-89500000D02*
X116500000Y-90000000D01*
X119500000Y-90000000D02*
X120000000Y-90500000D01*
X116500000Y-90000000D02*
X119500000Y-90000000D01*
X120000000Y-90500000D02*
X121750000Y-90500000D01*
X135900000Y-91800000D02*
X137750000Y-91800000D01*
X135350000Y-91250000D02*
X135900000Y-91800000D01*
X122853553Y-91250000D02*
X135350000Y-91250000D01*
X122450000Y-91200000D02*
X122803553Y-91200000D01*
X122803553Y-91200000D02*
X122853553Y-91250000D01*
D37*
X112500000Y-65100000D02*
X120100000Y-65100000D01*
X118425000Y-75400000D02*
X116850000Y-75400000D01*
X120100000Y-65100000D02*
X120250000Y-65250000D01*
X120250000Y-65250000D02*
X120250000Y-73575000D01*
X120250000Y-73575000D02*
X118425000Y-75400000D01*
X116850000Y-75400000D02*
X115000000Y-77250000D01*
X115000000Y-77250000D02*
X115000000Y-79500000D01*
D38*
X119500000Y-86000000D02*
X121500000Y-86000000D01*
X119000000Y-86500000D02*
X119500000Y-86000000D01*
X118500000Y-86500000D02*
X119000000Y-86500000D01*
X116000000Y-86500000D02*
X118500000Y-86500000D01*
X121500000Y-81850000D02*
X119398999Y-83951001D01*
X119398999Y-83951001D02*
X115548999Y-83951001D01*
X114000000Y-84500000D02*
X113500000Y-85000000D01*
X115548999Y-83951001D02*
X115000000Y-84500000D01*
X115000000Y-84500000D02*
X114000000Y-84500000D01*
X112000000Y-86146447D02*
X112000000Y-86500000D01*
X113500000Y-85000000D02*
X112500000Y-85000000D01*
X112000000Y-85500000D02*
X112000000Y-86146447D01*
X112500000Y-85000000D02*
X112000000Y-85500000D01*
D35*
X116000000Y-96500000D02*
X117400000Y-97900000D01*
X117400000Y-97900000D02*
X117400000Y-99600000D01*
X117400000Y-99600000D02*
X117100000Y-99900000D01*
X117100000Y-99900000D02*
X116900000Y-100100000D01*
X118000000Y-97500000D02*
X118000000Y-100000000D01*
X118000000Y-100000000D02*
X117400000Y-100600000D01*
X117249999Y-96749999D02*
X118000000Y-97500000D01*
X117000000Y-96500000D02*
X117249999Y-96749999D01*
D37*
X69650000Y-64650000D02*
X69900000Y-64650000D01*
X69650000Y-64650000D02*
X68375000Y-63375000D01*
X68375000Y-63375000D02*
X68375000Y-61675000D01*
X81175000Y-64075000D02*
X80600000Y-64650000D01*
X86925000Y-64075000D02*
X81175000Y-64075000D01*
D35*
X101000000Y-80500000D02*
X98500000Y-80500000D01*
X98500000Y-80500000D02*
X98000000Y-80000000D01*
D37*
X100000000Y-81000000D02*
X99146518Y-81000000D01*
X99146518Y-81000000D02*
X98070517Y-82076001D01*
X98070517Y-82076001D02*
X98070517Y-82079483D01*
X98070517Y-82079483D02*
X97641010Y-82508990D01*
X97641010Y-82508990D02*
X94958990Y-82508990D01*
X94958990Y-82508990D02*
X94750000Y-82300000D01*
X94750000Y-82300000D02*
X94750000Y-81000000D01*
D35*
X101500000Y-81000000D02*
X100000000Y-81000000D01*
X102000000Y-81500000D02*
X101500000Y-81000000D01*
D37*
X118625000Y-72275000D02*
X119500000Y-71400000D01*
X119500000Y-71400000D02*
X119500000Y-70000000D01*
X114475000Y-72275000D02*
X118625000Y-72275000D01*
X110249999Y-76500001D02*
X114475000Y-72275000D01*
X110000000Y-77500000D02*
X110249999Y-77250001D01*
X110249999Y-77250001D02*
X110249999Y-76500001D01*
X88500000Y-60250000D02*
X88500000Y-81250000D01*
X85200000Y-56950000D02*
X88500000Y-60250000D01*
X78150000Y-56950000D02*
X85200000Y-56950000D01*
X77475000Y-57875000D02*
X78150000Y-57200000D01*
X78150000Y-57200000D02*
X78150000Y-56950000D01*
X77475000Y-61875000D02*
X77475000Y-57875000D01*
X76675000Y-62675000D02*
X77475000Y-61875000D01*
X71350000Y-62675000D02*
X76675000Y-62675000D01*
X70650000Y-61975000D02*
X71350000Y-62675000D01*
X70650000Y-59571447D02*
X70650000Y-61975000D01*
X71325000Y-59250000D02*
X70971447Y-59250000D01*
X70971447Y-59250000D02*
X70650000Y-59571447D01*
D35*
X95014854Y-89052950D02*
X95003760Y-89021246D01*
X103000000Y-89500000D02*
X102834472Y-89500000D01*
X96167274Y-88872376D02*
X96143523Y-88848625D01*
X96143523Y-88848625D02*
X96115082Y-88830754D01*
X94967274Y-88872376D02*
X94943523Y-88848625D01*
X94985145Y-88900817D02*
X94967274Y-88872376D01*
X96350000Y-89137868D02*
X96316621Y-89134107D01*
X93916621Y-89134107D02*
X93884917Y-89123013D01*
X93884917Y-89123013D02*
X93856476Y-89105142D01*
X93214854Y-88900817D02*
X93203760Y-88932521D01*
X93203760Y-88932521D02*
X93200000Y-88965900D01*
X102834472Y-89500000D02*
X102334472Y-90000000D01*
X93256476Y-88848625D02*
X93232725Y-88872376D01*
X96200000Y-88987868D02*
X96200000Y-88965900D01*
X102334472Y-90000000D02*
X100661046Y-90000000D01*
X100661046Y-90000000D02*
X99798914Y-89137868D01*
X93814854Y-89052950D02*
X93803760Y-89021246D01*
X95614854Y-88900817D02*
X95603760Y-88932521D01*
X96083378Y-88819660D02*
X96050000Y-88815900D01*
X96203760Y-89021246D02*
X96200000Y-88987868D01*
X99798914Y-89137868D02*
X96350000Y-89137868D01*
X94915082Y-88830754D02*
X94883378Y-88819660D01*
X95600000Y-88965900D02*
X95600000Y-88987868D01*
X95567274Y-89081391D02*
X95543523Y-89105142D01*
X96200000Y-88965900D02*
X96196239Y-88932521D01*
X95632725Y-88872376D02*
X95614854Y-88900817D01*
X95603760Y-88932521D02*
X95600000Y-88965900D01*
X96316621Y-89134107D02*
X96284917Y-89123013D01*
X94432725Y-88872376D02*
X94414854Y-88900817D01*
X94456476Y-88848625D02*
X94432725Y-88872376D01*
X96284917Y-89123013D02*
X96256476Y-89105142D01*
X95483378Y-89134107D02*
X95450000Y-89137868D01*
X95150000Y-89137868D02*
X95116621Y-89134107D01*
X96256476Y-89105142D02*
X96232725Y-89081391D01*
X96185145Y-88900817D02*
X96167274Y-88872376D01*
X93200000Y-88965900D02*
X93200000Y-88987868D01*
X96214854Y-89052950D02*
X96203760Y-89021246D01*
X95003760Y-89021246D02*
X95000000Y-88987868D01*
X94484917Y-88830754D02*
X94456476Y-88848625D01*
X95750000Y-88815900D02*
X95716621Y-88819660D01*
X95716621Y-88819660D02*
X95684917Y-88830754D01*
X94414854Y-88900817D02*
X94403760Y-88932521D01*
X94996239Y-88932521D02*
X94985145Y-88900817D01*
X96196239Y-88932521D02*
X96185145Y-88900817D01*
X95596239Y-89021246D02*
X95585145Y-89052950D01*
X95116621Y-89134107D02*
X95084917Y-89123013D01*
X96232725Y-89081391D02*
X96214854Y-89052950D01*
X93316621Y-88819660D02*
X93284917Y-88830754D01*
X96115082Y-88830754D02*
X96083378Y-88819660D01*
X95032725Y-89081391D02*
X95014854Y-89052950D01*
X95684917Y-88830754D02*
X95656476Y-88848625D01*
X96050000Y-88815900D02*
X95750000Y-88815900D01*
X95656476Y-88848625D02*
X95632725Y-88872376D01*
X93832725Y-89081391D02*
X93814854Y-89052950D01*
X95600000Y-88987868D02*
X95596239Y-89021246D01*
X95585145Y-89052950D02*
X95567274Y-89081391D01*
X95450000Y-89137868D02*
X95150000Y-89137868D01*
X95543523Y-89105142D02*
X95515082Y-89123013D01*
X95515082Y-89123013D02*
X95483378Y-89134107D01*
X93200000Y-88987868D02*
X93196239Y-89021246D01*
X95084917Y-89123013D02*
X95056476Y-89105142D01*
X95056476Y-89105142D02*
X95032725Y-89081391D01*
X95000000Y-88965900D02*
X94996239Y-88932521D01*
X95000000Y-88987868D02*
X95000000Y-88965900D01*
X94943523Y-88848625D02*
X94915082Y-88830754D01*
X94883378Y-88819660D02*
X94850000Y-88815900D01*
X94550000Y-88815900D02*
X94516621Y-88819660D01*
X94850000Y-88815900D02*
X94550000Y-88815900D01*
X93800000Y-88987868D02*
X93800000Y-88965900D01*
X93800000Y-88965900D02*
X93796239Y-88932521D01*
X94516621Y-88819660D02*
X94484917Y-88830754D01*
X94400000Y-88987868D02*
X94396239Y-89021246D01*
X94400000Y-88965900D02*
X94400000Y-88987868D01*
X94403760Y-88932521D02*
X94400000Y-88965900D01*
X93196239Y-89021246D02*
X93185145Y-89052950D01*
X93185145Y-89052950D02*
X93167274Y-89081391D01*
X94385145Y-89052950D02*
X94367274Y-89081391D01*
X94396239Y-89021246D02*
X94385145Y-89052950D01*
X94367274Y-89081391D02*
X94343523Y-89105142D01*
X94343523Y-89105142D02*
X94315082Y-89123013D01*
X94315082Y-89123013D02*
X94283378Y-89134107D01*
X93232725Y-88872376D02*
X93214854Y-88900817D01*
X94283378Y-89134107D02*
X94250000Y-89137868D01*
X94250000Y-89137868D02*
X93950000Y-89137868D01*
X93950000Y-89137868D02*
X93916621Y-89134107D01*
X93715082Y-88830754D02*
X93683378Y-88819660D01*
X93683378Y-88819660D02*
X93650000Y-88815900D01*
X93856476Y-89105142D02*
X93832725Y-89081391D01*
X93803760Y-89021246D02*
X93800000Y-88987868D01*
X93284917Y-88830754D02*
X93256476Y-88848625D01*
X93796239Y-88932521D02*
X93785145Y-88900817D01*
X93785145Y-88900817D02*
X93767274Y-88872376D01*
X93767274Y-88872376D02*
X93743523Y-88848625D01*
X93743523Y-88848625D02*
X93715082Y-88830754D01*
X93650000Y-88815900D02*
X93350000Y-88815900D01*
X93350000Y-88815900D02*
X93316621Y-88819660D01*
X93167274Y-89081391D02*
X93143523Y-89105142D01*
X93143523Y-89105142D02*
X93115082Y-89123013D01*
X93115082Y-89123013D02*
X93083378Y-89134107D01*
X93083378Y-89134107D02*
X93050000Y-89137868D01*
X93050000Y-89137868D02*
X91477203Y-89137868D01*
X91477203Y-89137868D02*
X91272738Y-88933403D01*
X91272738Y-88933403D02*
X91272738Y-88721272D01*
X100550000Y-90350000D02*
X99700000Y-89500000D01*
X104000000Y-89500000D02*
X103523999Y-89976001D01*
X103523999Y-89976001D02*
X102819517Y-89976001D01*
X102819517Y-89976001D02*
X102445518Y-90350000D01*
X102445518Y-90350000D02*
X100550000Y-90350000D01*
X99700000Y-89500000D02*
X91372645Y-89500000D01*
X91372645Y-89500000D02*
X91039393Y-89166748D01*
X91039393Y-89166748D02*
X90827262Y-89166748D01*
X95989393Y-136972738D02*
X101834550Y-142817895D01*
X95777262Y-136972738D02*
X95989393Y-136972738D01*
X101834550Y-142817895D02*
X101834550Y-148765450D01*
X101834550Y-148765450D02*
X101500000Y-149100000D01*
X101500000Y-149100000D02*
X101500000Y-151000000D01*
X102499100Y-149100000D02*
X102499100Y-151000000D01*
X96222738Y-136527262D02*
X96222738Y-136739393D01*
X96222738Y-136739393D02*
X102164550Y-142681205D01*
X102164550Y-142681205D02*
X102164550Y-148765450D01*
X102164550Y-148765450D02*
X102499100Y-149100000D01*
X103489393Y-136391748D02*
X103277262Y-136391748D01*
X104835000Y-148765000D02*
X104835000Y-137737355D01*
X104835000Y-137737355D02*
X103489393Y-136391748D01*
X104500000Y-151000000D02*
X104500000Y-149100000D01*
X104500000Y-149100000D02*
X104835000Y-148765000D01*
X105500000Y-151000000D02*
X105500000Y-149100000D01*
X105500000Y-149100000D02*
X105165000Y-148765000D01*
X105165000Y-148765000D02*
X105165000Y-137600665D01*
X105165000Y-137600665D02*
X103722738Y-136158403D01*
X103722738Y-136158403D02*
X103722738Y-135946272D01*
D36*
X89500000Y-147000000D02*
X89500000Y-151000000D01*
X88500000Y-147000000D02*
X88500000Y-147494974D01*
X88500000Y-147494974D02*
X88500000Y-151000000D01*
D35*
X91100000Y-128500000D02*
X94350000Y-128500000D01*
X94350000Y-128500000D02*
X108000000Y-114850000D01*
X108000000Y-114850000D02*
X108000000Y-113800000D01*
X91100000Y-138050000D02*
X91100000Y-136250000D01*
X97500000Y-144450000D02*
X91100000Y-138050000D01*
X97500000Y-151000000D02*
X97500000Y-144450000D01*
D37*
X99750000Y-85500000D02*
X97352469Y-85500000D01*
D35*
X101000000Y-85500000D02*
X99750000Y-85500000D01*
D37*
X97352469Y-85500000D02*
X97227469Y-85625000D01*
X97227469Y-85625000D02*
X87075000Y-85625000D01*
X73725000Y-109525000D02*
X73725000Y-112900000D01*
X87075000Y-85625000D02*
X83350000Y-89350000D01*
X83350000Y-89350000D02*
X83350000Y-99900000D01*
X83350000Y-99900000D02*
X73725000Y-109525000D01*
X73725000Y-112900000D02*
X73425000Y-113200000D01*
X73425000Y-113200000D02*
X72500000Y-113200000D01*
X71000000Y-122500000D02*
X70900000Y-122400000D01*
X70900000Y-122400000D02*
X70900000Y-115850000D01*
X72500000Y-114250000D02*
X72500000Y-113700000D01*
X70900000Y-115850000D02*
X72500000Y-114250000D01*
X72500000Y-113700000D02*
X72500000Y-113200000D01*
X97500000Y-84750000D02*
X97175000Y-85075000D01*
X71225000Y-108450000D02*
X71225000Y-112750000D01*
X97175000Y-85075000D02*
X86650000Y-85075000D01*
X74275000Y-107800000D02*
X71875000Y-107800000D01*
X86650000Y-85075000D02*
X82650000Y-89075000D01*
X71875000Y-107800000D02*
X71225000Y-108450000D01*
X71225000Y-112750000D02*
X70775000Y-113200000D01*
X82650000Y-89075000D02*
X82650000Y-99425000D01*
X82650000Y-99425000D02*
X74275000Y-107800000D01*
X70775000Y-113200000D02*
X70000000Y-113200000D01*
X70000000Y-113200000D02*
X70000000Y-113700000D01*
X70000000Y-113700000D02*
X69725000Y-113975000D01*
X69725000Y-113975000D02*
X69150000Y-113975000D01*
X69150000Y-113975000D02*
X68275000Y-114850000D01*
X68275000Y-114850000D02*
X68275000Y-118425000D01*
X68275000Y-118425000D02*
X69875000Y-120025000D01*
X69875000Y-120025000D02*
X69875000Y-122675000D01*
X69875000Y-122675000D02*
X70500000Y-123300000D01*
X70300000Y-123100000D02*
X70500000Y-123300000D01*
X96200000Y-84052020D02*
X85847980Y-84052020D01*
X85847980Y-84052020D02*
X81500000Y-88400000D01*
X68625000Y-120475000D02*
X68625000Y-123650000D01*
X81500000Y-88400000D02*
X81500000Y-98825000D01*
X81500000Y-98825000D02*
X73725000Y-106600000D01*
X65125000Y-115500000D02*
X65125000Y-116975000D01*
X73725000Y-106600000D02*
X66625000Y-106600000D01*
X69875000Y-124900000D02*
X70875000Y-124900000D01*
X66625000Y-106600000D02*
X65950000Y-107275000D01*
X65950000Y-107275000D02*
X65950000Y-114675000D01*
X65125000Y-116975000D02*
X68625000Y-120475000D01*
X65950000Y-114675000D02*
X65125000Y-115500000D01*
X68625000Y-123650000D02*
X69875000Y-124900000D01*
X101000000Y-84500000D02*
X100473999Y-83973999D01*
X97130493Y-83973999D02*
X96526471Y-84578021D01*
X86275000Y-84575000D02*
X82050000Y-88800000D01*
X100473999Y-83973999D02*
X97130493Y-83973999D01*
X82050000Y-99125000D02*
X73975000Y-107200000D01*
X96526471Y-84578021D02*
X94703021Y-84578021D01*
X94703021Y-84578021D02*
X94700000Y-84575000D01*
X94700000Y-84575000D02*
X86275000Y-84575000D01*
X82050000Y-88800000D02*
X82050000Y-99125000D01*
X73975000Y-107200000D02*
X69950000Y-107200000D01*
X69950000Y-107200000D02*
X68600000Y-108550000D01*
X68600000Y-108550000D02*
X68600000Y-112900000D01*
X68600000Y-112900000D02*
X68300000Y-113200000D01*
X68300000Y-113200000D02*
X67500000Y-113200000D01*
X67500000Y-113200000D02*
X67500000Y-115350000D01*
X67500000Y-115350000D02*
X67800000Y-115650000D01*
X67800000Y-115650000D02*
X67800000Y-118775000D01*
X67800000Y-118775000D02*
X69200000Y-120175000D01*
X69200000Y-120175000D02*
X69200000Y-123200000D01*
X69200000Y-123200000D02*
X70100000Y-124100000D01*
X72050000Y-120900000D02*
X71696447Y-120900000D01*
X71696447Y-120900000D02*
X71498999Y-120702552D01*
X71498999Y-120702552D02*
X71498999Y-117726001D01*
X71498999Y-117726001D02*
X72350000Y-116875000D01*
X72350000Y-116875000D02*
X72350000Y-115125000D01*
X72350000Y-115125000D02*
X73475000Y-114000000D01*
X73475000Y-114000000D02*
X74800000Y-114000000D01*
X74800000Y-114000000D02*
X75000000Y-113800000D01*
X75000000Y-113800000D02*
X75000000Y-113200000D01*
X97725000Y-86026010D02*
X97371447Y-86026010D01*
X97371447Y-86026010D02*
X97247457Y-86150000D01*
X97247457Y-86150000D02*
X87450000Y-86150000D01*
X84075000Y-89525000D02*
X84075000Y-100050000D01*
X87450000Y-86150000D02*
X84075000Y-89525000D01*
X76500000Y-112575000D02*
X75875000Y-113200000D01*
X75875000Y-113200000D02*
X75000000Y-113200000D01*
X84075000Y-100050000D02*
X76500000Y-107625000D01*
X76500000Y-107625000D02*
X76500000Y-112575000D01*
X98650000Y-86026010D02*
X98001010Y-86675000D01*
X98001010Y-86675000D02*
X87925000Y-86675000D01*
X87925000Y-86675000D02*
X84825000Y-89775000D01*
X84825000Y-100350000D02*
X77550000Y-107625000D01*
X77550000Y-107625000D02*
X77550000Y-113125000D01*
X84825000Y-89775000D02*
X84825000Y-100350000D01*
X77550000Y-113125000D02*
X76125000Y-114550000D01*
X72900000Y-117450000D02*
X72125000Y-118225000D01*
X76125000Y-114550000D02*
X73875000Y-114550000D01*
X73875000Y-114550000D02*
X72900000Y-115525000D01*
X72900000Y-115525000D02*
X72900000Y-117450000D01*
D35*
X113500000Y-97000000D02*
X113500000Y-99050000D01*
X113500000Y-99050000D02*
X113200000Y-99350000D01*
X113500000Y-94000000D02*
X113500000Y-97000000D01*
X114000000Y-93500000D02*
X113500000Y-94000000D01*
D39*
G36*
X79920000Y-97420000D02*
X57664382Y-97420000D01*
X57749886Y-97334645D01*
X57839898Y-97117873D01*
X57840102Y-96883157D01*
X57750469Y-96666228D01*
X57584645Y-96500114D01*
X57367873Y-96410102D01*
X57133157Y-96409898D01*
X56916228Y-96499531D01*
X56875074Y-96540613D01*
X56834645Y-96500114D01*
X56617873Y-96410102D01*
X56383157Y-96409898D01*
X56166228Y-96499531D01*
X56000114Y-96665355D01*
X55910102Y-96882127D01*
X55909898Y-97116843D01*
X55999531Y-97333772D01*
X56085608Y-97420000D01*
X45080000Y-97420000D01*
X45080000Y-93816843D01*
X56409898Y-93816843D01*
X56499531Y-94033772D01*
X56665355Y-94199886D01*
X56882127Y-94289898D01*
X57116843Y-94290102D01*
X57333772Y-94200469D01*
X57499886Y-94034645D01*
X57589898Y-93817873D01*
X57590102Y-93583157D01*
X57500469Y-93366228D01*
X57334645Y-93200114D01*
X57117873Y-93110102D01*
X56883157Y-93109898D01*
X56666228Y-93199531D01*
X56500114Y-93365355D01*
X56410102Y-93582127D01*
X56409898Y-93816843D01*
X45080000Y-93816843D01*
X45080000Y-90866843D01*
X59284898Y-90866843D01*
X59374531Y-91083772D01*
X59540355Y-91249886D01*
X59757127Y-91339898D01*
X59991843Y-91340102D01*
X60208772Y-91250469D01*
X60374886Y-91084645D01*
X60464898Y-90867873D01*
X60465102Y-90633157D01*
X60375469Y-90416228D01*
X60209645Y-90250114D01*
X59992873Y-90160102D01*
X59758157Y-90159898D01*
X59541228Y-90249531D01*
X59375114Y-90415355D01*
X59285102Y-90632127D01*
X59284898Y-90866843D01*
X45080000Y-90866843D01*
X45080000Y-90116843D01*
X62259898Y-90116843D01*
X62349531Y-90333772D01*
X62515355Y-90499886D01*
X62732127Y-90589898D01*
X62966843Y-90590102D01*
X63183772Y-90500469D01*
X63349886Y-90334645D01*
X63439898Y-90117873D01*
X63439898Y-90116843D01*
X65009898Y-90116843D01*
X65099531Y-90333772D01*
X65265355Y-90499886D01*
X65482127Y-90589898D01*
X65716843Y-90590102D01*
X65933772Y-90500469D01*
X66099886Y-90334645D01*
X66189898Y-90117873D01*
X66189898Y-90116843D01*
X67459898Y-90116843D01*
X67549531Y-90333772D01*
X67715355Y-90499886D01*
X67932127Y-90589898D01*
X68166843Y-90590102D01*
X68383772Y-90500469D01*
X68549886Y-90334645D01*
X68639898Y-90117873D01*
X68640102Y-89883157D01*
X68550469Y-89666228D01*
X68384645Y-89500114D01*
X68167873Y-89410102D01*
X67933157Y-89409898D01*
X67716228Y-89499531D01*
X67550114Y-89665355D01*
X67460102Y-89882127D01*
X67459898Y-90116843D01*
X66189898Y-90116843D01*
X66190102Y-89883157D01*
X66100469Y-89666228D01*
X65934645Y-89500114D01*
X65717873Y-89410102D01*
X65483157Y-89409898D01*
X65266228Y-89499531D01*
X65100114Y-89665355D01*
X65010102Y-89882127D01*
X65009898Y-90116843D01*
X63439898Y-90116843D01*
X63440102Y-89883157D01*
X63350469Y-89666228D01*
X63184645Y-89500114D01*
X62967873Y-89410102D01*
X62733157Y-89409898D01*
X62516228Y-89499531D01*
X62350114Y-89665355D01*
X62260102Y-89882127D01*
X62259898Y-90116843D01*
X45080000Y-90116843D01*
X45080000Y-89641843D01*
X59284898Y-89641843D01*
X59374531Y-89858772D01*
X59540355Y-90024886D01*
X59757127Y-90114898D01*
X59991843Y-90115102D01*
X60208772Y-90025469D01*
X60374886Y-89859645D01*
X60464898Y-89642873D01*
X60465102Y-89408157D01*
X60375469Y-89191228D01*
X60209645Y-89025114D01*
X59992873Y-88935102D01*
X59758157Y-88934898D01*
X59541228Y-89024531D01*
X59375114Y-89190355D01*
X59285102Y-89407127D01*
X59284898Y-89641843D01*
X45080000Y-89641843D01*
X45080000Y-87766843D01*
X54784898Y-87766843D01*
X54874531Y-87983772D01*
X55040355Y-88149886D01*
X55257127Y-88239898D01*
X55491843Y-88240102D01*
X55708772Y-88150469D01*
X55874886Y-87984645D01*
X55964898Y-87767873D01*
X55964920Y-87741843D01*
X56034898Y-87741843D01*
X56124531Y-87958772D01*
X56290355Y-88124886D01*
X56507127Y-88214898D01*
X56741843Y-88215102D01*
X56958772Y-88125469D01*
X57124886Y-87959645D01*
X57214898Y-87742873D01*
X57215102Y-87508157D01*
X57125469Y-87291228D01*
X56959645Y-87125114D01*
X56742873Y-87035102D01*
X56508157Y-87034898D01*
X56291228Y-87124531D01*
X56125114Y-87290355D01*
X56035102Y-87507127D01*
X56034898Y-87741843D01*
X55964920Y-87741843D01*
X55965102Y-87533157D01*
X55875469Y-87316228D01*
X55709645Y-87150114D01*
X55492873Y-87060102D01*
X55258157Y-87059898D01*
X55041228Y-87149531D01*
X54875114Y-87315355D01*
X54785102Y-87532127D01*
X54784898Y-87766843D01*
X45080000Y-87766843D01*
X45080000Y-85216843D01*
X54784898Y-85216843D01*
X54874531Y-85433772D01*
X55040355Y-85599886D01*
X55257127Y-85689898D01*
X55491843Y-85690102D01*
X55708772Y-85600469D01*
X55874886Y-85434645D01*
X55964898Y-85217873D01*
X55964898Y-85216843D01*
X56034898Y-85216843D01*
X56124531Y-85433772D01*
X56290355Y-85599886D01*
X56507127Y-85689898D01*
X56741843Y-85690102D01*
X56958772Y-85600469D01*
X57124886Y-85434645D01*
X57214898Y-85217873D01*
X57214920Y-85191843D01*
X58684898Y-85191843D01*
X58774531Y-85408772D01*
X58940355Y-85574886D01*
X59157127Y-85664898D01*
X59391843Y-85665102D01*
X59608772Y-85575469D01*
X59774886Y-85409645D01*
X59864898Y-85192873D01*
X59865102Y-84958157D01*
X59775469Y-84741228D01*
X59609645Y-84575114D01*
X59392873Y-84485102D01*
X59158157Y-84484898D01*
X58941228Y-84574531D01*
X58775114Y-84740355D01*
X58685102Y-84957127D01*
X58684898Y-85191843D01*
X57214920Y-85191843D01*
X57215102Y-84983157D01*
X57125469Y-84766228D01*
X56959645Y-84600114D01*
X56742873Y-84510102D01*
X56508157Y-84509898D01*
X56291228Y-84599531D01*
X56125114Y-84765355D01*
X56035102Y-84982127D01*
X56034898Y-85216843D01*
X55964898Y-85216843D01*
X55965102Y-84983157D01*
X55875469Y-84766228D01*
X55709645Y-84600114D01*
X55492873Y-84510102D01*
X55258157Y-84509898D01*
X55041228Y-84599531D01*
X54875114Y-84765355D01*
X54785102Y-84982127D01*
X54784898Y-85216843D01*
X45080000Y-85216843D01*
X45080000Y-83616843D01*
X56659898Y-83616843D01*
X56749531Y-83833772D01*
X56915355Y-83999886D01*
X57132127Y-84089898D01*
X57366843Y-84090102D01*
X57583772Y-84000469D01*
X57749886Y-83834645D01*
X57839898Y-83617873D01*
X57840102Y-83383157D01*
X57812702Y-83316843D01*
X58384898Y-83316843D01*
X58474531Y-83533772D01*
X58640355Y-83699886D01*
X58857127Y-83789898D01*
X59091843Y-83790102D01*
X59308772Y-83700469D01*
X59425079Y-83584365D01*
X59453113Y-83612448D01*
X59400114Y-83665355D01*
X59310102Y-83882127D01*
X59309898Y-84116843D01*
X59399531Y-84333772D01*
X59565355Y-84499886D01*
X59782127Y-84589898D01*
X60016843Y-84590102D01*
X60233772Y-84500469D01*
X60399886Y-84334645D01*
X60489898Y-84117873D01*
X60489898Y-84116843D01*
X62309898Y-84116843D01*
X62399531Y-84333772D01*
X62565355Y-84499886D01*
X62782127Y-84589898D01*
X63016843Y-84590102D01*
X63233772Y-84500469D01*
X63399886Y-84334645D01*
X63489898Y-84117873D01*
X63489898Y-84116843D01*
X65009898Y-84116843D01*
X65099531Y-84333772D01*
X65265355Y-84499886D01*
X65482127Y-84589898D01*
X65716843Y-84590102D01*
X65933772Y-84500469D01*
X66099886Y-84334645D01*
X66189898Y-84117873D01*
X66189898Y-84116843D01*
X67759898Y-84116843D01*
X67849531Y-84333772D01*
X68015355Y-84499886D01*
X68232127Y-84589898D01*
X68466843Y-84590102D01*
X68683772Y-84500469D01*
X68849886Y-84334645D01*
X68939898Y-84117873D01*
X68940102Y-83883157D01*
X68850469Y-83666228D01*
X68684645Y-83500114D01*
X68467873Y-83410102D01*
X68233157Y-83409898D01*
X68016228Y-83499531D01*
X67850114Y-83665355D01*
X67760102Y-83882127D01*
X67759898Y-84116843D01*
X66189898Y-84116843D01*
X66190102Y-83883157D01*
X66100469Y-83666228D01*
X65934645Y-83500114D01*
X65717873Y-83410102D01*
X65483157Y-83409898D01*
X65266228Y-83499531D01*
X65100114Y-83665355D01*
X65010102Y-83882127D01*
X65009898Y-84116843D01*
X63489898Y-84116843D01*
X63490102Y-83883157D01*
X63400469Y-83666228D01*
X63234645Y-83500114D01*
X63017873Y-83410102D01*
X62783157Y-83409898D01*
X62566228Y-83499531D01*
X62400114Y-83665355D01*
X62310102Y-83882127D01*
X62309898Y-84116843D01*
X60489898Y-84116843D01*
X60490102Y-83883157D01*
X60400469Y-83666228D01*
X60346887Y-83612552D01*
X60399886Y-83559645D01*
X60489898Y-83342873D01*
X60490102Y-83108157D01*
X60400469Y-82891228D01*
X60234645Y-82725114D01*
X60017873Y-82635102D01*
X59783157Y-82634898D01*
X59566228Y-82724531D01*
X59449921Y-82840635D01*
X59309645Y-82700114D01*
X59092873Y-82610102D01*
X58858157Y-82609898D01*
X58641228Y-82699531D01*
X58475114Y-82865355D01*
X58385102Y-83082127D01*
X58384898Y-83316843D01*
X57812702Y-83316843D01*
X57750469Y-83166228D01*
X57584645Y-83000114D01*
X57367873Y-82910102D01*
X57133157Y-82909898D01*
X56916228Y-82999531D01*
X56750114Y-83165355D01*
X56660102Y-83382127D01*
X56659898Y-83616843D01*
X45080000Y-83616843D01*
X45080000Y-80616843D01*
X56659898Y-80616843D01*
X56749531Y-80833772D01*
X56915355Y-80999886D01*
X57132127Y-81089898D01*
X57366843Y-81090102D01*
X57583772Y-81000469D01*
X57749886Y-80834645D01*
X57839898Y-80617873D01*
X57840102Y-80383157D01*
X57750469Y-80166228D01*
X57584645Y-80000114D01*
X57367873Y-79910102D01*
X57133157Y-79909898D01*
X56916228Y-79999531D01*
X56750114Y-80165355D01*
X56660102Y-80382127D01*
X56659898Y-80616843D01*
X45080000Y-80616843D01*
X45080000Y-79366843D01*
X57784898Y-79366843D01*
X57874531Y-79583772D01*
X58040355Y-79749886D01*
X58257127Y-79839898D01*
X58491843Y-79840102D01*
X58708772Y-79750469D01*
X58874886Y-79584645D01*
X58964898Y-79367873D01*
X58965102Y-79133157D01*
X58875469Y-78916228D01*
X58709645Y-78750114D01*
X58492873Y-78660102D01*
X58258157Y-78659898D01*
X58041228Y-78749531D01*
X57875114Y-78915355D01*
X57785102Y-79132127D01*
X57784898Y-79366843D01*
X45080000Y-79366843D01*
X45080000Y-77666843D01*
X57359898Y-77666843D01*
X57449531Y-77883772D01*
X57615355Y-78049886D01*
X57832127Y-78139898D01*
X58066843Y-78140102D01*
X58283772Y-78050469D01*
X58449886Y-77884645D01*
X58539898Y-77667873D01*
X58540102Y-77433157D01*
X58450469Y-77216228D01*
X58351258Y-77116843D01*
X62659898Y-77116843D01*
X62749531Y-77333772D01*
X62915355Y-77499886D01*
X63132127Y-77589898D01*
X63366843Y-77590102D01*
X63583772Y-77500469D01*
X63749886Y-77334645D01*
X63839898Y-77117873D01*
X63839898Y-77116843D01*
X65659898Y-77116843D01*
X65749531Y-77333772D01*
X65915355Y-77499886D01*
X66132127Y-77589898D01*
X66366843Y-77590102D01*
X66583772Y-77500469D01*
X66749886Y-77334645D01*
X66839898Y-77117873D01*
X66840102Y-76883157D01*
X66750469Y-76666228D01*
X66584645Y-76500114D01*
X66367873Y-76410102D01*
X66133157Y-76409898D01*
X65916228Y-76499531D01*
X65750114Y-76665355D01*
X65660102Y-76882127D01*
X65659898Y-77116843D01*
X63839898Y-77116843D01*
X63840102Y-76883157D01*
X63750469Y-76666228D01*
X63584645Y-76500114D01*
X63367873Y-76410102D01*
X63133157Y-76409898D01*
X62916228Y-76499531D01*
X62750114Y-76665355D01*
X62660102Y-76882127D01*
X62659898Y-77116843D01*
X58351258Y-77116843D01*
X58284645Y-77050114D01*
X58067873Y-76960102D01*
X57833157Y-76959898D01*
X57616228Y-77049531D01*
X57450114Y-77215355D01*
X57360102Y-77432127D01*
X57359898Y-77666843D01*
X45080000Y-77666843D01*
X45080000Y-76016843D01*
X54784898Y-76016843D01*
X54874531Y-76233772D01*
X55040355Y-76399886D01*
X55257127Y-76489898D01*
X55491843Y-76490102D01*
X55708772Y-76400469D01*
X55874886Y-76234645D01*
X55954944Y-76041843D01*
X57290388Y-76041843D01*
X57380021Y-76258772D01*
X57545845Y-76424886D01*
X57762617Y-76514898D01*
X57997333Y-76515102D01*
X58214262Y-76425469D01*
X58380376Y-76259645D01*
X58470388Y-76042873D01*
X58470592Y-75808157D01*
X58380959Y-75591228D01*
X58215135Y-75425114D01*
X57998363Y-75335102D01*
X57763647Y-75334898D01*
X57546718Y-75424531D01*
X57380604Y-75590355D01*
X57290592Y-75807127D01*
X57290388Y-76041843D01*
X55954944Y-76041843D01*
X55964898Y-76017873D01*
X55965102Y-75783157D01*
X55875469Y-75566228D01*
X55709645Y-75400114D01*
X55492873Y-75310102D01*
X55258157Y-75309898D01*
X55041228Y-75399531D01*
X54875114Y-75565355D01*
X54785102Y-75782127D01*
X54784898Y-76016843D01*
X45080000Y-76016843D01*
X45080000Y-73466843D01*
X54784898Y-73466843D01*
X54874531Y-73683772D01*
X55040355Y-73849886D01*
X55257127Y-73939898D01*
X55491843Y-73940102D01*
X55708772Y-73850469D01*
X55874886Y-73684645D01*
X55964898Y-73467873D01*
X55965102Y-73233157D01*
X55875469Y-73016228D01*
X55709645Y-72850114D01*
X55492873Y-72760102D01*
X55258157Y-72759898D01*
X55041228Y-72849531D01*
X54875114Y-73015355D01*
X54785102Y-73232127D01*
X54784898Y-73466843D01*
X45080000Y-73466843D01*
X45080000Y-72216843D01*
X56034898Y-72216843D01*
X56124531Y-72433772D01*
X56290355Y-72599886D01*
X56507127Y-72689898D01*
X56741843Y-72690102D01*
X56958772Y-72600469D01*
X57124886Y-72434645D01*
X57214898Y-72217873D01*
X57215102Y-71983157D01*
X57125469Y-71766228D01*
X56959645Y-71600114D01*
X56742873Y-71510102D01*
X56508157Y-71509898D01*
X56291228Y-71599531D01*
X56125114Y-71765355D01*
X56035102Y-71982127D01*
X56034898Y-72216843D01*
X45080000Y-72216843D01*
X45080000Y-70866843D01*
X62634898Y-70866843D01*
X62724531Y-71083772D01*
X62890355Y-71249886D01*
X63107127Y-71339898D01*
X63341843Y-71340102D01*
X63558772Y-71250469D01*
X63724886Y-71084645D01*
X63814898Y-70867873D01*
X63814898Y-70866843D01*
X65534898Y-70866843D01*
X65624531Y-71083772D01*
X65790355Y-71249886D01*
X66007127Y-71339898D01*
X66241843Y-71340102D01*
X66458772Y-71250469D01*
X66624886Y-71084645D01*
X66714898Y-70867873D01*
X66715102Y-70633157D01*
X66625469Y-70416228D01*
X66459645Y-70250114D01*
X66242873Y-70160102D01*
X66008157Y-70159898D01*
X65791228Y-70249531D01*
X65625114Y-70415355D01*
X65535102Y-70632127D01*
X65534898Y-70866843D01*
X63814898Y-70866843D01*
X63815102Y-70633157D01*
X63725469Y-70416228D01*
X63559645Y-70250114D01*
X63342873Y-70160102D01*
X63108157Y-70159898D01*
X62891228Y-70249531D01*
X62725114Y-70415355D01*
X62635102Y-70632127D01*
X62634898Y-70866843D01*
X45080000Y-70866843D01*
X45080000Y-67580000D01*
X79920000Y-67580000D01*
X79920000Y-97420000D01*
X79920000Y-97420000D01*
G37*
X79920000Y-97420000D02*
X57664382Y-97420000D01*
X57749886Y-97334645D01*
X57839898Y-97117873D01*
X57840102Y-96883157D01*
X57750469Y-96666228D01*
X57584645Y-96500114D01*
X57367873Y-96410102D01*
X57133157Y-96409898D01*
X56916228Y-96499531D01*
X56875074Y-96540613D01*
X56834645Y-96500114D01*
X56617873Y-96410102D01*
X56383157Y-96409898D01*
X56166228Y-96499531D01*
X56000114Y-96665355D01*
X55910102Y-96882127D01*
X55909898Y-97116843D01*
X55999531Y-97333772D01*
X56085608Y-97420000D01*
X45080000Y-97420000D01*
X45080000Y-93816843D01*
X56409898Y-93816843D01*
X56499531Y-94033772D01*
X56665355Y-94199886D01*
X56882127Y-94289898D01*
X57116843Y-94290102D01*
X57333772Y-94200469D01*
X57499886Y-94034645D01*
X57589898Y-93817873D01*
X57590102Y-93583157D01*
X57500469Y-93366228D01*
X57334645Y-93200114D01*
X57117873Y-93110102D01*
X56883157Y-93109898D01*
X56666228Y-93199531D01*
X56500114Y-93365355D01*
X56410102Y-93582127D01*
X56409898Y-93816843D01*
X45080000Y-93816843D01*
X45080000Y-90866843D01*
X59284898Y-90866843D01*
X59374531Y-91083772D01*
X59540355Y-91249886D01*
X59757127Y-91339898D01*
X59991843Y-91340102D01*
X60208772Y-91250469D01*
X60374886Y-91084645D01*
X60464898Y-90867873D01*
X60465102Y-90633157D01*
X60375469Y-90416228D01*
X60209645Y-90250114D01*
X59992873Y-90160102D01*
X59758157Y-90159898D01*
X59541228Y-90249531D01*
X59375114Y-90415355D01*
X59285102Y-90632127D01*
X59284898Y-90866843D01*
X45080000Y-90866843D01*
X45080000Y-90116843D01*
X62259898Y-90116843D01*
X62349531Y-90333772D01*
X62515355Y-90499886D01*
X62732127Y-90589898D01*
X62966843Y-90590102D01*
X63183772Y-90500469D01*
X63349886Y-90334645D01*
X63439898Y-90117873D01*
X63439898Y-90116843D01*
X65009898Y-90116843D01*
X65099531Y-90333772D01*
X65265355Y-90499886D01*
X65482127Y-90589898D01*
X65716843Y-90590102D01*
X65933772Y-90500469D01*
X66099886Y-90334645D01*
X66189898Y-90117873D01*
X66189898Y-90116843D01*
X67459898Y-90116843D01*
X67549531Y-90333772D01*
X67715355Y-90499886D01*
X67932127Y-90589898D01*
X68166843Y-90590102D01*
X68383772Y-90500469D01*
X68549886Y-90334645D01*
X68639898Y-90117873D01*
X68640102Y-89883157D01*
X68550469Y-89666228D01*
X68384645Y-89500114D01*
X68167873Y-89410102D01*
X67933157Y-89409898D01*
X67716228Y-89499531D01*
X67550114Y-89665355D01*
X67460102Y-89882127D01*
X67459898Y-90116843D01*
X66189898Y-90116843D01*
X66190102Y-89883157D01*
X66100469Y-89666228D01*
X65934645Y-89500114D01*
X65717873Y-89410102D01*
X65483157Y-89409898D01*
X65266228Y-89499531D01*
X65100114Y-89665355D01*
X65010102Y-89882127D01*
X65009898Y-90116843D01*
X63439898Y-90116843D01*
X63440102Y-89883157D01*
X63350469Y-89666228D01*
X63184645Y-89500114D01*
X62967873Y-89410102D01*
X62733157Y-89409898D01*
X62516228Y-89499531D01*
X62350114Y-89665355D01*
X62260102Y-89882127D01*
X62259898Y-90116843D01*
X45080000Y-90116843D01*
X45080000Y-89641843D01*
X59284898Y-89641843D01*
X59374531Y-89858772D01*
X59540355Y-90024886D01*
X59757127Y-90114898D01*
X59991843Y-90115102D01*
X60208772Y-90025469D01*
X60374886Y-89859645D01*
X60464898Y-89642873D01*
X60465102Y-89408157D01*
X60375469Y-89191228D01*
X60209645Y-89025114D01*
X59992873Y-88935102D01*
X59758157Y-88934898D01*
X59541228Y-89024531D01*
X59375114Y-89190355D01*
X59285102Y-89407127D01*
X59284898Y-89641843D01*
X45080000Y-89641843D01*
X45080000Y-87766843D01*
X54784898Y-87766843D01*
X54874531Y-87983772D01*
X55040355Y-88149886D01*
X55257127Y-88239898D01*
X55491843Y-88240102D01*
X55708772Y-88150469D01*
X55874886Y-87984645D01*
X55964898Y-87767873D01*
X55964920Y-87741843D01*
X56034898Y-87741843D01*
X56124531Y-87958772D01*
X56290355Y-88124886D01*
X56507127Y-88214898D01*
X56741843Y-88215102D01*
X56958772Y-88125469D01*
X57124886Y-87959645D01*
X57214898Y-87742873D01*
X57215102Y-87508157D01*
X57125469Y-87291228D01*
X56959645Y-87125114D01*
X56742873Y-87035102D01*
X56508157Y-87034898D01*
X56291228Y-87124531D01*
X56125114Y-87290355D01*
X56035102Y-87507127D01*
X56034898Y-87741843D01*
X55964920Y-87741843D01*
X55965102Y-87533157D01*
X55875469Y-87316228D01*
X55709645Y-87150114D01*
X55492873Y-87060102D01*
X55258157Y-87059898D01*
X55041228Y-87149531D01*
X54875114Y-87315355D01*
X54785102Y-87532127D01*
X54784898Y-87766843D01*
X45080000Y-87766843D01*
X45080000Y-85216843D01*
X54784898Y-85216843D01*
X54874531Y-85433772D01*
X55040355Y-85599886D01*
X55257127Y-85689898D01*
X55491843Y-85690102D01*
X55708772Y-85600469D01*
X55874886Y-85434645D01*
X55964898Y-85217873D01*
X55964898Y-85216843D01*
X56034898Y-85216843D01*
X56124531Y-85433772D01*
X56290355Y-85599886D01*
X56507127Y-85689898D01*
X56741843Y-85690102D01*
X56958772Y-85600469D01*
X57124886Y-85434645D01*
X57214898Y-85217873D01*
X57214920Y-85191843D01*
X58684898Y-85191843D01*
X58774531Y-85408772D01*
X58940355Y-85574886D01*
X59157127Y-85664898D01*
X59391843Y-85665102D01*
X59608772Y-85575469D01*
X59774886Y-85409645D01*
X59864898Y-85192873D01*
X59865102Y-84958157D01*
X59775469Y-84741228D01*
X59609645Y-84575114D01*
X59392873Y-84485102D01*
X59158157Y-84484898D01*
X58941228Y-84574531D01*
X58775114Y-84740355D01*
X58685102Y-84957127D01*
X58684898Y-85191843D01*
X57214920Y-85191843D01*
X57215102Y-84983157D01*
X57125469Y-84766228D01*
X56959645Y-84600114D01*
X56742873Y-84510102D01*
X56508157Y-84509898D01*
X56291228Y-84599531D01*
X56125114Y-84765355D01*
X56035102Y-84982127D01*
X56034898Y-85216843D01*
X55964898Y-85216843D01*
X55965102Y-84983157D01*
X55875469Y-84766228D01*
X55709645Y-84600114D01*
X55492873Y-84510102D01*
X55258157Y-84509898D01*
X55041228Y-84599531D01*
X54875114Y-84765355D01*
X54785102Y-84982127D01*
X54784898Y-85216843D01*
X45080000Y-85216843D01*
X45080000Y-83616843D01*
X56659898Y-83616843D01*
X56749531Y-83833772D01*
X56915355Y-83999886D01*
X57132127Y-84089898D01*
X57366843Y-84090102D01*
X57583772Y-84000469D01*
X57749886Y-83834645D01*
X57839898Y-83617873D01*
X57840102Y-83383157D01*
X57812702Y-83316843D01*
X58384898Y-83316843D01*
X58474531Y-83533772D01*
X58640355Y-83699886D01*
X58857127Y-83789898D01*
X59091843Y-83790102D01*
X59308772Y-83700469D01*
X59425079Y-83584365D01*
X59453113Y-83612448D01*
X59400114Y-83665355D01*
X59310102Y-83882127D01*
X59309898Y-84116843D01*
X59399531Y-84333772D01*
X59565355Y-84499886D01*
X59782127Y-84589898D01*
X60016843Y-84590102D01*
X60233772Y-84500469D01*
X60399886Y-84334645D01*
X60489898Y-84117873D01*
X60489898Y-84116843D01*
X62309898Y-84116843D01*
X62399531Y-84333772D01*
X62565355Y-84499886D01*
X62782127Y-84589898D01*
X63016843Y-84590102D01*
X63233772Y-84500469D01*
X63399886Y-84334645D01*
X63489898Y-84117873D01*
X63489898Y-84116843D01*
X65009898Y-84116843D01*
X65099531Y-84333772D01*
X65265355Y-84499886D01*
X65482127Y-84589898D01*
X65716843Y-84590102D01*
X65933772Y-84500469D01*
X66099886Y-84334645D01*
X66189898Y-84117873D01*
X66189898Y-84116843D01*
X67759898Y-84116843D01*
X67849531Y-84333772D01*
X68015355Y-84499886D01*
X68232127Y-84589898D01*
X68466843Y-84590102D01*
X68683772Y-84500469D01*
X68849886Y-84334645D01*
X68939898Y-84117873D01*
X68940102Y-83883157D01*
X68850469Y-83666228D01*
X68684645Y-83500114D01*
X68467873Y-83410102D01*
X68233157Y-83409898D01*
X68016228Y-83499531D01*
X67850114Y-83665355D01*
X67760102Y-83882127D01*
X67759898Y-84116843D01*
X66189898Y-84116843D01*
X66190102Y-83883157D01*
X66100469Y-83666228D01*
X65934645Y-83500114D01*
X65717873Y-83410102D01*
X65483157Y-83409898D01*
X65266228Y-83499531D01*
X65100114Y-83665355D01*
X65010102Y-83882127D01*
X65009898Y-84116843D01*
X63489898Y-84116843D01*
X63490102Y-83883157D01*
X63400469Y-83666228D01*
X63234645Y-83500114D01*
X63017873Y-83410102D01*
X62783157Y-83409898D01*
X62566228Y-83499531D01*
X62400114Y-83665355D01*
X62310102Y-83882127D01*
X62309898Y-84116843D01*
X60489898Y-84116843D01*
X60490102Y-83883157D01*
X60400469Y-83666228D01*
X60346887Y-83612552D01*
X60399886Y-83559645D01*
X60489898Y-83342873D01*
X60490102Y-83108157D01*
X60400469Y-82891228D01*
X60234645Y-82725114D01*
X60017873Y-82635102D01*
X59783157Y-82634898D01*
X59566228Y-82724531D01*
X59449921Y-82840635D01*
X59309645Y-82700114D01*
X59092873Y-82610102D01*
X58858157Y-82609898D01*
X58641228Y-82699531D01*
X58475114Y-82865355D01*
X58385102Y-83082127D01*
X58384898Y-83316843D01*
X57812702Y-83316843D01*
X57750469Y-83166228D01*
X57584645Y-83000114D01*
X57367873Y-82910102D01*
X57133157Y-82909898D01*
X56916228Y-82999531D01*
X56750114Y-83165355D01*
X56660102Y-83382127D01*
X56659898Y-83616843D01*
X45080000Y-83616843D01*
X45080000Y-80616843D01*
X56659898Y-80616843D01*
X56749531Y-80833772D01*
X56915355Y-80999886D01*
X57132127Y-81089898D01*
X57366843Y-81090102D01*
X57583772Y-81000469D01*
X57749886Y-80834645D01*
X57839898Y-80617873D01*
X57840102Y-80383157D01*
X57750469Y-80166228D01*
X57584645Y-80000114D01*
X57367873Y-79910102D01*
X57133157Y-79909898D01*
X56916228Y-79999531D01*
X56750114Y-80165355D01*
X56660102Y-80382127D01*
X56659898Y-80616843D01*
X45080000Y-80616843D01*
X45080000Y-79366843D01*
X57784898Y-79366843D01*
X57874531Y-79583772D01*
X58040355Y-79749886D01*
X58257127Y-79839898D01*
X58491843Y-79840102D01*
X58708772Y-79750469D01*
X58874886Y-79584645D01*
X58964898Y-79367873D01*
X58965102Y-79133157D01*
X58875469Y-78916228D01*
X58709645Y-78750114D01*
X58492873Y-78660102D01*
X58258157Y-78659898D01*
X58041228Y-78749531D01*
X57875114Y-78915355D01*
X57785102Y-79132127D01*
X57784898Y-79366843D01*
X45080000Y-79366843D01*
X45080000Y-77666843D01*
X57359898Y-77666843D01*
X57449531Y-77883772D01*
X57615355Y-78049886D01*
X57832127Y-78139898D01*
X58066843Y-78140102D01*
X58283772Y-78050469D01*
X58449886Y-77884645D01*
X58539898Y-77667873D01*
X58540102Y-77433157D01*
X58450469Y-77216228D01*
X58351258Y-77116843D01*
X62659898Y-77116843D01*
X62749531Y-77333772D01*
X62915355Y-77499886D01*
X63132127Y-77589898D01*
X63366843Y-77590102D01*
X63583772Y-77500469D01*
X63749886Y-77334645D01*
X63839898Y-77117873D01*
X63839898Y-77116843D01*
X65659898Y-77116843D01*
X65749531Y-77333772D01*
X65915355Y-77499886D01*
X66132127Y-77589898D01*
X66366843Y-77590102D01*
X66583772Y-77500469D01*
X66749886Y-77334645D01*
X66839898Y-77117873D01*
X66840102Y-76883157D01*
X66750469Y-76666228D01*
X66584645Y-76500114D01*
X66367873Y-76410102D01*
X66133157Y-76409898D01*
X65916228Y-76499531D01*
X65750114Y-76665355D01*
X65660102Y-76882127D01*
X65659898Y-77116843D01*
X63839898Y-77116843D01*
X63840102Y-76883157D01*
X63750469Y-76666228D01*
X63584645Y-76500114D01*
X63367873Y-76410102D01*
X63133157Y-76409898D01*
X62916228Y-76499531D01*
X62750114Y-76665355D01*
X62660102Y-76882127D01*
X62659898Y-77116843D01*
X58351258Y-77116843D01*
X58284645Y-77050114D01*
X58067873Y-76960102D01*
X57833157Y-76959898D01*
X57616228Y-77049531D01*
X57450114Y-77215355D01*
X57360102Y-77432127D01*
X57359898Y-77666843D01*
X45080000Y-77666843D01*
X45080000Y-76016843D01*
X54784898Y-76016843D01*
X54874531Y-76233772D01*
X55040355Y-76399886D01*
X55257127Y-76489898D01*
X55491843Y-76490102D01*
X55708772Y-76400469D01*
X55874886Y-76234645D01*
X55954944Y-76041843D01*
X57290388Y-76041843D01*
X57380021Y-76258772D01*
X57545845Y-76424886D01*
X57762617Y-76514898D01*
X57997333Y-76515102D01*
X58214262Y-76425469D01*
X58380376Y-76259645D01*
X58470388Y-76042873D01*
X58470592Y-75808157D01*
X58380959Y-75591228D01*
X58215135Y-75425114D01*
X57998363Y-75335102D01*
X57763647Y-75334898D01*
X57546718Y-75424531D01*
X57380604Y-75590355D01*
X57290592Y-75807127D01*
X57290388Y-76041843D01*
X55954944Y-76041843D01*
X55964898Y-76017873D01*
X55965102Y-75783157D01*
X55875469Y-75566228D01*
X55709645Y-75400114D01*
X55492873Y-75310102D01*
X55258157Y-75309898D01*
X55041228Y-75399531D01*
X54875114Y-75565355D01*
X54785102Y-75782127D01*
X54784898Y-76016843D01*
X45080000Y-76016843D01*
X45080000Y-73466843D01*
X54784898Y-73466843D01*
X54874531Y-73683772D01*
X55040355Y-73849886D01*
X55257127Y-73939898D01*
X55491843Y-73940102D01*
X55708772Y-73850469D01*
X55874886Y-73684645D01*
X55964898Y-73467873D01*
X55965102Y-73233157D01*
X55875469Y-73016228D01*
X55709645Y-72850114D01*
X55492873Y-72760102D01*
X55258157Y-72759898D01*
X55041228Y-72849531D01*
X54875114Y-73015355D01*
X54785102Y-73232127D01*
X54784898Y-73466843D01*
X45080000Y-73466843D01*
X45080000Y-72216843D01*
X56034898Y-72216843D01*
X56124531Y-72433772D01*
X56290355Y-72599886D01*
X56507127Y-72689898D01*
X56741843Y-72690102D01*
X56958772Y-72600469D01*
X57124886Y-72434645D01*
X57214898Y-72217873D01*
X57215102Y-71983157D01*
X57125469Y-71766228D01*
X56959645Y-71600114D01*
X56742873Y-71510102D01*
X56508157Y-71509898D01*
X56291228Y-71599531D01*
X56125114Y-71765355D01*
X56035102Y-71982127D01*
X56034898Y-72216843D01*
X45080000Y-72216843D01*
X45080000Y-70866843D01*
X62634898Y-70866843D01*
X62724531Y-71083772D01*
X62890355Y-71249886D01*
X63107127Y-71339898D01*
X63341843Y-71340102D01*
X63558772Y-71250469D01*
X63724886Y-71084645D01*
X63814898Y-70867873D01*
X63814898Y-70866843D01*
X65534898Y-70866843D01*
X65624531Y-71083772D01*
X65790355Y-71249886D01*
X66007127Y-71339898D01*
X66241843Y-71340102D01*
X66458772Y-71250469D01*
X66624886Y-71084645D01*
X66714898Y-70867873D01*
X66715102Y-70633157D01*
X66625469Y-70416228D01*
X66459645Y-70250114D01*
X66242873Y-70160102D01*
X66008157Y-70159898D01*
X65791228Y-70249531D01*
X65625114Y-70415355D01*
X65535102Y-70632127D01*
X65534898Y-70866843D01*
X63814898Y-70866843D01*
X63815102Y-70633157D01*
X63725469Y-70416228D01*
X63559645Y-70250114D01*
X63342873Y-70160102D01*
X63108157Y-70159898D01*
X62891228Y-70249531D01*
X62725114Y-70415355D01*
X62635102Y-70632127D01*
X62634898Y-70866843D01*
X45080000Y-70866843D01*
X45080000Y-67580000D01*
X79920000Y-67580000D01*
X79920000Y-97420000D01*
G36*
X107420000Y-111170000D02*
X106272924Y-111170000D01*
X106365160Y-111077925D01*
X106439915Y-110897895D01*
X106440085Y-110702961D01*
X106365644Y-110522800D01*
X106227925Y-110384840D01*
X106047895Y-110310085D01*
X105852961Y-110309915D01*
X105672800Y-110384356D01*
X105534840Y-110522075D01*
X105460085Y-110702105D01*
X105459915Y-110897039D01*
X105534356Y-111077200D01*
X105626994Y-111170000D01*
X104166658Y-111170000D01*
X104177200Y-111165644D01*
X104315160Y-111027925D01*
X104389915Y-110847895D01*
X104390085Y-110652961D01*
X104315644Y-110472800D01*
X104177925Y-110334840D01*
X103997895Y-110260085D01*
X103802961Y-110259915D01*
X103622800Y-110334356D01*
X103484840Y-110472075D01*
X103410085Y-110652105D01*
X103409915Y-110847039D01*
X103484356Y-111027200D01*
X103622075Y-111165160D01*
X103633731Y-111170000D01*
X101330000Y-111170000D01*
X101330000Y-104330000D01*
X107420000Y-104330000D01*
X107420000Y-111170000D01*
X107420000Y-111170000D01*
G37*
X107420000Y-111170000D02*
X106272924Y-111170000D01*
X106365160Y-111077925D01*
X106439915Y-110897895D01*
X106440085Y-110702961D01*
X106365644Y-110522800D01*
X106227925Y-110384840D01*
X106047895Y-110310085D01*
X105852961Y-110309915D01*
X105672800Y-110384356D01*
X105534840Y-110522075D01*
X105460085Y-110702105D01*
X105459915Y-110897039D01*
X105534356Y-111077200D01*
X105626994Y-111170000D01*
X104166658Y-111170000D01*
X104177200Y-111165644D01*
X104315160Y-111027925D01*
X104389915Y-110847895D01*
X104390085Y-110652961D01*
X104315644Y-110472800D01*
X104177925Y-110334840D01*
X103997895Y-110260085D01*
X103802961Y-110259915D01*
X103622800Y-110334356D01*
X103484840Y-110472075D01*
X103410085Y-110652105D01*
X103409915Y-110847039D01*
X103484356Y-111027200D01*
X103622075Y-111165160D01*
X103633731Y-111170000D01*
X101330000Y-111170000D01*
X101330000Y-104330000D01*
X107420000Y-104330000D01*
X107420000Y-111170000D01*
M02*
