G04 #@! TF.FileFunction,Soldermask,Top*
%FSLAX46Y46*%
G04 Gerber Fmt 4.6, Leading zero omitted, Abs format (unit mm)*
G04 Created by KiCad (PCBNEW 4.0.1-stable) date Saturday, December 26, 2015 'PMt' 06:59:42 PM*
%MOMM*%
G01*
G04 APERTURE LIST*
%ADD10C,0.100000*%
%ADD11C,0.050000*%
%ADD12R,1.325880X1.325880*%
%ADD13R,1.854200X1.854200*%
%ADD14O,1.854200X1.854200*%
%ADD15C,4.627000*%
%ADD16R,0.747000X1.347000*%
%ADD17R,1.377000X1.127000*%
%ADD18C,0.762000*%
%ADD19R,0.527000X0.727000*%
%ADD20R,0.727000X0.627000*%
%ADD21R,1.027000X0.627000*%
%ADD22R,1.127000X1.377000*%
%ADD23R,0.627000X0.727000*%
%ADD24R,0.727000X0.527000*%
%ADD25R,0.827000X4.627000*%
%ADD26O,0.827000X0.627000*%
%ADD27C,3.327000*%
%ADD28C,0.630000*%
%ADD29C,1.077000*%
%ADD30C,1.177000*%
%ADD31C,1.277000*%
%ADD32O,0.377000X0.927000*%
%ADD33O,0.927000X0.377000*%
%ADD34R,1.377000X1.377000*%
%ADD35R,0.627000X0.427000*%
%ADD36R,1.027000X1.007000*%
%ADD37R,1.427000X1.727000*%
%ADD38R,3.527000X4.127000*%
%ADD39R,0.877000X0.627000*%
%ADD40R,1.627000X0.977000*%
%ADD41R,0.977000X1.627000*%
%ADD42C,1.727000*%
%ADD43R,2.127000X0.627000*%
%ADD44R,0.459720X1.760200*%
%ADD45R,0.861040X1.760200*%
%ADD46R,1.760200X3.258800*%
%ADD47R,2.557000X2.497000*%
%ADD48C,0.427000*%
%ADD49R,0.327000X0.427000*%
%ADD50R,0.427000X0.627000*%
%ADD51R,0.427000X0.327000*%
%ADD52O,0.914000X0.914000*%
%ADD53C,1.118000*%
G04 APERTURE END LIST*
D10*
D11*
X107150000Y-138250000D02*
X141850000Y-138250000D01*
X107150000Y-155000000D02*
X107150000Y-138250000D01*
X99950000Y-155000000D02*
X107150000Y-155000000D01*
X99950000Y-146500000D02*
X99950000Y-155000000D01*
X98050000Y-146500000D02*
X99950000Y-146500000D01*
X98050000Y-155000000D02*
X98050000Y-146500000D01*
X86850000Y-155000000D02*
X98050000Y-155000000D01*
X86850000Y-138250000D02*
X86850000Y-155000000D01*
X56850000Y-138250000D02*
X86850000Y-138250000D01*
X56850000Y-146500000D02*
X56850000Y-138250000D01*
X41850000Y-146500000D02*
X56850000Y-146500000D01*
X41850000Y-39850000D02*
X41850000Y-146500000D01*
X141850000Y-39850000D02*
X41850000Y-39850000D01*
X141850000Y-138250000D02*
X141850000Y-39850000D01*
D12*
X136200980Y-60500000D03*
X138299020Y-60500000D03*
X111250000Y-114700980D03*
X111250000Y-116799020D03*
X114250000Y-114700980D03*
X114250000Y-116799020D03*
X117250000Y-114700980D03*
X117250000Y-116799020D03*
X120250000Y-114700980D03*
X120250000Y-116799020D03*
D13*
X137000000Y-100750000D03*
D14*
X139540000Y-100750000D03*
X137000000Y-103290000D03*
X139540000Y-103290000D03*
X137000000Y-105830000D03*
X139540000Y-105830000D03*
X137000000Y-108370000D03*
X139540000Y-108370000D03*
X137000000Y-110910000D03*
X139540000Y-110910000D03*
D13*
X137000000Y-119000000D03*
D14*
X139540000Y-119000000D03*
X137000000Y-121540000D03*
X139540000Y-121540000D03*
X137000000Y-124080000D03*
X139540000Y-124080000D03*
X137000000Y-126620000D03*
X139540000Y-126620000D03*
X137000000Y-129160000D03*
X139540000Y-129160000D03*
D15*
X56500000Y-105000000D03*
X50500000Y-105000000D03*
X53500000Y-109700000D03*
D16*
X104050000Y-107810000D03*
X105000000Y-107810000D03*
X105950000Y-107810000D03*
X105950000Y-105190000D03*
X104050000Y-105190000D03*
D17*
X61500000Y-90000000D03*
X61500000Y-88000000D03*
D18*
X58540000Y-89540000D03*
X58540000Y-88270000D03*
X58540000Y-87000000D03*
X58540000Y-85730000D03*
X58540000Y-84460000D03*
X57270000Y-89540000D03*
X57270000Y-88270000D03*
X57270000Y-87000000D03*
X57270000Y-85730000D03*
X57270000Y-84460000D03*
X56000000Y-89540000D03*
X56000000Y-88270000D03*
X56000000Y-87000000D03*
X56000000Y-85730000D03*
X56000000Y-84460000D03*
X54730000Y-89540000D03*
X54730000Y-88270000D03*
X54730000Y-87000000D03*
X54730000Y-85730000D03*
X54730000Y-84460000D03*
X53460000Y-89540000D03*
X53460000Y-88270000D03*
X53460000Y-87000000D03*
X53460000Y-85730000D03*
X53460000Y-84460000D03*
D17*
X61500000Y-84000000D03*
X61500000Y-86000000D03*
D19*
X53800000Y-82000000D03*
X54700000Y-82000000D03*
D20*
X56450000Y-82000000D03*
X57550000Y-82000000D03*
D17*
X63500000Y-100250000D03*
X63500000Y-98250000D03*
D21*
X63500000Y-103750000D03*
X63500000Y-102250000D03*
D17*
X64750000Y-70750000D03*
X64750000Y-72750000D03*
X61750000Y-77000000D03*
X61750000Y-75000000D03*
D22*
X57250000Y-79250000D03*
X55250000Y-79250000D03*
X55250000Y-96250000D03*
X53250000Y-96250000D03*
D20*
X56200000Y-69250000D03*
X57300000Y-69250000D03*
D17*
X64750000Y-77000000D03*
X64750000Y-75000000D03*
X60500000Y-98250000D03*
X60500000Y-100250000D03*
D21*
X60500000Y-102250000D03*
X60500000Y-103750000D03*
D17*
X61750000Y-70750000D03*
X61750000Y-72750000D03*
D23*
X52500000Y-79200000D03*
X52500000Y-80300000D03*
D18*
X58540000Y-76540000D03*
X58540000Y-75270000D03*
X58540000Y-74000000D03*
X58540000Y-72730000D03*
X58540000Y-71460000D03*
X57270000Y-76540000D03*
X57270000Y-75270000D03*
X57270000Y-74000000D03*
X57270000Y-72730000D03*
X57270000Y-71460000D03*
X56000000Y-76540000D03*
X56000000Y-75270000D03*
X56000000Y-74000000D03*
X56000000Y-72730000D03*
X56000000Y-71460000D03*
X54730000Y-76540000D03*
X54730000Y-75270000D03*
X54730000Y-74000000D03*
X54730000Y-72730000D03*
X54730000Y-71460000D03*
X53460000Y-76540000D03*
X53460000Y-75270000D03*
X53460000Y-74000000D03*
X53460000Y-72730000D03*
X53460000Y-71460000D03*
D24*
X50750000Y-74050000D03*
X50750000Y-74950000D03*
X50750000Y-72450000D03*
X50750000Y-71550000D03*
X50750000Y-80200000D03*
X50750000Y-79300000D03*
D19*
X51800000Y-92250000D03*
X52700000Y-92250000D03*
X52650000Y-94000000D03*
X51750000Y-94000000D03*
X59050000Y-94000000D03*
X59950000Y-94000000D03*
D22*
X57000000Y-92500000D03*
X55000000Y-92500000D03*
D19*
X59950000Y-92250000D03*
X59050000Y-92250000D03*
D25*
X100500000Y-151000000D03*
X101500000Y-151000000D03*
X102500000Y-151000000D03*
X103500000Y-151000000D03*
X104500000Y-151000000D03*
X105500000Y-151000000D03*
X106500000Y-151000000D03*
X97500000Y-151000000D03*
X96500000Y-151000000D03*
X95500000Y-151000000D03*
X94500000Y-151000000D03*
X93500000Y-151000000D03*
X92500000Y-151000000D03*
X91500000Y-151000000D03*
X90500000Y-151000000D03*
X89500000Y-151000000D03*
X88500000Y-151000000D03*
X87500000Y-151000000D03*
D26*
X100500000Y-153250000D03*
X101500000Y-153250000D03*
X102500000Y-153250000D03*
X103500000Y-153250000D03*
X104500000Y-153250000D03*
X105500000Y-153250000D03*
X106500000Y-153250000D03*
X97500000Y-153250000D03*
X96500000Y-153250000D03*
X95500000Y-153250000D03*
X94500000Y-153250000D03*
X93500000Y-153250000D03*
X92500000Y-153250000D03*
X91500000Y-153250000D03*
X90500000Y-153250000D03*
X89500000Y-153250000D03*
X88500000Y-153250000D03*
X87500000Y-153250000D03*
D27*
X49350000Y-141650000D03*
X49350000Y-56250000D03*
D28*
X99500000Y-98000000D03*
X99500000Y-97000000D03*
X99500000Y-96000000D03*
X99500000Y-95000000D03*
X99500000Y-94000000D03*
X99500000Y-93000000D03*
X99500000Y-92000000D03*
X99500000Y-91000000D03*
X99500000Y-90000000D03*
X99500000Y-89000000D03*
X99500000Y-88000000D03*
X99500000Y-87000000D03*
X99500000Y-86000000D03*
X99500000Y-85000000D03*
X99500000Y-84000000D03*
X99500000Y-83000000D03*
X99500000Y-82000000D03*
X99500000Y-81000000D03*
X99500000Y-80000000D03*
X99500000Y-79000000D03*
X99500000Y-78000000D03*
X99500000Y-77000000D03*
X100500000Y-98000000D03*
X100500000Y-97000000D03*
X100500000Y-96000000D03*
X100500000Y-95000000D03*
X101500000Y-95000000D03*
X101500000Y-96000000D03*
X101500000Y-97000000D03*
X100500000Y-94000000D03*
X101500000Y-94000000D03*
X101500000Y-98000000D03*
X102500000Y-98000000D03*
X102500000Y-97000000D03*
X103500000Y-97000000D03*
X103500000Y-98000000D03*
X104500000Y-98000000D03*
X104500000Y-97000000D03*
X105500000Y-97000000D03*
X105500000Y-98000000D03*
X106500000Y-98000000D03*
X106500000Y-97000000D03*
X107500000Y-97000000D03*
X107500000Y-98000000D03*
X102500000Y-96000000D03*
X102500000Y-95000000D03*
X102500000Y-94000000D03*
X103500000Y-94000000D03*
X103500000Y-95000000D03*
X103500000Y-96000000D03*
X104500000Y-96000000D03*
X104500000Y-95000000D03*
X104500000Y-94000000D03*
X105500000Y-96000000D03*
X105500000Y-95000000D03*
X105500000Y-94000000D03*
X106500000Y-94000000D03*
X106500000Y-95000000D03*
X106500000Y-96000000D03*
X107500000Y-96000000D03*
X107500000Y-95000000D03*
X107500000Y-94000000D03*
X108500000Y-94000000D03*
X108500000Y-95000000D03*
X108500000Y-96000000D03*
X108500000Y-97000000D03*
X108500000Y-98000000D03*
X109500000Y-98000000D03*
X109500000Y-97000000D03*
X109500000Y-96000000D03*
X109500000Y-95000000D03*
X109500000Y-94000000D03*
X110500000Y-98000000D03*
X110500000Y-97000000D03*
X110500000Y-96000000D03*
X110500000Y-95000000D03*
X110500000Y-94000000D03*
X111500000Y-94000000D03*
X111500000Y-95000000D03*
X111500000Y-96000000D03*
X111500000Y-97000000D03*
X111500000Y-98000000D03*
X112500000Y-98000000D03*
X112500000Y-97000000D03*
X113500000Y-97000000D03*
X113500000Y-98000000D03*
X114500000Y-98000000D03*
X114500000Y-97000000D03*
X115500000Y-97000000D03*
X115500000Y-98000000D03*
X116500000Y-98000000D03*
X116500000Y-97000000D03*
X117500000Y-97000000D03*
X117500000Y-98000000D03*
X118500000Y-98000000D03*
X118500000Y-97000000D03*
X119500000Y-97000000D03*
X119500000Y-98000000D03*
X120500000Y-98000000D03*
X120500000Y-97000000D03*
X120500000Y-96000000D03*
X120500000Y-95000000D03*
X120500000Y-94000000D03*
X120500000Y-93000000D03*
X120500000Y-92000000D03*
X119500000Y-96000000D03*
X119500000Y-95000000D03*
X119500000Y-94000000D03*
X119500000Y-93000000D03*
X119500000Y-92000000D03*
X119500000Y-91000000D03*
X119500000Y-90000000D03*
X119500000Y-89000000D03*
X119500000Y-88000000D03*
X119500000Y-87000000D03*
X119500000Y-86000000D03*
X120500000Y-86000000D03*
X120500000Y-87000000D03*
X120500000Y-88000000D03*
X120500000Y-89000000D03*
X120500000Y-90000000D03*
X120500000Y-91000000D03*
X119500000Y-85000000D03*
X119500000Y-84000000D03*
X119500000Y-83000000D03*
X119500000Y-82000000D03*
X119500000Y-81000000D03*
X119500000Y-80000000D03*
X119500000Y-79000000D03*
X119500000Y-78000000D03*
X119500000Y-77000000D03*
X120500000Y-77000000D03*
X120500000Y-78000000D03*
X120500000Y-79000000D03*
X120500000Y-80000000D03*
X120500000Y-81000000D03*
X120500000Y-82000000D03*
X120500000Y-83000000D03*
X120500000Y-84000000D03*
X120500000Y-85000000D03*
X118500000Y-78000000D03*
X118500000Y-77000000D03*
X117500000Y-77000000D03*
X117500000Y-78000000D03*
X116500000Y-78000000D03*
X116500000Y-77000000D03*
X115500000Y-77000000D03*
X115500000Y-78000000D03*
X114500000Y-78000000D03*
X114500000Y-77000000D03*
X113500000Y-78000000D03*
X113500000Y-77000000D03*
X112500000Y-77000000D03*
X112500000Y-78000000D03*
X111500000Y-78000000D03*
X111500000Y-77000000D03*
X110500000Y-77000000D03*
X110500000Y-78000000D03*
X109500000Y-78000000D03*
X109500000Y-77000000D03*
X108500000Y-77000000D03*
X108500000Y-78000000D03*
X107500000Y-78000000D03*
X107500000Y-77000000D03*
X100500000Y-93000000D03*
X100500000Y-92000000D03*
X100500000Y-91000000D03*
X100500000Y-90000000D03*
X100500000Y-89000000D03*
X100500000Y-88000000D03*
X100500000Y-87000000D03*
X100500000Y-86000000D03*
X100500000Y-85000000D03*
X100500000Y-84000000D03*
X100500000Y-83000000D03*
X100500000Y-82000000D03*
X100500000Y-81000000D03*
X100500000Y-80000000D03*
X100500000Y-79000000D03*
X100500000Y-78000000D03*
X100500000Y-77000000D03*
X101500000Y-77000000D03*
X101500000Y-78000000D03*
X102500000Y-78000000D03*
X102500000Y-77000000D03*
X103500000Y-77000000D03*
X103500000Y-78000000D03*
X104500000Y-78000000D03*
X104500000Y-77000000D03*
X105500000Y-77000000D03*
X105500000Y-78000000D03*
X106500000Y-78000000D03*
X106500000Y-77000000D03*
X101500000Y-93000000D03*
X101500000Y-92000000D03*
X101500000Y-91000000D03*
X101500000Y-90000000D03*
X101500000Y-89000000D03*
X101500000Y-88000000D03*
X101500000Y-87000000D03*
X101500000Y-86000000D03*
X101500000Y-85000000D03*
X101500000Y-84000000D03*
X101500000Y-83000000D03*
X101500000Y-82000000D03*
X101500000Y-81000000D03*
X101500000Y-80000000D03*
X101500000Y-79000000D03*
X102500000Y-79000000D03*
X103500000Y-79000000D03*
X104500000Y-79000000D03*
X105500000Y-79000000D03*
X106500000Y-79000000D03*
X112500000Y-96000000D03*
X113500000Y-96000000D03*
X114500000Y-96000000D03*
X115500000Y-96000000D03*
X116500000Y-96000000D03*
X117500000Y-96000000D03*
X118500000Y-96000000D03*
X118500000Y-95000000D03*
X118500000Y-94000000D03*
X118500000Y-93000000D03*
X118500000Y-92000000D03*
X118500000Y-91000000D03*
X118500000Y-90000000D03*
X118500000Y-89000000D03*
X118500000Y-88000000D03*
X118500000Y-87000000D03*
X118500000Y-86000000D03*
X118500000Y-85000000D03*
X118500000Y-84000000D03*
X118500000Y-83000000D03*
X118500000Y-82000000D03*
X118500000Y-81000000D03*
X118500000Y-80000000D03*
X118500000Y-79000000D03*
X117500000Y-79000000D03*
X116500000Y-79000000D03*
X115500000Y-79000000D03*
X114500000Y-79000000D03*
X113500000Y-79000000D03*
X112500000Y-79000000D03*
X111500000Y-79000000D03*
X110500000Y-79000000D03*
X109500000Y-79000000D03*
X108500000Y-79000000D03*
X107500000Y-79000000D03*
X112500000Y-95000000D03*
X112500000Y-94000000D03*
X113500000Y-95000000D03*
X113500000Y-94000000D03*
X114500000Y-95000000D03*
X114500000Y-94000000D03*
X115500000Y-95000000D03*
X115500000Y-94000000D03*
X116500000Y-95000000D03*
X116500000Y-94000000D03*
X117500000Y-94000000D03*
X117500000Y-95000000D03*
X116500000Y-93000000D03*
X117500000Y-93000000D03*
X117500000Y-92000000D03*
X116500000Y-92000000D03*
X116500000Y-91000000D03*
X117500000Y-91000000D03*
X117500000Y-90000000D03*
X116500000Y-90000000D03*
X116500000Y-89000000D03*
X116500000Y-88000000D03*
X117500000Y-88000000D03*
X117500000Y-89000000D03*
X116500000Y-87000000D03*
X117500000Y-87000000D03*
X116500000Y-86000000D03*
X117500000Y-86000000D03*
X117500000Y-85000000D03*
X116500000Y-85000000D03*
X116500000Y-84000000D03*
X117500000Y-84000000D03*
X117500000Y-83000000D03*
X116500000Y-83000000D03*
X116500000Y-82000000D03*
X116500000Y-81000000D03*
X116500000Y-80000000D03*
X115500000Y-80000000D03*
X115500000Y-81000000D03*
X114500000Y-81000000D03*
X114500000Y-80000000D03*
X117500000Y-80000000D03*
X117500000Y-81000000D03*
X117500000Y-82000000D03*
X113500000Y-81000000D03*
X113500000Y-80000000D03*
X112500000Y-81000000D03*
X112500000Y-80000000D03*
X111500000Y-80000000D03*
X111500000Y-81000000D03*
X110500000Y-81000000D03*
X110500000Y-80000000D03*
X109500000Y-80000000D03*
X109500000Y-81000000D03*
X108500000Y-81000000D03*
X108500000Y-80000000D03*
X107500000Y-80000000D03*
X107500000Y-81000000D03*
X106500000Y-81000000D03*
X106500000Y-80000000D03*
X105500000Y-80000000D03*
X105500000Y-81000000D03*
X104500000Y-81000000D03*
X104500000Y-80000000D03*
X103500000Y-80000000D03*
X102500000Y-80000000D03*
X102500000Y-81000000D03*
X103500000Y-81000000D03*
X103500000Y-82000000D03*
X102500000Y-82000000D03*
X102500000Y-83000000D03*
X103500000Y-83000000D03*
X103500000Y-84000000D03*
X102500000Y-84000000D03*
X102500000Y-85000000D03*
X103500000Y-85000000D03*
X103500000Y-86000000D03*
X102500000Y-86000000D03*
X102500000Y-87000000D03*
X103500000Y-87000000D03*
X103500000Y-88000000D03*
X102500000Y-88000000D03*
X102500000Y-89000000D03*
X103500000Y-89000000D03*
X103500000Y-90000000D03*
X102500000Y-90000000D03*
X102500000Y-91000000D03*
X103500000Y-91000000D03*
X103500000Y-92000000D03*
X102500000Y-92000000D03*
X102500000Y-93000000D03*
X103500000Y-93000000D03*
X104500000Y-93000000D03*
X104500000Y-92000000D03*
X105500000Y-92000000D03*
X105500000Y-93000000D03*
X106500000Y-93000000D03*
X106500000Y-92000000D03*
X107500000Y-92000000D03*
X107500000Y-93000000D03*
X108500000Y-93000000D03*
X108500000Y-92000000D03*
X109500000Y-92000000D03*
X109500000Y-93000000D03*
X110500000Y-93000000D03*
X110500000Y-92000000D03*
X111500000Y-92000000D03*
X111500000Y-93000000D03*
X112500000Y-93000000D03*
X112500000Y-92000000D03*
X113500000Y-92000000D03*
X113500000Y-93000000D03*
X114500000Y-93000000D03*
X115500000Y-93000000D03*
X115500000Y-92000000D03*
X114500000Y-92000000D03*
X114500000Y-91000000D03*
X115500000Y-91000000D03*
X115500000Y-90000000D03*
X114500000Y-90000000D03*
X114500000Y-89000000D03*
X115500000Y-89000000D03*
X115500000Y-88000000D03*
X114500000Y-88000000D03*
X114500000Y-87000000D03*
X115500000Y-87000000D03*
X115500000Y-86000000D03*
X114500000Y-86000000D03*
X114500000Y-85000000D03*
X115500000Y-85000000D03*
X115500000Y-84000000D03*
X114500000Y-84000000D03*
X114500000Y-83000000D03*
X115500000Y-83000000D03*
X115500000Y-82000000D03*
X114500000Y-82000000D03*
X113500000Y-82000000D03*
X113500000Y-83000000D03*
X112500000Y-83000000D03*
X112500000Y-82000000D03*
X111500000Y-82000000D03*
X111500000Y-83000000D03*
X110500000Y-83000000D03*
X110500000Y-82000000D03*
X109500000Y-82000000D03*
X109500000Y-83000000D03*
X108500000Y-83000000D03*
X108500000Y-82000000D03*
X107500000Y-82000000D03*
X107500000Y-83000000D03*
X106500000Y-83000000D03*
X106500000Y-82000000D03*
X105500000Y-82000000D03*
X104500000Y-82000000D03*
X104500000Y-83000000D03*
X105500000Y-83000000D03*
X105500000Y-84000000D03*
X104500000Y-84000000D03*
X104500000Y-85000000D03*
X105500000Y-85000000D03*
X105500000Y-86000000D03*
X104500000Y-86000000D03*
X104500000Y-87000000D03*
X105500000Y-87000000D03*
X105500000Y-88000000D03*
X104500000Y-88000000D03*
X104500000Y-89000000D03*
X105500000Y-89000000D03*
X105500000Y-90000000D03*
X104500000Y-90000000D03*
X104500000Y-91000000D03*
X105500000Y-91000000D03*
X106500000Y-91000000D03*
X106500000Y-90000000D03*
X106500000Y-89000000D03*
X106500000Y-88000000D03*
X106500000Y-87000000D03*
X106500000Y-86000000D03*
X106500000Y-85000000D03*
X106500000Y-84000000D03*
X107500000Y-84000000D03*
X107500000Y-85000000D03*
X107500000Y-86000000D03*
X107500000Y-87000000D03*
X107500000Y-88000000D03*
X107500000Y-89000000D03*
X107500000Y-91000000D03*
X107500000Y-90000000D03*
X108500000Y-91000000D03*
X108500000Y-90000000D03*
X109500000Y-90000000D03*
X109500000Y-91000000D03*
X110500000Y-91000000D03*
X110500000Y-90000000D03*
X111500000Y-91000000D03*
X111500000Y-90000000D03*
X112500000Y-90000000D03*
X112500000Y-91000000D03*
X113500000Y-91000000D03*
X113500000Y-90000000D03*
X113500000Y-89000000D03*
X113500000Y-88000000D03*
X112500000Y-88000000D03*
X112500000Y-89000000D03*
X111500000Y-89000000D03*
X111500000Y-88000000D03*
X111500000Y-87000000D03*
X112500000Y-87000000D03*
X113500000Y-87000000D03*
X113500000Y-86000000D03*
X112500000Y-86000000D03*
X111500000Y-86000000D03*
X111500000Y-85000000D03*
X111500000Y-84000000D03*
X112500000Y-84000000D03*
X112500000Y-85000000D03*
X113500000Y-85000000D03*
X113500000Y-84000000D03*
X110500000Y-84000000D03*
X109500000Y-84000000D03*
X108500000Y-84000000D03*
X108500000Y-85000000D03*
X109500000Y-85000000D03*
X110500000Y-85000000D03*
X110500000Y-86000000D03*
X109500000Y-86000000D03*
X108500000Y-86000000D03*
X108500000Y-87000000D03*
X108500000Y-88000000D03*
X108500000Y-89000000D03*
X109500000Y-89000000D03*
X109500000Y-88000000D03*
X109500000Y-87000000D03*
X110500000Y-87000000D03*
X110500000Y-88000000D03*
X110500000Y-89000000D03*
D29*
X76600000Y-116375000D03*
D30*
X79100000Y-116375000D03*
X74100000Y-116375000D03*
X69400000Y-116375000D03*
X69400000Y-130625000D03*
X79100000Y-130625000D03*
X74100000Y-130625000D03*
X83700000Y-118700000D03*
X83700000Y-123500000D03*
X83700000Y-128300000D03*
D31*
X71600000Y-130625000D03*
X81600000Y-130625000D03*
X66600000Y-116375000D03*
X66600000Y-122055000D03*
X66600000Y-127455000D03*
X56600000Y-116375000D03*
X46600000Y-116375000D03*
X61600000Y-130625000D03*
X51600000Y-130625000D03*
X46600000Y-124955000D03*
D32*
X73175000Y-62700000D03*
X73675000Y-62700000D03*
X74175000Y-62700000D03*
X74675000Y-62700000D03*
X75175000Y-62700000D03*
X75675000Y-62700000D03*
D33*
X76375000Y-62000000D03*
X76375000Y-61500000D03*
X76375000Y-61000000D03*
X76375000Y-60500000D03*
X76375000Y-60000000D03*
X76375000Y-59500000D03*
D32*
X75675000Y-58800000D03*
X75175000Y-58800000D03*
X74675000Y-58800000D03*
X74175000Y-58800000D03*
X73675000Y-58800000D03*
X73175000Y-58800000D03*
D33*
X72475000Y-59500000D03*
X72475000Y-60000000D03*
X72475000Y-60500000D03*
X72475000Y-61000000D03*
X72475000Y-61500000D03*
X72475000Y-62000000D03*
D34*
X75050000Y-60125000D03*
X73800000Y-60125000D03*
X75050000Y-61375000D03*
X73800000Y-61375000D03*
D35*
X67675000Y-62190000D03*
X67675000Y-61690000D03*
X67675000Y-61190000D03*
X67675000Y-60690000D03*
X65875000Y-60690000D03*
X65875000Y-61190000D03*
X65875000Y-61690000D03*
X65875000Y-62190000D03*
D36*
X66775000Y-61000000D03*
X66775000Y-61880000D03*
D37*
X61675000Y-58500000D03*
X61675000Y-62500000D03*
X59175000Y-62500000D03*
X59175000Y-58500000D03*
D38*
X116000000Y-67000000D03*
D39*
X113375000Y-66365000D03*
X113375000Y-67635000D03*
X113375000Y-68905000D03*
X113375000Y-65095000D03*
X118625000Y-65095000D03*
X118625000Y-66365000D03*
X118625000Y-67635000D03*
X118625000Y-68905000D03*
D40*
X111000000Y-127600000D03*
X116500000Y-127600000D03*
X116500000Y-123900000D03*
X111000000Y-123900000D03*
X121000000Y-127600000D03*
X126500000Y-127600000D03*
X126500000Y-123900000D03*
X121000000Y-123900000D03*
D41*
X139350000Y-70250000D03*
X139350000Y-64750000D03*
X135650000Y-64750000D03*
X135650000Y-70250000D03*
D19*
X113300000Y-121750000D03*
X114200000Y-121750000D03*
X123300000Y-121750000D03*
X124200000Y-121750000D03*
D24*
X120250000Y-112450000D03*
X120250000Y-111550000D03*
X117250000Y-112450000D03*
X117250000Y-111550000D03*
X114250000Y-112450000D03*
X114250000Y-111550000D03*
X111250000Y-112450000D03*
X111250000Y-111550000D03*
D19*
X121550000Y-70750000D03*
X122450000Y-70750000D03*
X122450000Y-68500000D03*
X121550000Y-68500000D03*
D24*
X133250000Y-71200000D03*
X133250000Y-70300000D03*
D19*
X133050000Y-60500000D03*
X133950000Y-60500000D03*
X139450000Y-85750000D03*
X138550000Y-85750000D03*
D24*
X111750000Y-63800000D03*
X111750000Y-64700000D03*
D19*
X136950000Y-91000000D03*
X136050000Y-91000000D03*
X139450000Y-91000000D03*
X138550000Y-91000000D03*
X122450000Y-66375000D03*
X121550000Y-66375000D03*
D24*
X110250000Y-67550000D03*
X110250000Y-68450000D03*
X110250000Y-63800000D03*
X110250000Y-64700000D03*
D19*
X136950000Y-89250000D03*
X136050000Y-89250000D03*
X139450000Y-89250000D03*
X138550000Y-89250000D03*
D24*
X118500000Y-72550000D03*
X118500000Y-73450000D03*
X116750000Y-72550000D03*
X116750000Y-73450000D03*
X115000000Y-72550000D03*
X115000000Y-73450000D03*
X113250000Y-72550000D03*
X113250000Y-73450000D03*
D19*
X136950000Y-87500000D03*
X136050000Y-87500000D03*
X139450000Y-87500000D03*
X138550000Y-87500000D03*
X84950000Y-136000000D03*
X84050000Y-136000000D03*
D24*
X108000000Y-112050000D03*
X108000000Y-112950000D03*
D42*
X77500000Y-118700000D03*
X77500000Y-128300000D03*
D43*
X73400000Y-120100000D03*
X73400000Y-120900000D03*
X73400000Y-121700000D03*
X73400000Y-122500000D03*
X73400000Y-123300000D03*
X73400000Y-124100000D03*
X73400000Y-124900000D03*
X73400000Y-125700000D03*
X73400000Y-126500000D03*
X73400000Y-127300000D03*
X81600000Y-126900000D03*
X81600000Y-126100000D03*
X81600000Y-125300000D03*
X81600000Y-124500000D03*
X81600000Y-123700000D03*
X81600000Y-122900000D03*
X81600000Y-122100000D03*
X81600000Y-121300000D03*
X81600000Y-120500000D03*
X81600000Y-119700000D03*
D44*
X88249960Y-50560700D03*
X88750340Y-50560700D03*
X89250720Y-50560700D03*
X89751100Y-50560700D03*
X90248940Y-50560700D03*
D45*
X91000780Y-50560700D03*
D44*
X91750080Y-50560700D03*
X92250460Y-50560700D03*
X92750840Y-50560700D03*
X93251220Y-50560700D03*
X93749060Y-50560700D03*
X94249440Y-50560700D03*
X94749820Y-50560700D03*
X95250200Y-50560700D03*
X95750580Y-50560700D03*
X96250960Y-50560700D03*
D45*
X97000260Y-50560700D03*
D44*
X97749560Y-50560700D03*
X98249940Y-50560700D03*
X98750320Y-50560700D03*
X99250700Y-50560700D03*
X99751080Y-50560700D03*
X100248920Y-50560700D03*
X100749300Y-50560700D03*
X101249680Y-50560700D03*
X101750060Y-50560700D03*
X102250440Y-50560700D03*
D45*
X103002280Y-50560700D03*
D44*
X103749040Y-50560700D03*
X104249420Y-50560700D03*
X104749800Y-50560700D03*
X105250180Y-50560700D03*
X105750560Y-50560700D03*
X106250940Y-50560700D03*
X106748780Y-50560700D03*
X107249160Y-50560700D03*
X107749540Y-50560700D03*
X108249920Y-50560700D03*
D45*
X109001760Y-50560700D03*
D44*
X109751060Y-50560700D03*
X110248900Y-50560700D03*
X110749280Y-50560700D03*
X111249660Y-50560700D03*
X111750040Y-50560700D03*
X111755120Y-44459620D03*
X111254740Y-44459620D03*
X110754360Y-44459620D03*
X110253980Y-44459620D03*
X109756140Y-44459620D03*
D45*
X109006840Y-44459620D03*
D44*
X108255000Y-44459620D03*
X107754620Y-44459620D03*
X107254240Y-44459620D03*
X106753860Y-44459620D03*
X106256020Y-44459620D03*
X105755640Y-44459620D03*
X105255260Y-44459620D03*
X104754880Y-44459620D03*
X104254500Y-44459620D03*
X103754120Y-44459620D03*
D45*
X103004820Y-44459620D03*
D44*
X102252980Y-44459620D03*
X101752600Y-44459620D03*
X101252220Y-44459620D03*
X100751840Y-44459620D03*
X100254000Y-44459620D03*
X99753620Y-44459620D03*
X99253240Y-44459620D03*
X98752860Y-44459620D03*
X98252480Y-44459620D03*
X97752100Y-44459620D03*
D45*
X97002800Y-44459620D03*
D44*
X96250960Y-44459620D03*
X95750580Y-44459620D03*
X95250200Y-44459620D03*
X94749820Y-44459620D03*
X94251980Y-44459620D03*
X93751600Y-44459620D03*
X93251220Y-44459620D03*
X92750840Y-44459620D03*
X92250460Y-44459620D03*
X91750080Y-44459620D03*
D45*
X91000780Y-44459620D03*
D44*
X90248940Y-44459620D03*
X89751100Y-44459620D03*
X89250720Y-44459620D03*
X88750340Y-44459620D03*
X88249960Y-44459620D03*
D46*
X114950440Y-47500000D03*
X85049560Y-47500000D03*
D21*
X65175000Y-54750000D03*
X65175000Y-56250000D03*
X71675000Y-54750000D03*
X71675000Y-56250000D03*
X102500000Y-102250000D03*
X102500000Y-100750000D03*
X100250000Y-102250000D03*
X100250000Y-100750000D03*
D23*
X78925000Y-59350000D03*
X78925000Y-58250000D03*
X69925000Y-62350000D03*
X69925000Y-61250000D03*
X69675000Y-56250000D03*
X69675000Y-55150000D03*
D20*
X60975000Y-55750000D03*
X59875000Y-55750000D03*
D23*
X78925000Y-62250000D03*
X78925000Y-63350000D03*
D20*
X67225000Y-64000000D03*
X66125000Y-64000000D03*
X74875000Y-56250000D03*
X75975000Y-56250000D03*
D23*
X67175000Y-56250000D03*
X67175000Y-55150000D03*
X69925000Y-59350000D03*
X69925000Y-58250000D03*
D20*
X118700000Y-63250000D03*
X119800000Y-63250000D03*
X80700000Y-61500000D03*
X81800000Y-61500000D03*
X80700000Y-60000000D03*
X81800000Y-60000000D03*
D22*
X124750000Y-96250000D03*
X126750000Y-96250000D03*
X127500000Y-76500000D03*
X129500000Y-76500000D03*
X124750000Y-93750000D03*
X126750000Y-93750000D03*
D17*
X111500000Y-54750000D03*
X111500000Y-56750000D03*
D22*
X127500000Y-79000000D03*
X129500000Y-79000000D03*
X123500000Y-76500000D03*
X125500000Y-76500000D03*
D17*
X129000000Y-86000000D03*
X129000000Y-84000000D03*
D22*
X123500000Y-79000000D03*
X125500000Y-79000000D03*
D17*
X108000000Y-100750000D03*
X108000000Y-102750000D03*
X110500000Y-100750000D03*
X110500000Y-102750000D03*
D47*
X131350000Y-95420000D03*
X131350000Y-89180000D03*
D23*
X103475000Y-130450000D03*
X103475000Y-131550000D03*
X102000000Y-130450000D03*
X102000000Y-131550000D03*
X96250000Y-130450000D03*
X96250000Y-131550000D03*
X94750000Y-130475000D03*
X94750000Y-131575000D03*
D24*
X80675000Y-56050000D03*
X80675000Y-56950000D03*
X78925000Y-56050000D03*
X78925000Y-56950000D03*
D35*
X127000000Y-88250000D03*
X127000000Y-89250000D03*
D48*
X127100000Y-88400000D03*
X126900000Y-88400000D03*
X126900000Y-88100000D03*
X127100000Y-88100000D03*
X127100000Y-89100000D03*
X126900000Y-89100000D03*
X126900000Y-89400000D03*
X127100000Y-89400000D03*
D49*
X127000000Y-89400000D03*
X127000000Y-89100000D03*
X127000000Y-88400000D03*
X127000000Y-88100000D03*
D35*
X124000000Y-88250000D03*
X124000000Y-89250000D03*
D48*
X124100000Y-88400000D03*
X123900000Y-88400000D03*
X123900000Y-88100000D03*
X124100000Y-88100000D03*
X124100000Y-89100000D03*
X123900000Y-89100000D03*
X123900000Y-89400000D03*
X124100000Y-89400000D03*
D49*
X124000000Y-89400000D03*
X124000000Y-89100000D03*
X124000000Y-88400000D03*
X124000000Y-88100000D03*
D50*
X128000000Y-74500000D03*
X129000000Y-74500000D03*
D48*
X128150000Y-74400000D03*
X128150000Y-74600000D03*
X127850000Y-74600000D03*
X127850000Y-74400000D03*
X128850000Y-74400000D03*
X128850000Y-74600000D03*
X129150000Y-74600000D03*
X129150000Y-74400000D03*
D51*
X129150000Y-74500000D03*
X128850000Y-74500000D03*
X128150000Y-74500000D03*
X127850000Y-74500000D03*
D35*
X125500000Y-88250000D03*
X125500000Y-89250000D03*
D48*
X125600000Y-88400000D03*
X125400000Y-88400000D03*
X125400000Y-88100000D03*
X125600000Y-88100000D03*
X125600000Y-89100000D03*
X125400000Y-89100000D03*
X125400000Y-89400000D03*
X125600000Y-89400000D03*
D49*
X125500000Y-89400000D03*
X125500000Y-89100000D03*
X125500000Y-88400000D03*
X125500000Y-88100000D03*
D35*
X125500000Y-83750000D03*
X125500000Y-82750000D03*
D48*
X125400000Y-83600000D03*
X125600000Y-83600000D03*
X125600000Y-83900000D03*
X125400000Y-83900000D03*
X125400000Y-82900000D03*
X125600000Y-82900000D03*
X125600000Y-82600000D03*
X125400000Y-82600000D03*
D49*
X125500000Y-82600000D03*
X125500000Y-82900000D03*
X125500000Y-83600000D03*
X125500000Y-83900000D03*
D50*
X128000000Y-73000000D03*
X129000000Y-73000000D03*
D48*
X128150000Y-72900000D03*
X128150000Y-73100000D03*
X127850000Y-73100000D03*
X127850000Y-72900000D03*
X128850000Y-72900000D03*
X128850000Y-73100000D03*
X129150000Y-73100000D03*
X129150000Y-72900000D03*
D51*
X129150000Y-73000000D03*
X128850000Y-73000000D03*
X128150000Y-73000000D03*
X127850000Y-73000000D03*
D35*
X127000000Y-90750000D03*
X127000000Y-91750000D03*
D48*
X127100000Y-90900000D03*
X126900000Y-90900000D03*
X126900000Y-90600000D03*
X127100000Y-90600000D03*
X127100000Y-91600000D03*
X126900000Y-91600000D03*
X126900000Y-91900000D03*
X127100000Y-91900000D03*
D49*
X127000000Y-91900000D03*
X127000000Y-91600000D03*
X127000000Y-90900000D03*
X127000000Y-90600000D03*
D35*
X127000000Y-86250000D03*
X127000000Y-85250000D03*
D48*
X126900000Y-86100000D03*
X127100000Y-86100000D03*
X127100000Y-86400000D03*
X126900000Y-86400000D03*
X126900000Y-85400000D03*
X127100000Y-85400000D03*
X127100000Y-85100000D03*
X126900000Y-85100000D03*
D49*
X127000000Y-85100000D03*
X127000000Y-85400000D03*
X127000000Y-86100000D03*
X127000000Y-86400000D03*
D35*
X125500000Y-90750000D03*
X125500000Y-91750000D03*
D48*
X125600000Y-90900000D03*
X125400000Y-90900000D03*
X125400000Y-90600000D03*
X125600000Y-90600000D03*
X125600000Y-91600000D03*
X125400000Y-91600000D03*
X125400000Y-91900000D03*
X125600000Y-91900000D03*
D49*
X125500000Y-91900000D03*
X125500000Y-91600000D03*
X125500000Y-90900000D03*
X125500000Y-90600000D03*
D35*
X125500000Y-86250000D03*
X125500000Y-85250000D03*
D48*
X125400000Y-86100000D03*
X125600000Y-86100000D03*
X125600000Y-86400000D03*
X125400000Y-86400000D03*
X125400000Y-85400000D03*
X125600000Y-85400000D03*
X125600000Y-85100000D03*
X125400000Y-85100000D03*
D49*
X125500000Y-85100000D03*
X125500000Y-85400000D03*
X125500000Y-86100000D03*
X125500000Y-86400000D03*
D35*
X124000000Y-90750000D03*
X124000000Y-91750000D03*
D48*
X124100000Y-90900000D03*
X123900000Y-90900000D03*
X123900000Y-90600000D03*
X124100000Y-90600000D03*
X124100000Y-91600000D03*
X123900000Y-91600000D03*
X123900000Y-91900000D03*
X124100000Y-91900000D03*
D49*
X124000000Y-91900000D03*
X124000000Y-91600000D03*
X124000000Y-90900000D03*
X124000000Y-90600000D03*
D35*
X124000000Y-83750000D03*
X124000000Y-82750000D03*
D48*
X123900000Y-83600000D03*
X124100000Y-83600000D03*
X124100000Y-83900000D03*
X123900000Y-83900000D03*
X123900000Y-82900000D03*
X124100000Y-82900000D03*
X124100000Y-82600000D03*
X123900000Y-82600000D03*
D49*
X124000000Y-82600000D03*
X124000000Y-82900000D03*
X124000000Y-83600000D03*
X124000000Y-83900000D03*
D35*
X124000000Y-86250000D03*
X124000000Y-85250000D03*
D48*
X123900000Y-86100000D03*
X124100000Y-86100000D03*
X124100000Y-86400000D03*
X123900000Y-86400000D03*
X123900000Y-85400000D03*
X124100000Y-85400000D03*
X124100000Y-85100000D03*
X123900000Y-85100000D03*
D49*
X124000000Y-85100000D03*
X124000000Y-85400000D03*
X124000000Y-86100000D03*
X124000000Y-86400000D03*
D50*
X124000000Y-73000000D03*
X125000000Y-73000000D03*
D48*
X124150000Y-72900000D03*
X124150000Y-73100000D03*
X123850000Y-73100000D03*
X123850000Y-72900000D03*
X124850000Y-72900000D03*
X124850000Y-73100000D03*
X125150000Y-73100000D03*
X125150000Y-72900000D03*
D51*
X125150000Y-73000000D03*
X124850000Y-73000000D03*
X124150000Y-73000000D03*
X123850000Y-73000000D03*
D50*
X124000000Y-74500000D03*
X125000000Y-74500000D03*
D48*
X124150000Y-74400000D03*
X124150000Y-74600000D03*
X123850000Y-74600000D03*
X123850000Y-74400000D03*
X124850000Y-74400000D03*
X124850000Y-74600000D03*
X125150000Y-74600000D03*
X125150000Y-74400000D03*
D51*
X125150000Y-74500000D03*
X124850000Y-74500000D03*
X124150000Y-74500000D03*
X123850000Y-74500000D03*
D20*
X103900000Y-109700000D03*
X105000000Y-109700000D03*
D23*
X102000000Y-105200000D03*
X102000000Y-106300000D03*
D52*
X136865000Y-78480000D03*
X138135000Y-78480000D03*
X136865000Y-79750000D03*
X138135000Y-79750000D03*
X136865000Y-81020000D03*
X138135000Y-81020000D03*
D53*
X138516000Y-82290000D03*
X136484000Y-82290000D03*
X137500000Y-77210000D03*
D17*
X64250000Y-84000000D03*
X64250000Y-86000000D03*
X64250000Y-90000000D03*
X64250000Y-88000000D03*
X67750000Y-70750000D03*
X67750000Y-72750000D03*
X67750000Y-77000000D03*
X67750000Y-75000000D03*
X67000000Y-84000000D03*
X67000000Y-86000000D03*
X67000000Y-90000000D03*
X67000000Y-88000000D03*
D24*
X50750000Y-85800000D03*
X50750000Y-86700000D03*
M02*
