G04 #@! TF.FileFunction,Legend,Bot*
%FSLAX46Y46*%
G04 Gerber Fmt 4.6, Leading zero omitted, Abs format (unit mm)*
G04 Created by KiCad (PCBNEW 4.0.1-stable) date Saturday, December 26, 2015 'PMt' 06:59:42 PM*
%MOMM*%
G01*
G04 APERTURE LIST*
%ADD10C,0.100000*%
%ADD11C,0.200000*%
%ADD12C,0.300000*%
%ADD13C,0.050000*%
%ADD14C,0.150000*%
G04 APERTURE END LIST*
D10*
D11*
X79883335Y-136247619D02*
X79835716Y-136200000D01*
X79740478Y-136152381D01*
X79502382Y-136152381D01*
X79407144Y-136200000D01*
X79359525Y-136247619D01*
X79311906Y-136342857D01*
X79311906Y-136438095D01*
X79359525Y-136580952D01*
X79930954Y-137152381D01*
X79311906Y-137152381D01*
X78359525Y-137152381D02*
X78930954Y-137152381D01*
X78645240Y-137152381D02*
X78645240Y-136152381D01*
X78740478Y-136295238D01*
X78835716Y-136390476D01*
X78930954Y-136438095D01*
X77502382Y-137152381D02*
X77502382Y-136152381D01*
X77502382Y-137104762D02*
X77597620Y-137152381D01*
X77788097Y-137152381D01*
X77883335Y-137104762D01*
X77930954Y-137057143D01*
X77978573Y-136961905D01*
X77978573Y-136676190D01*
X77930954Y-136580952D01*
X77883335Y-136533333D01*
X77788097Y-136485714D01*
X77597620Y-136485714D01*
X77502382Y-136533333D01*
X76597620Y-136485714D02*
X76597620Y-137152381D01*
X76835716Y-136104762D02*
X77073811Y-136819048D01*
X76454763Y-136819048D01*
X75645239Y-137104762D02*
X75740477Y-137152381D01*
X75930954Y-137152381D01*
X76026192Y-137104762D01*
X76073811Y-137057143D01*
X76121430Y-136961905D01*
X76121430Y-136676190D01*
X76073811Y-136580952D01*
X76026192Y-136533333D01*
X75930954Y-136485714D01*
X75740477Y-136485714D01*
X75645239Y-136533333D01*
X75311906Y-136152381D02*
X74645239Y-136152381D01*
X75073811Y-137152381D01*
X74407144Y-136485714D02*
X74026192Y-136485714D01*
X74264287Y-137152381D02*
X74264287Y-136295238D01*
X74216668Y-136200000D01*
X74121430Y-136152381D01*
X74026192Y-136152381D01*
X73264286Y-136152381D02*
X73454763Y-136152381D01*
X73550001Y-136200000D01*
X73597620Y-136247619D01*
X73692858Y-136390476D01*
X73740477Y-136580952D01*
X73740477Y-136961905D01*
X73692858Y-137057143D01*
X73645239Y-137104762D01*
X73550001Y-137152381D01*
X73359524Y-137152381D01*
X73264286Y-137104762D01*
X73216667Y-137057143D01*
X73169048Y-136961905D01*
X73169048Y-136723810D01*
X73216667Y-136628571D01*
X73264286Y-136580952D01*
X73359524Y-136533333D01*
X73550001Y-136533333D01*
X73645239Y-136580952D01*
X73692858Y-136628571D01*
X73740477Y-136723810D01*
X72788096Y-136247619D02*
X72740477Y-136200000D01*
X72645239Y-136152381D01*
X72407143Y-136152381D01*
X72311905Y-136200000D01*
X72264286Y-136247619D01*
X72216667Y-136342857D01*
X72216667Y-136438095D01*
X72264286Y-136580952D01*
X72835715Y-137152381D01*
X72216667Y-137152381D01*
X71264286Y-137152381D02*
X71835715Y-137152381D01*
X71550001Y-137152381D02*
X71550001Y-136152381D01*
X71645239Y-136295238D01*
X71740477Y-136390476D01*
X71835715Y-136438095D01*
X70407143Y-136485714D02*
X70407143Y-137152381D01*
X70645239Y-136104762D02*
X70883334Y-136819048D01*
X70264286Y-136819048D01*
X69454762Y-137104762D02*
X69550000Y-137152381D01*
X69740477Y-137152381D01*
X69835715Y-137104762D01*
X69883334Y-137057143D01*
X69930953Y-136961905D01*
X69930953Y-136676190D01*
X69883334Y-136580952D01*
X69835715Y-136533333D01*
X69740477Y-136485714D01*
X69550000Y-136485714D01*
X69454762Y-136533333D01*
X68883334Y-136580952D02*
X68978572Y-136533333D01*
X69026191Y-136485714D01*
X69073810Y-136390476D01*
X69073810Y-136342857D01*
X69026191Y-136247619D01*
X68978572Y-136200000D01*
X68883334Y-136152381D01*
X68692857Y-136152381D01*
X68597619Y-136200000D01*
X68550000Y-136247619D01*
X68502381Y-136342857D01*
X68502381Y-136390476D01*
X68550000Y-136485714D01*
X68597619Y-136533333D01*
X68692857Y-136580952D01*
X68883334Y-136580952D01*
X68978572Y-136628571D01*
X69026191Y-136676190D01*
X69073810Y-136771429D01*
X69073810Y-136961905D01*
X69026191Y-137057143D01*
X68978572Y-137104762D01*
X68883334Y-137152381D01*
X68692857Y-137152381D01*
X68597619Y-137104762D01*
X68550000Y-137057143D01*
X68502381Y-136961905D01*
X68502381Y-136771429D01*
X68550000Y-136676190D01*
X68597619Y-136628571D01*
X68692857Y-136580952D01*
X68026191Y-137152381D02*
X67835715Y-137152381D01*
X67740476Y-137104762D01*
X67692857Y-137057143D01*
X67597619Y-136914286D01*
X67550000Y-136723810D01*
X67550000Y-136342857D01*
X67597619Y-136247619D01*
X67645238Y-136200000D01*
X67740476Y-136152381D01*
X67930953Y-136152381D01*
X68026191Y-136200000D01*
X68073810Y-136247619D01*
X68121429Y-136342857D01*
X68121429Y-136580952D01*
X68073810Y-136676190D01*
X68026191Y-136723810D01*
X67930953Y-136771429D01*
X67740476Y-136771429D01*
X67645238Y-136723810D01*
X67597619Y-136676190D01*
X67550000Y-136580952D01*
X66692857Y-137104762D02*
X66788095Y-137152381D01*
X66978572Y-137152381D01*
X67073810Y-137104762D01*
X67121429Y-137057143D01*
X67169048Y-136961905D01*
X67169048Y-136676190D01*
X67121429Y-136580952D01*
X67073810Y-136533333D01*
X66978572Y-136485714D01*
X66788095Y-136485714D01*
X66692857Y-136533333D01*
X65788095Y-136152381D02*
X66264286Y-136152381D01*
X66311905Y-136628571D01*
X66264286Y-136580952D01*
X66169048Y-136533333D01*
X65930952Y-136533333D01*
X65835714Y-136580952D01*
X65788095Y-136628571D01*
X65740476Y-136723810D01*
X65740476Y-136961905D01*
X65788095Y-137057143D01*
X65835714Y-137104762D01*
X65930952Y-137152381D01*
X66169048Y-137152381D01*
X66264286Y-137104762D01*
X66311905Y-137057143D01*
X64883333Y-137152381D02*
X64883333Y-136628571D01*
X64930952Y-136533333D01*
X65026190Y-136485714D01*
X65216667Y-136485714D01*
X65311905Y-136533333D01*
X64883333Y-137104762D02*
X64978571Y-137152381D01*
X65216667Y-137152381D01*
X65311905Y-137104762D01*
X65359524Y-137009524D01*
X65359524Y-136914286D01*
X65311905Y-136819048D01*
X65216667Y-136771429D01*
X64978571Y-136771429D01*
X64883333Y-136723810D01*
X63978571Y-137152381D02*
X63978571Y-136628571D01*
X64026190Y-136533333D01*
X64121428Y-136485714D01*
X64311905Y-136485714D01*
X64407143Y-136533333D01*
X63978571Y-137104762D02*
X64073809Y-137152381D01*
X64311905Y-137152381D01*
X64407143Y-137104762D01*
X64454762Y-137009524D01*
X64454762Y-136914286D01*
X64407143Y-136819048D01*
X64311905Y-136771429D01*
X64073809Y-136771429D01*
X63978571Y-136723810D01*
X63597619Y-136152381D02*
X62978571Y-136152381D01*
X63311905Y-136533333D01*
X63169047Y-136533333D01*
X63073809Y-136580952D01*
X63026190Y-136628571D01*
X62978571Y-136723810D01*
X62978571Y-136961905D01*
X63026190Y-137057143D01*
X63073809Y-137104762D01*
X63169047Y-137152381D01*
X63454762Y-137152381D01*
X63550000Y-137104762D01*
X63597619Y-137057143D01*
X62407143Y-136580952D02*
X62502381Y-136533333D01*
X62550000Y-136485714D01*
X62597619Y-136390476D01*
X62597619Y-136342857D01*
X62550000Y-136247619D01*
X62502381Y-136200000D01*
X62407143Y-136152381D01*
X62216666Y-136152381D01*
X62121428Y-136200000D01*
X62073809Y-136247619D01*
X62026190Y-136342857D01*
X62026190Y-136390476D01*
X62073809Y-136485714D01*
X62121428Y-136533333D01*
X62216666Y-136580952D01*
X62407143Y-136580952D01*
X62502381Y-136628571D01*
X62550000Y-136676190D01*
X62597619Y-136771429D01*
X62597619Y-136961905D01*
X62550000Y-137057143D01*
X62502381Y-137104762D01*
X62407143Y-137152381D01*
X62216666Y-137152381D01*
X62121428Y-137104762D01*
X62073809Y-137057143D01*
X62026190Y-136961905D01*
X62026190Y-136771429D01*
X62073809Y-136676190D01*
X62121428Y-136628571D01*
X62216666Y-136580952D01*
X61121428Y-136152381D02*
X61597619Y-136152381D01*
X61645238Y-136628571D01*
X61597619Y-136580952D01*
X61502381Y-136533333D01*
X61264285Y-136533333D01*
X61169047Y-136580952D01*
X61121428Y-136628571D01*
X61073809Y-136723810D01*
X61073809Y-136961905D01*
X61121428Y-137057143D01*
X61169047Y-137104762D01*
X61264285Y-137152381D01*
X61502381Y-137152381D01*
X61597619Y-137104762D01*
X61645238Y-137057143D01*
X60216666Y-137152381D02*
X60216666Y-136628571D01*
X60264285Y-136533333D01*
X60359523Y-136485714D01*
X60550000Y-136485714D01*
X60645238Y-136533333D01*
X60216666Y-137104762D02*
X60311904Y-137152381D01*
X60550000Y-137152381D01*
X60645238Y-137104762D01*
X60692857Y-137009524D01*
X60692857Y-136914286D01*
X60645238Y-136819048D01*
X60550000Y-136771429D01*
X60311904Y-136771429D01*
X60216666Y-136723810D01*
X59311904Y-136485714D02*
X59311904Y-137152381D01*
X59550000Y-136104762D02*
X59788095Y-136819048D01*
X59169047Y-136819048D01*
X58835714Y-136247619D02*
X58788095Y-136200000D01*
X58692857Y-136152381D01*
X58454761Y-136152381D01*
X58359523Y-136200000D01*
X58311904Y-136247619D01*
X58264285Y-136342857D01*
X58264285Y-136438095D01*
X58311904Y-136580952D01*
X58883333Y-137152381D01*
X58264285Y-137152381D01*
X57883333Y-136247619D02*
X57835714Y-136200000D01*
X57740476Y-136152381D01*
X57502380Y-136152381D01*
X57407142Y-136200000D01*
X57359523Y-136247619D01*
X57311904Y-136342857D01*
X57311904Y-136438095D01*
X57359523Y-136580952D01*
X57930952Y-137152381D01*
X57311904Y-137152381D01*
X56740476Y-136580952D02*
X56835714Y-136533333D01*
X56883333Y-136485714D01*
X56930952Y-136390476D01*
X56930952Y-136342857D01*
X56883333Y-136247619D01*
X56835714Y-136200000D01*
X56740476Y-136152381D01*
X56549999Y-136152381D01*
X56454761Y-136200000D01*
X56407142Y-136247619D01*
X56359523Y-136342857D01*
X56359523Y-136390476D01*
X56407142Y-136485714D01*
X56454761Y-136533333D01*
X56549999Y-136580952D01*
X56740476Y-136580952D01*
X56835714Y-136628571D01*
X56883333Y-136676190D01*
X56930952Y-136771429D01*
X56930952Y-136961905D01*
X56883333Y-137057143D01*
X56835714Y-137104762D01*
X56740476Y-137152381D01*
X56549999Y-137152381D01*
X56454761Y-137104762D01*
X56407142Y-137057143D01*
X56359523Y-136961905D01*
X56359523Y-136771429D01*
X56407142Y-136676190D01*
X56454761Y-136628571D01*
X56549999Y-136580952D01*
X56026190Y-136152381D02*
X55359523Y-136152381D01*
X55788095Y-137152381D01*
X54835714Y-136580952D02*
X54930952Y-136533333D01*
X54978571Y-136485714D01*
X55026190Y-136390476D01*
X55026190Y-136342857D01*
X54978571Y-136247619D01*
X54930952Y-136200000D01*
X54835714Y-136152381D01*
X54645237Y-136152381D01*
X54549999Y-136200000D01*
X54502380Y-136247619D01*
X54454761Y-136342857D01*
X54454761Y-136390476D01*
X54502380Y-136485714D01*
X54549999Y-136533333D01*
X54645237Y-136580952D01*
X54835714Y-136580952D01*
X54930952Y-136628571D01*
X54978571Y-136676190D01*
X55026190Y-136771429D01*
X55026190Y-136961905D01*
X54978571Y-137057143D01*
X54930952Y-137104762D01*
X54835714Y-137152381D01*
X54645237Y-137152381D01*
X54549999Y-137104762D01*
X54502380Y-137057143D01*
X54454761Y-136961905D01*
X54454761Y-136771429D01*
X54502380Y-136676190D01*
X54549999Y-136628571D01*
X54645237Y-136580952D01*
X53883333Y-136580952D02*
X53978571Y-136533333D01*
X54026190Y-136485714D01*
X54073809Y-136390476D01*
X54073809Y-136342857D01*
X54026190Y-136247619D01*
X53978571Y-136200000D01*
X53883333Y-136152381D01*
X53692856Y-136152381D01*
X53597618Y-136200000D01*
X53549999Y-136247619D01*
X53502380Y-136342857D01*
X53502380Y-136390476D01*
X53549999Y-136485714D01*
X53597618Y-136533333D01*
X53692856Y-136580952D01*
X53883333Y-136580952D01*
X53978571Y-136628571D01*
X54026190Y-136676190D01*
X54073809Y-136771429D01*
X54073809Y-136961905D01*
X54026190Y-137057143D01*
X53978571Y-137104762D01*
X53883333Y-137152381D01*
X53692856Y-137152381D01*
X53597618Y-137104762D01*
X53549999Y-137057143D01*
X53502380Y-136961905D01*
X53502380Y-136771429D01*
X53549999Y-136676190D01*
X53597618Y-136628571D01*
X53692856Y-136580952D01*
X52645237Y-136485714D02*
X52645237Y-137152381D01*
X52883333Y-136104762D02*
X53121428Y-136819048D01*
X52502380Y-136819048D01*
X51692856Y-137152381D02*
X51692856Y-136628571D01*
X51740475Y-136533333D01*
X51835713Y-136485714D01*
X52026190Y-136485714D01*
X52121428Y-136533333D01*
X51692856Y-137104762D02*
X51788094Y-137152381D01*
X52026190Y-137152381D01*
X52121428Y-137104762D01*
X52169047Y-137009524D01*
X52169047Y-136914286D01*
X52121428Y-136819048D01*
X52026190Y-136771429D01*
X51788094Y-136771429D01*
X51692856Y-136723810D01*
X51026190Y-136152381D02*
X50930951Y-136152381D01*
X50835713Y-136200000D01*
X50788094Y-136247619D01*
X50740475Y-136342857D01*
X50692856Y-136533333D01*
X50692856Y-136771429D01*
X50740475Y-136961905D01*
X50788094Y-137057143D01*
X50835713Y-137104762D01*
X50930951Y-137152381D01*
X51026190Y-137152381D01*
X51121428Y-137104762D01*
X51169047Y-137057143D01*
X51216666Y-136961905D01*
X51264285Y-136771429D01*
X51264285Y-136533333D01*
X51216666Y-136342857D01*
X51169047Y-136247619D01*
X51121428Y-136200000D01*
X51026190Y-136152381D01*
X50216666Y-137152381D02*
X50026190Y-137152381D01*
X49930951Y-137104762D01*
X49883332Y-137057143D01*
X49788094Y-136914286D01*
X49740475Y-136723810D01*
X49740475Y-136342857D01*
X49788094Y-136247619D01*
X49835713Y-136200000D01*
X49930951Y-136152381D01*
X50121428Y-136152381D01*
X50216666Y-136200000D01*
X50264285Y-136247619D01*
X50311904Y-136342857D01*
X50311904Y-136580952D01*
X50264285Y-136676190D01*
X50216666Y-136723810D01*
X50121428Y-136771429D01*
X49930951Y-136771429D01*
X49835713Y-136723810D01*
X49788094Y-136676190D01*
X49740475Y-136580952D01*
X48835713Y-136152381D02*
X49311904Y-136152381D01*
X49359523Y-136628571D01*
X49311904Y-136580952D01*
X49216666Y-136533333D01*
X48978570Y-136533333D01*
X48883332Y-136580952D01*
X48835713Y-136628571D01*
X48788094Y-136723810D01*
X48788094Y-136961905D01*
X48835713Y-137057143D01*
X48883332Y-137104762D01*
X48978570Y-137152381D01*
X49216666Y-137152381D01*
X49311904Y-137104762D01*
X49359523Y-137057143D01*
X47930951Y-137152381D02*
X47930951Y-136628571D01*
X47978570Y-136533333D01*
X48073808Y-136485714D01*
X48264285Y-136485714D01*
X48359523Y-136533333D01*
X47930951Y-137104762D02*
X48026189Y-137152381D01*
X48264285Y-137152381D01*
X48359523Y-137104762D01*
X48407142Y-137009524D01*
X48407142Y-136914286D01*
X48359523Y-136819048D01*
X48264285Y-136771429D01*
X48026189Y-136771429D01*
X47930951Y-136723810D01*
X47073808Y-137104762D02*
X47169046Y-137152381D01*
X47359523Y-137152381D01*
X47454761Y-137104762D01*
X47502380Y-137009524D01*
X47502380Y-136628571D01*
X47454761Y-136533333D01*
X47359523Y-136485714D01*
X47169046Y-136485714D01*
X47073808Y-136533333D01*
X47026189Y-136628571D01*
X47026189Y-136723810D01*
X47502380Y-136819048D01*
X46169046Y-136485714D02*
X46169046Y-137152381D01*
X46407142Y-136104762D02*
X46645237Y-136819048D01*
X46026189Y-136819048D01*
X45454761Y-136152381D02*
X45359522Y-136152381D01*
X45264284Y-136200000D01*
X45216665Y-136247619D01*
X45169046Y-136342857D01*
X45121427Y-136533333D01*
X45121427Y-136771429D01*
X45169046Y-136961905D01*
X45216665Y-137057143D01*
X45264284Y-137104762D01*
X45359522Y-137152381D01*
X45454761Y-137152381D01*
X45549999Y-137104762D01*
X45597618Y-137057143D01*
X45645237Y-136961905D01*
X45692856Y-136771429D01*
X45692856Y-136533333D01*
X45645237Y-136342857D01*
X45597618Y-136247619D01*
X45549999Y-136200000D01*
X45454761Y-136152381D01*
X44264284Y-136485714D02*
X44264284Y-137152381D01*
X44502380Y-136104762D02*
X44740475Y-136819048D01*
X44121427Y-136819048D01*
X43788094Y-136247619D02*
X43740475Y-136200000D01*
X43645237Y-136152381D01*
X43407141Y-136152381D01*
X43311903Y-136200000D01*
X43264284Y-136247619D01*
X43216665Y-136342857D01*
X43216665Y-136438095D01*
X43264284Y-136580952D01*
X43835713Y-137152381D01*
X43216665Y-137152381D01*
D12*
X132635713Y-124100000D02*
X131921427Y-124100000D01*
X132778570Y-124528571D02*
X132278570Y-123028571D01*
X131778570Y-124528571D01*
X131278570Y-124528571D02*
X131278570Y-123528571D01*
X131278570Y-123814286D02*
X131207142Y-123671429D01*
X131135713Y-123600000D01*
X130992856Y-123528571D01*
X130849999Y-123528571D01*
X130564285Y-123528571D02*
X129992856Y-123528571D01*
X130349999Y-123028571D02*
X130349999Y-124314286D01*
X130278571Y-124457143D01*
X130135713Y-124528571D01*
X129992856Y-124528571D01*
X129492856Y-124528571D02*
X129492856Y-123528571D01*
X129492856Y-123028571D02*
X129564285Y-123100000D01*
X129492856Y-123171429D01*
X129421428Y-123100000D01*
X129492856Y-123028571D01*
X129492856Y-123171429D01*
X128921427Y-124528571D02*
X128135713Y-123528571D01*
X128921427Y-123528571D02*
X128135713Y-124528571D01*
X127564284Y-123957143D02*
X126421427Y-123957143D01*
X125849998Y-123028571D02*
X124849998Y-123028571D01*
X125492855Y-124528571D01*
X123135713Y-124528571D02*
X123135713Y-123028571D01*
X122564285Y-123028571D01*
X122421427Y-123100000D01*
X122349999Y-123171429D01*
X122278570Y-123314286D01*
X122278570Y-123528571D01*
X122349999Y-123671429D01*
X122421427Y-123742857D01*
X122564285Y-123814286D01*
X123135713Y-123814286D01*
X120778570Y-124385714D02*
X120849999Y-124457143D01*
X121064285Y-124528571D01*
X121207142Y-124528571D01*
X121421427Y-124457143D01*
X121564285Y-124314286D01*
X121635713Y-124171429D01*
X121707142Y-123885714D01*
X121707142Y-123671429D01*
X121635713Y-123385714D01*
X121564285Y-123242857D01*
X121421427Y-123100000D01*
X121207142Y-123028571D01*
X121064285Y-123028571D01*
X120849999Y-123100000D01*
X120778570Y-123171429D01*
X120135713Y-124528571D02*
X120135713Y-123028571D01*
X118849999Y-124457143D02*
X118992856Y-124528571D01*
X119278570Y-124528571D01*
X119421427Y-124457143D01*
X119492856Y-124314286D01*
X119492856Y-123742857D01*
X119421427Y-123600000D01*
X119278570Y-123528571D01*
X118992856Y-123528571D01*
X118849999Y-123600000D01*
X118778570Y-123742857D01*
X118778570Y-123885714D01*
X119492856Y-124028571D01*
X116992856Y-124528571D02*
X116992856Y-123028571D01*
X116635713Y-123028571D01*
X116421428Y-123100000D01*
X116278570Y-123242857D01*
X116207142Y-123385714D01*
X116135713Y-123671429D01*
X116135713Y-123885714D01*
X116207142Y-124171429D01*
X116278570Y-124314286D01*
X116421428Y-124457143D01*
X116635713Y-124528571D01*
X116992856Y-124528571D01*
X114921428Y-124457143D02*
X115064285Y-124528571D01*
X115349999Y-124528571D01*
X115492856Y-124457143D01*
X115564285Y-124314286D01*
X115564285Y-123742857D01*
X115492856Y-123600000D01*
X115349999Y-123528571D01*
X115064285Y-123528571D01*
X114921428Y-123600000D01*
X114849999Y-123742857D01*
X114849999Y-123885714D01*
X115564285Y-124028571D01*
X114349999Y-123528571D02*
X113992856Y-124528571D01*
X113635714Y-123528571D01*
X111421428Y-123742857D02*
X111207142Y-123814286D01*
X111135714Y-123885714D01*
X111064285Y-124028571D01*
X111064285Y-124242857D01*
X111135714Y-124385714D01*
X111207142Y-124457143D01*
X111350000Y-124528571D01*
X111921428Y-124528571D01*
X111921428Y-123028571D01*
X111421428Y-123028571D01*
X111278571Y-123100000D01*
X111207142Y-123171429D01*
X111135714Y-123314286D01*
X111135714Y-123457143D01*
X111207142Y-123600000D01*
X111278571Y-123671429D01*
X111421428Y-123742857D01*
X111921428Y-123742857D01*
X110207142Y-124528571D02*
X110350000Y-124457143D01*
X110421428Y-124385714D01*
X110492857Y-124242857D01*
X110492857Y-123814286D01*
X110421428Y-123671429D01*
X110350000Y-123600000D01*
X110207142Y-123528571D01*
X109992857Y-123528571D01*
X109850000Y-123600000D01*
X109778571Y-123671429D01*
X109707142Y-123814286D01*
X109707142Y-124242857D01*
X109778571Y-124385714D01*
X109850000Y-124457143D01*
X109992857Y-124528571D01*
X110207142Y-124528571D01*
X108421428Y-124528571D02*
X108421428Y-123742857D01*
X108492857Y-123600000D01*
X108635714Y-123528571D01*
X108921428Y-123528571D01*
X109064285Y-123600000D01*
X108421428Y-124457143D02*
X108564285Y-124528571D01*
X108921428Y-124528571D01*
X109064285Y-124457143D01*
X109135714Y-124314286D01*
X109135714Y-124171429D01*
X109064285Y-124028571D01*
X108921428Y-123957143D01*
X108564285Y-123957143D01*
X108421428Y-123885714D01*
X107707142Y-124528571D02*
X107707142Y-123528571D01*
X107707142Y-123814286D02*
X107635714Y-123671429D01*
X107564285Y-123600000D01*
X107421428Y-123528571D01*
X107278571Y-123528571D01*
X106135714Y-124528571D02*
X106135714Y-123028571D01*
X106135714Y-124457143D02*
X106278571Y-124528571D01*
X106564285Y-124528571D01*
X106707143Y-124457143D01*
X106778571Y-124385714D01*
X106850000Y-124242857D01*
X106850000Y-123814286D01*
X106778571Y-123671429D01*
X106707143Y-123600000D01*
X106564285Y-123528571D01*
X106278571Y-123528571D01*
X106135714Y-123600000D01*
X104492857Y-123028571D02*
X103992857Y-124528571D01*
X103492857Y-123028571D01*
X102207143Y-124528571D02*
X103064286Y-124528571D01*
X102635714Y-124528571D02*
X102635714Y-123028571D01*
X102778571Y-123242857D01*
X102921429Y-123385714D01*
X103064286Y-123457143D01*
X101564286Y-124385714D02*
X101492858Y-124457143D01*
X101564286Y-124528571D01*
X101635715Y-124457143D01*
X101564286Y-124385714D01*
X101564286Y-124528571D01*
X100564286Y-123028571D02*
X100421429Y-123028571D01*
X100278572Y-123100000D01*
X100207143Y-123171429D01*
X100135714Y-123314286D01*
X100064286Y-123600000D01*
X100064286Y-123957143D01*
X100135714Y-124242857D01*
X100207143Y-124385714D01*
X100278572Y-124457143D01*
X100421429Y-124528571D01*
X100564286Y-124528571D01*
X100707143Y-124457143D01*
X100778572Y-124385714D01*
X100850000Y-124242857D01*
X100921429Y-123957143D01*
X100921429Y-123600000D01*
X100850000Y-123314286D01*
X100778572Y-123171429D01*
X100707143Y-123100000D01*
X100564286Y-123028571D01*
X126028572Y-125428571D02*
X125671429Y-126928571D01*
X125385715Y-125857143D01*
X125100001Y-126928571D01*
X124742858Y-125428571D01*
X123671429Y-126142857D02*
X123457143Y-126214286D01*
X123385715Y-126285714D01*
X123314286Y-126428571D01*
X123314286Y-126642857D01*
X123385715Y-126785714D01*
X123457143Y-126857143D01*
X123600001Y-126928571D01*
X124171429Y-126928571D01*
X124171429Y-125428571D01*
X123671429Y-125428571D01*
X123528572Y-125500000D01*
X123457143Y-125571429D01*
X123385715Y-125714286D01*
X123385715Y-125857143D01*
X123457143Y-126000000D01*
X123528572Y-126071429D01*
X123671429Y-126142857D01*
X124171429Y-126142857D01*
X121814286Y-126928571D02*
X122314286Y-126214286D01*
X122671429Y-126928571D02*
X122671429Y-125428571D01*
X122100001Y-125428571D01*
X121957143Y-125500000D01*
X121885715Y-125571429D01*
X121814286Y-125714286D01*
X121814286Y-125928571D01*
X121885715Y-126071429D01*
X121957143Y-126142857D01*
X122100001Y-126214286D01*
X122671429Y-126214286D01*
X121242858Y-126500000D02*
X120528572Y-126500000D01*
X121385715Y-126928571D02*
X120885715Y-125428571D01*
X120385715Y-126928571D01*
X119885715Y-125428571D02*
X119885715Y-126642857D01*
X119814287Y-126785714D01*
X119742858Y-126857143D01*
X119600001Y-126928571D01*
X119314287Y-126928571D01*
X119171429Y-126857143D01*
X119100001Y-126785714D01*
X119028572Y-126642857D01*
X119028572Y-125428571D01*
X118314286Y-126928571D02*
X118314286Y-125428571D01*
X117457143Y-126928571D01*
X117457143Y-125428571D01*
X115814286Y-126214286D02*
X115885714Y-126142857D01*
X116028571Y-126071429D01*
X116171429Y-126071429D01*
X116314286Y-126142857D01*
X116385714Y-126214286D01*
X116457143Y-126357143D01*
X116457143Y-126500000D01*
X116385714Y-126642857D01*
X116314286Y-126714286D01*
X116171429Y-126785714D01*
X116028571Y-126785714D01*
X115885714Y-126714286D01*
X115814286Y-126642857D01*
X115814286Y-126071429D02*
X115814286Y-126642857D01*
X115742857Y-126714286D01*
X115671429Y-126714286D01*
X115528571Y-126642857D01*
X115457143Y-126500000D01*
X115457143Y-126142857D01*
X115600000Y-125928571D01*
X115814286Y-125785714D01*
X116100000Y-125714286D01*
X116385714Y-125785714D01*
X116600000Y-125928571D01*
X116742857Y-126142857D01*
X116814286Y-126428571D01*
X116742857Y-126714286D01*
X116600000Y-126928571D01*
X116385714Y-127071429D01*
X116100000Y-127142857D01*
X115814286Y-127071429D01*
X115600000Y-126928571D01*
X114814286Y-126928571D02*
X114814286Y-125428571D01*
X114314286Y-126500000D01*
X113814286Y-125428571D01*
X113814286Y-126928571D01*
X113100000Y-126928571D02*
X113100000Y-125428571D01*
X112600000Y-125428571D02*
X111742857Y-125428571D01*
X112171428Y-126928571D02*
X112171428Y-125428571D01*
X111242857Y-126785714D02*
X111171429Y-126857143D01*
X111242857Y-126928571D01*
X111314286Y-126857143D01*
X111242857Y-126785714D01*
X111242857Y-126928571D01*
X110528571Y-126142857D02*
X110028571Y-126142857D01*
X109814285Y-126928571D02*
X110528571Y-126928571D01*
X110528571Y-125428571D01*
X109814285Y-125428571D01*
X109171428Y-126928571D02*
X109171428Y-125428571D01*
X108814285Y-125428571D01*
X108600000Y-125500000D01*
X108457142Y-125642857D01*
X108385714Y-125785714D01*
X108314285Y-126071429D01*
X108314285Y-126285714D01*
X108385714Y-126571429D01*
X108457142Y-126714286D01*
X108600000Y-126857143D01*
X108814285Y-126928571D01*
X109171428Y-126928571D01*
X107671428Y-125428571D02*
X107671428Y-126642857D01*
X107600000Y-126785714D01*
X107528571Y-126857143D01*
X107385714Y-126928571D01*
X107100000Y-126928571D01*
X106957142Y-126857143D01*
X106885714Y-126785714D01*
X106814285Y-126642857D01*
X106814285Y-125428571D01*
D13*
X107150000Y-138250000D02*
X141850000Y-138250000D01*
X107150000Y-155000000D02*
X107150000Y-138250000D01*
X99950000Y-155000000D02*
X107150000Y-155000000D01*
X99950000Y-146500000D02*
X99950000Y-155000000D01*
X98050000Y-146500000D02*
X99950000Y-146500000D01*
X98050000Y-155000000D02*
X98050000Y-146500000D01*
X86850000Y-155000000D02*
X98050000Y-155000000D01*
X86850000Y-138250000D02*
X86850000Y-155000000D01*
X56850000Y-138250000D02*
X86850000Y-138250000D01*
X56850000Y-146500000D02*
X56850000Y-138250000D01*
X41850000Y-146500000D02*
X56850000Y-146500000D01*
X41850000Y-39850000D02*
X41850000Y-146500000D01*
X141850000Y-39850000D02*
X41850000Y-39850000D01*
X141850000Y-138250000D02*
X141850000Y-39850000D01*
D14*
X105250000Y-90475000D02*
X104750000Y-90475000D01*
X104750000Y-89525000D02*
X105250000Y-89525000D01*
X74475000Y-113000000D02*
X74475000Y-112500000D01*
X75525000Y-112500000D02*
X75525000Y-113000000D01*
X64475000Y-113000000D02*
X64475000Y-112500000D01*
X65525000Y-112500000D02*
X65525000Y-113000000D01*
X66975000Y-113000000D02*
X66975000Y-112500000D01*
X68025000Y-112500000D02*
X68025000Y-113000000D01*
X69475000Y-113000000D02*
X69475000Y-112500000D01*
X70525000Y-112500000D02*
X70525000Y-113000000D01*
X71975000Y-113000000D02*
X71975000Y-112500000D01*
X73025000Y-112500000D02*
X73025000Y-113000000D01*
X102250000Y-90975000D02*
X102750000Y-90975000D01*
X102750000Y-92025000D02*
X102250000Y-92025000D01*
X78175000Y-122000000D02*
X78175000Y-121000000D01*
X76825000Y-121000000D02*
X76825000Y-122000000D01*
X75325000Y-123750000D02*
X75325000Y-124750000D01*
X76675000Y-124750000D02*
X76675000Y-123750000D01*
X105000000Y-86825000D02*
X104000000Y-86825000D01*
X104000000Y-88175000D02*
X105000000Y-88175000D01*
X76950000Y-126725000D02*
X76450000Y-126725000D01*
X76450000Y-125775000D02*
X76950000Y-125775000D01*
X79725000Y-121500000D02*
X79725000Y-122000000D01*
X78775000Y-122000000D02*
X78775000Y-121500000D01*
X77275000Y-124500000D02*
X77275000Y-124000000D01*
X78225000Y-124000000D02*
X78225000Y-124500000D01*
X78775000Y-124750000D02*
X78775000Y-124250000D01*
X79725000Y-124250000D02*
X79725000Y-124750000D01*
X75275000Y-121750000D02*
X75275000Y-121250000D01*
X76225000Y-121250000D02*
X76225000Y-121750000D01*
X107250000Y-86475000D02*
X106750000Y-86475000D01*
X106750000Y-85525000D02*
X107250000Y-85525000D01*
X99750000Y-87525000D02*
X100250000Y-87525000D01*
X100250000Y-88475000D02*
X99750000Y-88475000D01*
X120250000Y-79475000D02*
X119750000Y-79475000D01*
X119750000Y-78525000D02*
X120250000Y-78525000D01*
X118250000Y-94475000D02*
X117750000Y-94475000D01*
X117750000Y-93525000D02*
X118250000Y-93525000D01*
X110975000Y-89250000D02*
X110975000Y-89750000D01*
X110025000Y-89750000D02*
X110025000Y-89250000D01*
X110250000Y-87975000D02*
X109750000Y-87975000D01*
X109750000Y-87025000D02*
X110250000Y-87025000D01*
X107250000Y-87975000D02*
X106750000Y-87975000D01*
X106750000Y-87025000D02*
X107250000Y-87025000D01*
X99025000Y-91750000D02*
X99025000Y-91250000D01*
X99975000Y-91250000D02*
X99975000Y-91750000D01*
X109250000Y-83525000D02*
X109750000Y-83525000D01*
X109750000Y-84475000D02*
X109250000Y-84475000D01*
X109750000Y-97525000D02*
X110250000Y-97525000D01*
X110250000Y-98475000D02*
X109750000Y-98475000D01*
X102750000Y-85525000D02*
X103250000Y-85525000D01*
X103250000Y-86475000D02*
X102750000Y-86475000D01*
X101025000Y-95750000D02*
X101025000Y-95250000D01*
X101975000Y-95250000D02*
X101975000Y-95750000D01*
X101250000Y-85475000D02*
X100750000Y-85475000D01*
X100750000Y-84525000D02*
X101250000Y-84525000D01*
X119250000Y-97475000D02*
X118750000Y-97475000D01*
X118750000Y-96525000D02*
X119250000Y-96525000D01*
X105250000Y-98475000D02*
X104750000Y-98475000D01*
X104750000Y-97525000D02*
X105250000Y-97525000D01*
X108250000Y-97475000D02*
X107750000Y-97475000D01*
X107750000Y-96525000D02*
X108250000Y-96525000D01*
X115250000Y-95475000D02*
X114750000Y-95475000D01*
X114750000Y-94525000D02*
X115250000Y-94525000D01*
X113250000Y-87975000D02*
X112750000Y-87975000D01*
X112750000Y-87025000D02*
X113250000Y-87025000D01*
X107250000Y-83475000D02*
X106750000Y-83475000D01*
X106750000Y-82525000D02*
X107250000Y-82525000D01*
X100750000Y-79525000D02*
X101250000Y-79525000D01*
X101250000Y-80475000D02*
X100750000Y-80475000D01*
X111750000Y-79525000D02*
X112250000Y-79525000D01*
X112250000Y-80475000D02*
X111750000Y-80475000D01*
X114025000Y-89750000D02*
X114025000Y-89250000D01*
X114975000Y-89250000D02*
X114975000Y-89750000D01*
X104250000Y-84475000D02*
X103750000Y-84475000D01*
X103750000Y-83525000D02*
X104250000Y-83525000D01*
X113250000Y-78475000D02*
X112750000Y-78475000D01*
X112750000Y-77525000D02*
X113250000Y-77525000D01*
X112750000Y-82525000D02*
X113250000Y-82525000D01*
X113250000Y-83475000D02*
X112750000Y-83475000D01*
X100750000Y-92525000D02*
X101250000Y-92525000D01*
X101250000Y-93475000D02*
X100750000Y-93475000D01*
X106750000Y-91525000D02*
X107250000Y-91525000D01*
X107250000Y-92475000D02*
X106750000Y-92475000D01*
X116250000Y-87975000D02*
X115750000Y-87975000D01*
X115750000Y-87025000D02*
X116250000Y-87025000D01*
X112025000Y-89750000D02*
X112025000Y-89250000D01*
X112975000Y-89250000D02*
X112975000Y-89750000D01*
X104975000Y-91250000D02*
X104975000Y-91750000D01*
X104025000Y-91750000D02*
X104025000Y-91250000D01*
X106975000Y-89250000D02*
X106975000Y-89750000D01*
X106025000Y-89750000D02*
X106025000Y-89250000D01*
X103250000Y-81475000D02*
X102750000Y-81475000D01*
X102750000Y-80525000D02*
X103250000Y-80525000D01*
X116250000Y-98475000D02*
X115750000Y-98475000D01*
X115750000Y-97525000D02*
X116250000Y-97525000D01*
X112750000Y-91525000D02*
X113250000Y-91525000D01*
X113250000Y-92475000D02*
X112750000Y-92475000D01*
X107250000Y-84975000D02*
X106750000Y-84975000D01*
X106750000Y-84025000D02*
X107250000Y-84025000D01*
X118250000Y-83475000D02*
X117750000Y-83475000D01*
X117750000Y-82525000D02*
X118250000Y-82525000D01*
X110250000Y-92475000D02*
X109750000Y-92475000D01*
X109750000Y-91525000D02*
X110250000Y-91525000D01*
X106250000Y-80475000D02*
X105750000Y-80475000D01*
X105750000Y-79525000D02*
X106250000Y-79525000D01*
X117250000Y-92475000D02*
X116750000Y-92475000D01*
X116750000Y-91525000D02*
X117250000Y-91525000D01*
X97025000Y-81250000D02*
X97025000Y-80750000D01*
X97975000Y-80750000D02*
X97975000Y-81250000D01*
X108025000Y-89750000D02*
X108025000Y-89250000D01*
X108975000Y-89250000D02*
X108975000Y-89750000D01*
X117250000Y-80475000D02*
X116750000Y-80475000D01*
X116750000Y-79525000D02*
X117250000Y-79525000D01*
X107500000Y-80775000D02*
X108000000Y-80775000D01*
X108000000Y-81725000D02*
X107500000Y-81725000D01*
X95525000Y-78500000D02*
X95525000Y-78000000D01*
X96475000Y-78000000D02*
X96475000Y-78500000D01*
X107250000Y-94475000D02*
X106750000Y-94475000D01*
X106750000Y-93525000D02*
X107250000Y-93525000D01*
X100000000Y-83225000D02*
X99500000Y-83225000D01*
X99500000Y-82275000D02*
X100000000Y-82275000D01*
X95525000Y-81250000D02*
X95525000Y-80750000D01*
X96475000Y-80750000D02*
X96475000Y-81250000D01*
X112250000Y-96475000D02*
X111750000Y-96475000D01*
X111750000Y-95525000D02*
X112250000Y-95525000D01*
X97025000Y-78500000D02*
X97025000Y-78000000D01*
X97975000Y-78000000D02*
X97975000Y-78500000D01*
X118500000Y-80775000D02*
X119000000Y-80775000D01*
X119000000Y-81725000D02*
X118500000Y-81725000D01*
M02*
