G04 #@! TF.FileFunction,Paste,Top*
%FSLAX46Y46*%
G04 Gerber Fmt 4.6, Leading zero omitted, Abs format (unit mm)*
G04 Created by KiCad (PCBNEW 4.0.1-stable) date Monday, January 04, 2016 'PMt' 02:13:11 PM*
%MOMM*%
G01*
G04 APERTURE LIST*
%ADD10C,0.100000*%
%ADD11R,1.198880X1.198880*%
%ADD12R,0.620000X1.220000*%
%ADD13R,1.250000X1.000000*%
%ADD14C,0.635000*%
%ADD15R,0.400000X0.600000*%
%ADD16R,0.600000X0.500000*%
%ADD17R,0.900000X0.500000*%
%ADD18R,1.000000X1.250000*%
%ADD19R,0.500000X0.600000*%
%ADD20R,0.600000X0.400000*%
%ADD21C,0.530000*%
%ADD22O,0.250000X0.800000*%
%ADD23O,0.800000X0.250000*%
%ADD24R,0.750000X0.750000*%
%ADD25R,0.500000X0.300000*%
%ADD26R,0.540000X0.528000*%
%ADD27R,1.300000X1.600000*%
%ADD28R,3.400000X4.000000*%
%ADD29R,0.750000X0.500000*%
%ADD30R,1.500000X0.850000*%
%ADD31R,0.850000X1.500000*%
%ADD32R,2.000000X0.500000*%
%ADD33R,0.299720X1.600200*%
%ADD34R,0.701040X1.600200*%
%ADD35R,1.600200X3.098800*%
%ADD36R,2.430000X2.370000*%
%ADD37C,0.300000*%
%ADD38R,0.200000X0.300000*%
%ADD39R,0.300000X0.500000*%
%ADD40R,0.300000X0.200000*%
%ADD41O,0.787000X0.787000*%
G04 APERTURE END LIST*
D10*
D11*
X136200980Y-60500000D03*
X138299020Y-60500000D03*
X111250000Y-114700980D03*
X111250000Y-116799020D03*
X114250000Y-114700980D03*
X114250000Y-116799020D03*
X117250000Y-114700980D03*
X117250000Y-116799020D03*
X120250000Y-114700980D03*
X120250000Y-116799020D03*
D12*
X104050000Y-107810000D03*
X105000000Y-107810000D03*
X105950000Y-107810000D03*
X105950000Y-105190000D03*
X104050000Y-105190000D03*
D13*
X61500000Y-90000000D03*
X61500000Y-88000000D03*
D14*
X58540000Y-89540000D03*
X58540000Y-88270000D03*
X58540000Y-87000000D03*
X58540000Y-85730000D03*
X58540000Y-84460000D03*
X57270000Y-89540000D03*
X57270000Y-88270000D03*
X57270000Y-87000000D03*
X57270000Y-85730000D03*
X57270000Y-84460000D03*
X56000000Y-89540000D03*
X56000000Y-88270000D03*
X56000000Y-87000000D03*
X56000000Y-85730000D03*
X56000000Y-84460000D03*
X54730000Y-89540000D03*
X54730000Y-88270000D03*
X54730000Y-87000000D03*
X54730000Y-85730000D03*
X54730000Y-84460000D03*
X53460000Y-89540000D03*
X53460000Y-88270000D03*
X53460000Y-87000000D03*
X53460000Y-85730000D03*
X53460000Y-84460000D03*
D13*
X61500000Y-84000000D03*
X61500000Y-86000000D03*
D15*
X53800000Y-82000000D03*
X54700000Y-82000000D03*
D16*
X56450000Y-82000000D03*
X57550000Y-82000000D03*
D13*
X63500000Y-100250000D03*
X63500000Y-98250000D03*
D17*
X63500000Y-103750000D03*
X63500000Y-102250000D03*
D13*
X64750000Y-70750000D03*
X64750000Y-72750000D03*
X61750000Y-77000000D03*
X61750000Y-75000000D03*
D18*
X57250000Y-79250000D03*
X55250000Y-79250000D03*
X55250000Y-96250000D03*
X53250000Y-96250000D03*
D16*
X56200000Y-69250000D03*
X57300000Y-69250000D03*
D13*
X64750000Y-77000000D03*
X64750000Y-75000000D03*
X60500000Y-98250000D03*
X60500000Y-100250000D03*
D17*
X60500000Y-102250000D03*
X60500000Y-103750000D03*
D13*
X61750000Y-70750000D03*
X61750000Y-72750000D03*
D19*
X52500000Y-79200000D03*
X52500000Y-80300000D03*
D14*
X58540000Y-76540000D03*
X58540000Y-75270000D03*
X58540000Y-74000000D03*
X58540000Y-72730000D03*
X58540000Y-71460000D03*
X57270000Y-76540000D03*
X57270000Y-75270000D03*
X57270000Y-74000000D03*
X57270000Y-72730000D03*
X57270000Y-71460000D03*
X56000000Y-76540000D03*
X56000000Y-75270000D03*
X56000000Y-74000000D03*
X56000000Y-72730000D03*
X56000000Y-71460000D03*
X54730000Y-76540000D03*
X54730000Y-75270000D03*
X54730000Y-74000000D03*
X54730000Y-72730000D03*
X54730000Y-71460000D03*
X53460000Y-76540000D03*
X53460000Y-75270000D03*
X53460000Y-74000000D03*
X53460000Y-72730000D03*
X53460000Y-71460000D03*
D20*
X50750000Y-74050000D03*
X50750000Y-74950000D03*
X50750000Y-72450000D03*
X50750000Y-71550000D03*
X50750000Y-80200000D03*
X50750000Y-79300000D03*
D15*
X51800000Y-92250000D03*
X52700000Y-92250000D03*
X52650000Y-94000000D03*
X51750000Y-94000000D03*
X59050000Y-94000000D03*
X59950000Y-94000000D03*
D18*
X57000000Y-92500000D03*
X55000000Y-92500000D03*
D15*
X59950000Y-92250000D03*
X59050000Y-92250000D03*
D21*
X99500000Y-98000000D03*
X99500000Y-97000000D03*
X99500000Y-96000000D03*
X99500000Y-95000000D03*
X99500000Y-94000000D03*
X99500000Y-93000000D03*
X99500000Y-92000000D03*
X99500000Y-91000000D03*
X99500000Y-90000000D03*
X99500000Y-89000000D03*
X99500000Y-88000000D03*
X99500000Y-87000000D03*
X99500000Y-86000000D03*
X99500000Y-85000000D03*
X99500000Y-84000000D03*
X99500000Y-83000000D03*
X99500000Y-82000000D03*
X99500000Y-81000000D03*
X99500000Y-80000000D03*
X99500000Y-79000000D03*
X99500000Y-78000000D03*
X99500000Y-77000000D03*
X100500000Y-98000000D03*
X100500000Y-97000000D03*
X100500000Y-96000000D03*
X100500000Y-95000000D03*
X101500000Y-95000000D03*
X101500000Y-96000000D03*
X101500000Y-97000000D03*
X100500000Y-94000000D03*
X101500000Y-94000000D03*
X101500000Y-98000000D03*
X102500000Y-98000000D03*
X102500000Y-97000000D03*
X103500000Y-97000000D03*
X103500000Y-98000000D03*
X104500000Y-98000000D03*
X104500000Y-97000000D03*
X105500000Y-97000000D03*
X105500000Y-98000000D03*
X106500000Y-98000000D03*
X106500000Y-97000000D03*
X107500000Y-97000000D03*
X107500000Y-98000000D03*
X102500000Y-96000000D03*
X102500000Y-95000000D03*
X102500000Y-94000000D03*
X103500000Y-94000000D03*
X103500000Y-95000000D03*
X103500000Y-96000000D03*
X104500000Y-96000000D03*
X104500000Y-95000000D03*
X104500000Y-94000000D03*
X105500000Y-96000000D03*
X105500000Y-95000000D03*
X105500000Y-94000000D03*
X106500000Y-94000000D03*
X106500000Y-95000000D03*
X106500000Y-96000000D03*
X107500000Y-96000000D03*
X107500000Y-95000000D03*
X107500000Y-94000000D03*
X108500000Y-94000000D03*
X108500000Y-95000000D03*
X108500000Y-96000000D03*
X108500000Y-97000000D03*
X108500000Y-98000000D03*
X109500000Y-98000000D03*
X109500000Y-97000000D03*
X109500000Y-96000000D03*
X109500000Y-95000000D03*
X109500000Y-94000000D03*
X110500000Y-98000000D03*
X110500000Y-97000000D03*
X110500000Y-96000000D03*
X110500000Y-95000000D03*
X110500000Y-94000000D03*
X111500000Y-94000000D03*
X111500000Y-95000000D03*
X111500000Y-96000000D03*
X111500000Y-97000000D03*
X111500000Y-98000000D03*
X112500000Y-98000000D03*
X112500000Y-97000000D03*
X113500000Y-97000000D03*
X113500000Y-98000000D03*
X114500000Y-98000000D03*
X114500000Y-97000000D03*
X115500000Y-97000000D03*
X115500000Y-98000000D03*
X116500000Y-98000000D03*
X116500000Y-97000000D03*
X117500000Y-97000000D03*
X117500000Y-98000000D03*
X118500000Y-98000000D03*
X118500000Y-97000000D03*
X119500000Y-97000000D03*
X119500000Y-98000000D03*
X120500000Y-98000000D03*
X120500000Y-97000000D03*
X120500000Y-96000000D03*
X120500000Y-95000000D03*
X120500000Y-94000000D03*
X120500000Y-93000000D03*
X120500000Y-92000000D03*
X119500000Y-96000000D03*
X119500000Y-95000000D03*
X119500000Y-94000000D03*
X119500000Y-93000000D03*
X119500000Y-92000000D03*
X119500000Y-91000000D03*
X119500000Y-90000000D03*
X119500000Y-89000000D03*
X119500000Y-88000000D03*
X119500000Y-87000000D03*
X119500000Y-86000000D03*
X120500000Y-86000000D03*
X120500000Y-87000000D03*
X120500000Y-88000000D03*
X120500000Y-89000000D03*
X120500000Y-90000000D03*
X120500000Y-91000000D03*
X119500000Y-85000000D03*
X119500000Y-84000000D03*
X119500000Y-83000000D03*
X119500000Y-82000000D03*
X119500000Y-81000000D03*
X119500000Y-80000000D03*
X119500000Y-79000000D03*
X119500000Y-78000000D03*
X119500000Y-77000000D03*
X120500000Y-77000000D03*
X120500000Y-78000000D03*
X120500000Y-79000000D03*
X120500000Y-80000000D03*
X120500000Y-81000000D03*
X120500000Y-82000000D03*
X120500000Y-83000000D03*
X120500000Y-84000000D03*
X120500000Y-85000000D03*
X118500000Y-78000000D03*
X118500000Y-77000000D03*
X117500000Y-77000000D03*
X117500000Y-78000000D03*
X116500000Y-78000000D03*
X116500000Y-77000000D03*
X115500000Y-77000000D03*
X115500000Y-78000000D03*
X114500000Y-78000000D03*
X114500000Y-77000000D03*
X113500000Y-78000000D03*
X113500000Y-77000000D03*
X112500000Y-77000000D03*
X112500000Y-78000000D03*
X111500000Y-78000000D03*
X111500000Y-77000000D03*
X110500000Y-77000000D03*
X110500000Y-78000000D03*
X109500000Y-78000000D03*
X109500000Y-77000000D03*
X108500000Y-77000000D03*
X108500000Y-78000000D03*
X107500000Y-78000000D03*
X107500000Y-77000000D03*
X100500000Y-93000000D03*
X100500000Y-92000000D03*
X100500000Y-91000000D03*
X100500000Y-90000000D03*
X100500000Y-89000000D03*
X100500000Y-88000000D03*
X100500000Y-87000000D03*
X100500000Y-86000000D03*
X100500000Y-85000000D03*
X100500000Y-84000000D03*
X100500000Y-83000000D03*
X100500000Y-82000000D03*
X100500000Y-81000000D03*
X100500000Y-80000000D03*
X100500000Y-79000000D03*
X100500000Y-78000000D03*
X100500000Y-77000000D03*
X101500000Y-77000000D03*
X101500000Y-78000000D03*
X102500000Y-78000000D03*
X102500000Y-77000000D03*
X103500000Y-77000000D03*
X103500000Y-78000000D03*
X104500000Y-78000000D03*
X104500000Y-77000000D03*
X105500000Y-77000000D03*
X105500000Y-78000000D03*
X106500000Y-78000000D03*
X106500000Y-77000000D03*
X101500000Y-93000000D03*
X101500000Y-92000000D03*
X101500000Y-91000000D03*
X101500000Y-90000000D03*
X101500000Y-89000000D03*
X101500000Y-88000000D03*
X101500000Y-87000000D03*
X101500000Y-86000000D03*
X101500000Y-85000000D03*
X101500000Y-84000000D03*
X101500000Y-83000000D03*
X101500000Y-82000000D03*
X101500000Y-81000000D03*
X101500000Y-80000000D03*
X101500000Y-79000000D03*
X102500000Y-79000000D03*
X103500000Y-79000000D03*
X104500000Y-79000000D03*
X105500000Y-79000000D03*
X106500000Y-79000000D03*
X112500000Y-96000000D03*
X113500000Y-96000000D03*
X114500000Y-96000000D03*
X115500000Y-96000000D03*
X116500000Y-96000000D03*
X117500000Y-96000000D03*
X118500000Y-96000000D03*
X118500000Y-95000000D03*
X118500000Y-94000000D03*
X118500000Y-93000000D03*
X118500000Y-92000000D03*
X118500000Y-91000000D03*
X118500000Y-90000000D03*
X118500000Y-89000000D03*
X118500000Y-88000000D03*
X118500000Y-87000000D03*
X118500000Y-86000000D03*
X118500000Y-85000000D03*
X118500000Y-84000000D03*
X118500000Y-83000000D03*
X118500000Y-82000000D03*
X118500000Y-81000000D03*
X118500000Y-80000000D03*
X118500000Y-79000000D03*
X117500000Y-79000000D03*
X116500000Y-79000000D03*
X115500000Y-79000000D03*
X114500000Y-79000000D03*
X113500000Y-79000000D03*
X112500000Y-79000000D03*
X111500000Y-79000000D03*
X110500000Y-79000000D03*
X109500000Y-79000000D03*
X108500000Y-79000000D03*
X107500000Y-79000000D03*
X112500000Y-95000000D03*
X112500000Y-94000000D03*
X113500000Y-95000000D03*
X113500000Y-94000000D03*
X114500000Y-95000000D03*
X114500000Y-94000000D03*
X115500000Y-95000000D03*
X115500000Y-94000000D03*
X116500000Y-95000000D03*
X116500000Y-94000000D03*
X117500000Y-94000000D03*
X117500000Y-95000000D03*
X116500000Y-93000000D03*
X117500000Y-93000000D03*
X117500000Y-92000000D03*
X116500000Y-92000000D03*
X116500000Y-91000000D03*
X117500000Y-91000000D03*
X117500000Y-90000000D03*
X116500000Y-90000000D03*
X116500000Y-89000000D03*
X116500000Y-88000000D03*
X117500000Y-88000000D03*
X117500000Y-89000000D03*
X116500000Y-87000000D03*
X117500000Y-87000000D03*
X116500000Y-86000000D03*
X117500000Y-86000000D03*
X117500000Y-85000000D03*
X116500000Y-85000000D03*
X116500000Y-84000000D03*
X117500000Y-84000000D03*
X117500000Y-83000000D03*
X116500000Y-83000000D03*
X116500000Y-82000000D03*
X116500000Y-81000000D03*
X116500000Y-80000000D03*
X115500000Y-80000000D03*
X115500000Y-81000000D03*
X114500000Y-81000000D03*
X114500000Y-80000000D03*
X117500000Y-80000000D03*
X117500000Y-81000000D03*
X117500000Y-82000000D03*
X113500000Y-81000000D03*
X113500000Y-80000000D03*
X112500000Y-81000000D03*
X112500000Y-80000000D03*
X111500000Y-80000000D03*
X111500000Y-81000000D03*
X110500000Y-81000000D03*
X110500000Y-80000000D03*
X109500000Y-80000000D03*
X109500000Y-81000000D03*
X108500000Y-81000000D03*
X108500000Y-80000000D03*
X107500000Y-80000000D03*
X107500000Y-81000000D03*
X106500000Y-81000000D03*
X106500000Y-80000000D03*
X105500000Y-80000000D03*
X105500000Y-81000000D03*
X104500000Y-81000000D03*
X104500000Y-80000000D03*
X103500000Y-80000000D03*
X102500000Y-80000000D03*
X102500000Y-81000000D03*
X103500000Y-81000000D03*
X103500000Y-82000000D03*
X102500000Y-82000000D03*
X102500000Y-83000000D03*
X103500000Y-83000000D03*
X103500000Y-84000000D03*
X102500000Y-84000000D03*
X102500000Y-85000000D03*
X103500000Y-85000000D03*
X103500000Y-86000000D03*
X102500000Y-86000000D03*
X102500000Y-87000000D03*
X103500000Y-87000000D03*
X103500000Y-88000000D03*
X102500000Y-88000000D03*
X102500000Y-89000000D03*
X103500000Y-89000000D03*
X103500000Y-90000000D03*
X102500000Y-90000000D03*
X102500000Y-91000000D03*
X103500000Y-91000000D03*
X103500000Y-92000000D03*
X102500000Y-92000000D03*
X102500000Y-93000000D03*
X103500000Y-93000000D03*
X104500000Y-93000000D03*
X104500000Y-92000000D03*
X105500000Y-92000000D03*
X105500000Y-93000000D03*
X106500000Y-93000000D03*
X106500000Y-92000000D03*
X107500000Y-92000000D03*
X107500000Y-93000000D03*
X108500000Y-93000000D03*
X108500000Y-92000000D03*
X109500000Y-92000000D03*
X109500000Y-93000000D03*
X110500000Y-93000000D03*
X110500000Y-92000000D03*
X111500000Y-92000000D03*
X111500000Y-93000000D03*
X112500000Y-93000000D03*
X112500000Y-92000000D03*
X113500000Y-92000000D03*
X113500000Y-93000000D03*
X114500000Y-93000000D03*
X115500000Y-93000000D03*
X115500000Y-92000000D03*
X114500000Y-92000000D03*
X114500000Y-91000000D03*
X115500000Y-91000000D03*
X115500000Y-90000000D03*
X114500000Y-90000000D03*
X114500000Y-89000000D03*
X115500000Y-89000000D03*
X115500000Y-88000000D03*
X114500000Y-88000000D03*
X114500000Y-87000000D03*
X115500000Y-87000000D03*
X115500000Y-86000000D03*
X114500000Y-86000000D03*
X114500000Y-85000000D03*
X115500000Y-85000000D03*
X115500000Y-84000000D03*
X114500000Y-84000000D03*
X114500000Y-83000000D03*
X115500000Y-83000000D03*
X115500000Y-82000000D03*
X114500000Y-82000000D03*
X113500000Y-82000000D03*
X113500000Y-83000000D03*
X112500000Y-83000000D03*
X112500000Y-82000000D03*
X111500000Y-82000000D03*
X111500000Y-83000000D03*
X110500000Y-83000000D03*
X110500000Y-82000000D03*
X109500000Y-82000000D03*
X109500000Y-83000000D03*
X108500000Y-83000000D03*
X108500000Y-82000000D03*
X107500000Y-82000000D03*
X107500000Y-83000000D03*
X106500000Y-83000000D03*
X106500000Y-82000000D03*
X105500000Y-82000000D03*
X104500000Y-82000000D03*
X104500000Y-83000000D03*
X105500000Y-83000000D03*
X105500000Y-84000000D03*
X104500000Y-84000000D03*
X104500000Y-85000000D03*
X105500000Y-85000000D03*
X105500000Y-86000000D03*
X104500000Y-86000000D03*
X104500000Y-87000000D03*
X105500000Y-87000000D03*
X105500000Y-88000000D03*
X104500000Y-88000000D03*
X104500000Y-89000000D03*
X105500000Y-89000000D03*
X105500000Y-90000000D03*
X104500000Y-90000000D03*
X104500000Y-91000000D03*
X105500000Y-91000000D03*
X106500000Y-91000000D03*
X106500000Y-90000000D03*
X106500000Y-89000000D03*
X106500000Y-88000000D03*
X106500000Y-87000000D03*
X106500000Y-86000000D03*
X106500000Y-85000000D03*
X106500000Y-84000000D03*
X107500000Y-84000000D03*
X107500000Y-85000000D03*
X107500000Y-86000000D03*
X107500000Y-87000000D03*
X107500000Y-88000000D03*
X107500000Y-89000000D03*
X107500000Y-91000000D03*
X107500000Y-90000000D03*
X108500000Y-91000000D03*
X108500000Y-90000000D03*
X109500000Y-90000000D03*
X109500000Y-91000000D03*
X110500000Y-91000000D03*
X110500000Y-90000000D03*
X111500000Y-91000000D03*
X111500000Y-90000000D03*
X112500000Y-90000000D03*
X112500000Y-91000000D03*
X113500000Y-91000000D03*
X113500000Y-90000000D03*
X113500000Y-89000000D03*
X113500000Y-88000000D03*
X112500000Y-88000000D03*
X112500000Y-89000000D03*
X111500000Y-89000000D03*
X111500000Y-88000000D03*
X111500000Y-87000000D03*
X112500000Y-87000000D03*
X113500000Y-87000000D03*
X113500000Y-86000000D03*
X112500000Y-86000000D03*
X111500000Y-86000000D03*
X111500000Y-85000000D03*
X111500000Y-84000000D03*
X112500000Y-84000000D03*
X112500000Y-85000000D03*
X113500000Y-85000000D03*
X113500000Y-84000000D03*
X110500000Y-84000000D03*
X109500000Y-84000000D03*
X108500000Y-84000000D03*
X108500000Y-85000000D03*
X109500000Y-85000000D03*
X110500000Y-85000000D03*
X110500000Y-86000000D03*
X109500000Y-86000000D03*
X108500000Y-86000000D03*
X108500000Y-87000000D03*
X108500000Y-88000000D03*
X108500000Y-89000000D03*
X109500000Y-89000000D03*
X109500000Y-88000000D03*
X109500000Y-87000000D03*
X110500000Y-87000000D03*
X110500000Y-88000000D03*
X110500000Y-89000000D03*
D22*
X73175000Y-62700000D03*
X73675000Y-62700000D03*
X74175000Y-62700000D03*
X74675000Y-62700000D03*
X75175000Y-62700000D03*
X75675000Y-62700000D03*
D23*
X76375000Y-62000000D03*
X76375000Y-61500000D03*
X76375000Y-61000000D03*
X76375000Y-60500000D03*
X76375000Y-60000000D03*
X76375000Y-59500000D03*
D22*
X75675000Y-58800000D03*
X75175000Y-58800000D03*
X74675000Y-58800000D03*
X74175000Y-58800000D03*
X73675000Y-58800000D03*
X73175000Y-58800000D03*
D23*
X72475000Y-59500000D03*
X72475000Y-60000000D03*
X72475000Y-60500000D03*
X72475000Y-61000000D03*
X72475000Y-61500000D03*
X72475000Y-62000000D03*
D24*
X75050000Y-60125000D03*
X73800000Y-60125000D03*
X75050000Y-61375000D03*
X73800000Y-61375000D03*
D25*
X67675000Y-62190000D03*
X67675000Y-61690000D03*
X67675000Y-61190000D03*
X67675000Y-60690000D03*
X65875000Y-60690000D03*
X65875000Y-61190000D03*
X65875000Y-61690000D03*
X65875000Y-62190000D03*
D26*
X66775000Y-61000000D03*
X66775000Y-61880000D03*
D27*
X61675000Y-58500000D03*
X61675000Y-62500000D03*
X59175000Y-62500000D03*
X59175000Y-58500000D03*
D28*
X116000000Y-67000000D03*
D29*
X113375000Y-66365000D03*
X113375000Y-67635000D03*
X113375000Y-68905000D03*
X113375000Y-65095000D03*
X118625000Y-65095000D03*
X118625000Y-66365000D03*
X118625000Y-67635000D03*
X118625000Y-68905000D03*
D30*
X111000000Y-127600000D03*
X116500000Y-127600000D03*
X116500000Y-123900000D03*
X111000000Y-123900000D03*
X121000000Y-127600000D03*
X126500000Y-127600000D03*
X126500000Y-123900000D03*
X121000000Y-123900000D03*
D31*
X139350000Y-70250000D03*
X139350000Y-64750000D03*
X135650000Y-64750000D03*
X135650000Y-70250000D03*
D15*
X113300000Y-121750000D03*
X114200000Y-121750000D03*
X123300000Y-121750000D03*
X124200000Y-121750000D03*
D20*
X120250000Y-112450000D03*
X120250000Y-111550000D03*
X117250000Y-112450000D03*
X117250000Y-111550000D03*
X114250000Y-112450000D03*
X114250000Y-111550000D03*
X111250000Y-112450000D03*
X111250000Y-111550000D03*
D15*
X121550000Y-70750000D03*
X122450000Y-70750000D03*
X122450000Y-68500000D03*
X121550000Y-68500000D03*
D20*
X133250000Y-71200000D03*
X133250000Y-70300000D03*
D15*
X133050000Y-60500000D03*
X133950000Y-60500000D03*
X139450000Y-85750000D03*
X138550000Y-85750000D03*
D20*
X111750000Y-63800000D03*
X111750000Y-64700000D03*
D15*
X136950000Y-91000000D03*
X136050000Y-91000000D03*
X139450000Y-91000000D03*
X138550000Y-91000000D03*
X122450000Y-66375000D03*
X121550000Y-66375000D03*
D20*
X110250000Y-67550000D03*
X110250000Y-68450000D03*
X110250000Y-63800000D03*
X110250000Y-64700000D03*
D15*
X136950000Y-89250000D03*
X136050000Y-89250000D03*
X139450000Y-89250000D03*
X138550000Y-89250000D03*
D20*
X118500000Y-72550000D03*
X118500000Y-73450000D03*
X116750000Y-72550000D03*
X116750000Y-73450000D03*
X115000000Y-72550000D03*
X115000000Y-73450000D03*
X113250000Y-72550000D03*
X113250000Y-73450000D03*
D15*
X136950000Y-87500000D03*
X136050000Y-87500000D03*
X139450000Y-87500000D03*
X138550000Y-87500000D03*
X84950000Y-136000000D03*
X84050000Y-136000000D03*
D20*
X108000000Y-112050000D03*
X108000000Y-112950000D03*
D32*
X73400000Y-120100000D03*
X73400000Y-120900000D03*
X73400000Y-121700000D03*
X73400000Y-122500000D03*
X73400000Y-123300000D03*
X73400000Y-124100000D03*
X73400000Y-124900000D03*
X73400000Y-125700000D03*
X73400000Y-126500000D03*
X73400000Y-127300000D03*
X81600000Y-126900000D03*
X81600000Y-126100000D03*
X81600000Y-125300000D03*
X81600000Y-124500000D03*
X81600000Y-123700000D03*
X81600000Y-122900000D03*
X81600000Y-122100000D03*
X81600000Y-121300000D03*
X81600000Y-120500000D03*
X81600000Y-119700000D03*
D33*
X88249960Y-50560700D03*
X88750340Y-50560700D03*
X89250720Y-50560700D03*
X89751100Y-50560700D03*
X90248940Y-50560700D03*
D34*
X91000780Y-50560700D03*
D33*
X91750080Y-50560700D03*
X92250460Y-50560700D03*
X92750840Y-50560700D03*
X93251220Y-50560700D03*
X93749060Y-50560700D03*
X94249440Y-50560700D03*
X94749820Y-50560700D03*
X95250200Y-50560700D03*
X95750580Y-50560700D03*
X96250960Y-50560700D03*
D34*
X97000260Y-50560700D03*
D33*
X97749560Y-50560700D03*
X98249940Y-50560700D03*
X98750320Y-50560700D03*
X99250700Y-50560700D03*
X99751080Y-50560700D03*
X100248920Y-50560700D03*
X100749300Y-50560700D03*
X101249680Y-50560700D03*
X101750060Y-50560700D03*
X102250440Y-50560700D03*
D34*
X103002280Y-50560700D03*
D33*
X103749040Y-50560700D03*
X104249420Y-50560700D03*
X104749800Y-50560700D03*
X105250180Y-50560700D03*
X105750560Y-50560700D03*
X106250940Y-50560700D03*
X106748780Y-50560700D03*
X107249160Y-50560700D03*
X107749540Y-50560700D03*
X108249920Y-50560700D03*
D34*
X109001760Y-50560700D03*
D33*
X109751060Y-50560700D03*
X110248900Y-50560700D03*
X110749280Y-50560700D03*
X111249660Y-50560700D03*
X111750040Y-50560700D03*
X111755120Y-44459620D03*
X111254740Y-44459620D03*
X110754360Y-44459620D03*
X110253980Y-44459620D03*
X109756140Y-44459620D03*
D34*
X109006840Y-44459620D03*
D33*
X108255000Y-44459620D03*
X107754620Y-44459620D03*
X107254240Y-44459620D03*
X106753860Y-44459620D03*
X106256020Y-44459620D03*
X105755640Y-44459620D03*
X105255260Y-44459620D03*
X104754880Y-44459620D03*
X104254500Y-44459620D03*
X103754120Y-44459620D03*
D34*
X103004820Y-44459620D03*
D33*
X102252980Y-44459620D03*
X101752600Y-44459620D03*
X101252220Y-44459620D03*
X100751840Y-44459620D03*
X100254000Y-44459620D03*
X99753620Y-44459620D03*
X99253240Y-44459620D03*
X98752860Y-44459620D03*
X98252480Y-44459620D03*
X97752100Y-44459620D03*
D34*
X97002800Y-44459620D03*
D33*
X96250960Y-44459620D03*
X95750580Y-44459620D03*
X95250200Y-44459620D03*
X94749820Y-44459620D03*
X94251980Y-44459620D03*
X93751600Y-44459620D03*
X93251220Y-44459620D03*
X92750840Y-44459620D03*
X92250460Y-44459620D03*
X91750080Y-44459620D03*
D34*
X91000780Y-44459620D03*
D33*
X90248940Y-44459620D03*
X89751100Y-44459620D03*
X89250720Y-44459620D03*
X88750340Y-44459620D03*
X88249960Y-44459620D03*
D35*
X114950440Y-47500000D03*
X85049560Y-47500000D03*
D17*
X65175000Y-54750000D03*
X65175000Y-56250000D03*
X71675000Y-54750000D03*
X71675000Y-56250000D03*
X102500000Y-102250000D03*
X102500000Y-100750000D03*
X100250000Y-102250000D03*
X100250000Y-100750000D03*
D19*
X78925000Y-59350000D03*
X78925000Y-58250000D03*
X69925000Y-62350000D03*
X69925000Y-61250000D03*
X69675000Y-56250000D03*
X69675000Y-55150000D03*
D16*
X60975000Y-55750000D03*
X59875000Y-55750000D03*
D19*
X78925000Y-62250000D03*
X78925000Y-63350000D03*
D16*
X67225000Y-64000000D03*
X66125000Y-64000000D03*
X74875000Y-56250000D03*
X75975000Y-56250000D03*
D19*
X67175000Y-56250000D03*
X67175000Y-55150000D03*
X69925000Y-59350000D03*
X69925000Y-58250000D03*
D16*
X118700000Y-63250000D03*
X119800000Y-63250000D03*
X80700000Y-61500000D03*
X81800000Y-61500000D03*
X80700000Y-60000000D03*
X81800000Y-60000000D03*
D18*
X124750000Y-96250000D03*
X126750000Y-96250000D03*
X127500000Y-76500000D03*
X129500000Y-76500000D03*
X124750000Y-93750000D03*
X126750000Y-93750000D03*
D13*
X111500000Y-54750000D03*
X111500000Y-56750000D03*
D18*
X127500000Y-79000000D03*
X129500000Y-79000000D03*
X123500000Y-76500000D03*
X125500000Y-76500000D03*
D13*
X129000000Y-86000000D03*
X129000000Y-84000000D03*
D18*
X123500000Y-79000000D03*
X125500000Y-79000000D03*
D13*
X108000000Y-100750000D03*
X108000000Y-102750000D03*
X110500000Y-100750000D03*
X110500000Y-102750000D03*
D36*
X131350000Y-95420000D03*
X131350000Y-89180000D03*
D19*
X103475000Y-130450000D03*
X103475000Y-131550000D03*
X102000000Y-130450000D03*
X102000000Y-131550000D03*
X96250000Y-130450000D03*
X96250000Y-131550000D03*
X94750000Y-130475000D03*
X94750000Y-131575000D03*
D20*
X80675000Y-56050000D03*
X80675000Y-56950000D03*
X78925000Y-56050000D03*
X78925000Y-56950000D03*
D25*
X127000000Y-88250000D03*
X127000000Y-89250000D03*
D37*
X127100000Y-88400000D03*
X126900000Y-88400000D03*
X126900000Y-88100000D03*
X127100000Y-88100000D03*
X127100000Y-89100000D03*
X126900000Y-89100000D03*
X126900000Y-89400000D03*
X127100000Y-89400000D03*
D38*
X127000000Y-89400000D03*
X127000000Y-89100000D03*
X127000000Y-88400000D03*
X127000000Y-88100000D03*
D25*
X124000000Y-88250000D03*
X124000000Y-89250000D03*
D37*
X124100000Y-88400000D03*
X123900000Y-88400000D03*
X123900000Y-88100000D03*
X124100000Y-88100000D03*
X124100000Y-89100000D03*
X123900000Y-89100000D03*
X123900000Y-89400000D03*
X124100000Y-89400000D03*
D38*
X124000000Y-89400000D03*
X124000000Y-89100000D03*
X124000000Y-88400000D03*
X124000000Y-88100000D03*
D39*
X128000000Y-74500000D03*
X129000000Y-74500000D03*
D37*
X128150000Y-74400000D03*
X128150000Y-74600000D03*
X127850000Y-74600000D03*
X127850000Y-74400000D03*
X128850000Y-74400000D03*
X128850000Y-74600000D03*
X129150000Y-74600000D03*
X129150000Y-74400000D03*
D40*
X129150000Y-74500000D03*
X128850000Y-74500000D03*
X128150000Y-74500000D03*
X127850000Y-74500000D03*
D25*
X125500000Y-88250000D03*
X125500000Y-89250000D03*
D37*
X125600000Y-88400000D03*
X125400000Y-88400000D03*
X125400000Y-88100000D03*
X125600000Y-88100000D03*
X125600000Y-89100000D03*
X125400000Y-89100000D03*
X125400000Y-89400000D03*
X125600000Y-89400000D03*
D38*
X125500000Y-89400000D03*
X125500000Y-89100000D03*
X125500000Y-88400000D03*
X125500000Y-88100000D03*
D25*
X125500000Y-83750000D03*
X125500000Y-82750000D03*
D37*
X125400000Y-83600000D03*
X125600000Y-83600000D03*
X125600000Y-83900000D03*
X125400000Y-83900000D03*
X125400000Y-82900000D03*
X125600000Y-82900000D03*
X125600000Y-82600000D03*
X125400000Y-82600000D03*
D38*
X125500000Y-82600000D03*
X125500000Y-82900000D03*
X125500000Y-83600000D03*
X125500000Y-83900000D03*
D39*
X128000000Y-73000000D03*
X129000000Y-73000000D03*
D37*
X128150000Y-72900000D03*
X128150000Y-73100000D03*
X127850000Y-73100000D03*
X127850000Y-72900000D03*
X128850000Y-72900000D03*
X128850000Y-73100000D03*
X129150000Y-73100000D03*
X129150000Y-72900000D03*
D40*
X129150000Y-73000000D03*
X128850000Y-73000000D03*
X128150000Y-73000000D03*
X127850000Y-73000000D03*
D25*
X127000000Y-90750000D03*
X127000000Y-91750000D03*
D37*
X127100000Y-90900000D03*
X126900000Y-90900000D03*
X126900000Y-90600000D03*
X127100000Y-90600000D03*
X127100000Y-91600000D03*
X126900000Y-91600000D03*
X126900000Y-91900000D03*
X127100000Y-91900000D03*
D38*
X127000000Y-91900000D03*
X127000000Y-91600000D03*
X127000000Y-90900000D03*
X127000000Y-90600000D03*
D25*
X127000000Y-86250000D03*
X127000000Y-85250000D03*
D37*
X126900000Y-86100000D03*
X127100000Y-86100000D03*
X127100000Y-86400000D03*
X126900000Y-86400000D03*
X126900000Y-85400000D03*
X127100000Y-85400000D03*
X127100000Y-85100000D03*
X126900000Y-85100000D03*
D38*
X127000000Y-85100000D03*
X127000000Y-85400000D03*
X127000000Y-86100000D03*
X127000000Y-86400000D03*
D25*
X125500000Y-90750000D03*
X125500000Y-91750000D03*
D37*
X125600000Y-90900000D03*
X125400000Y-90900000D03*
X125400000Y-90600000D03*
X125600000Y-90600000D03*
X125600000Y-91600000D03*
X125400000Y-91600000D03*
X125400000Y-91900000D03*
X125600000Y-91900000D03*
D38*
X125500000Y-91900000D03*
X125500000Y-91600000D03*
X125500000Y-90900000D03*
X125500000Y-90600000D03*
D25*
X125500000Y-86250000D03*
X125500000Y-85250000D03*
D37*
X125400000Y-86100000D03*
X125600000Y-86100000D03*
X125600000Y-86400000D03*
X125400000Y-86400000D03*
X125400000Y-85400000D03*
X125600000Y-85400000D03*
X125600000Y-85100000D03*
X125400000Y-85100000D03*
D38*
X125500000Y-85100000D03*
X125500000Y-85400000D03*
X125500000Y-86100000D03*
X125500000Y-86400000D03*
D25*
X124000000Y-90750000D03*
X124000000Y-91750000D03*
D37*
X124100000Y-90900000D03*
X123900000Y-90900000D03*
X123900000Y-90600000D03*
X124100000Y-90600000D03*
X124100000Y-91600000D03*
X123900000Y-91600000D03*
X123900000Y-91900000D03*
X124100000Y-91900000D03*
D38*
X124000000Y-91900000D03*
X124000000Y-91600000D03*
X124000000Y-90900000D03*
X124000000Y-90600000D03*
D25*
X124000000Y-83750000D03*
X124000000Y-82750000D03*
D37*
X123900000Y-83600000D03*
X124100000Y-83600000D03*
X124100000Y-83900000D03*
X123900000Y-83900000D03*
X123900000Y-82900000D03*
X124100000Y-82900000D03*
X124100000Y-82600000D03*
X123900000Y-82600000D03*
D38*
X124000000Y-82600000D03*
X124000000Y-82900000D03*
X124000000Y-83600000D03*
X124000000Y-83900000D03*
D25*
X124000000Y-86250000D03*
X124000000Y-85250000D03*
D37*
X123900000Y-86100000D03*
X124100000Y-86100000D03*
X124100000Y-86400000D03*
X123900000Y-86400000D03*
X123900000Y-85400000D03*
X124100000Y-85400000D03*
X124100000Y-85100000D03*
X123900000Y-85100000D03*
D38*
X124000000Y-85100000D03*
X124000000Y-85400000D03*
X124000000Y-86100000D03*
X124000000Y-86400000D03*
D39*
X124000000Y-73000000D03*
X125000000Y-73000000D03*
D37*
X124150000Y-72900000D03*
X124150000Y-73100000D03*
X123850000Y-73100000D03*
X123850000Y-72900000D03*
X124850000Y-72900000D03*
X124850000Y-73100000D03*
X125150000Y-73100000D03*
X125150000Y-72900000D03*
D40*
X125150000Y-73000000D03*
X124850000Y-73000000D03*
X124150000Y-73000000D03*
X123850000Y-73000000D03*
D39*
X124000000Y-74500000D03*
X125000000Y-74500000D03*
D37*
X124150000Y-74400000D03*
X124150000Y-74600000D03*
X123850000Y-74600000D03*
X123850000Y-74400000D03*
X124850000Y-74400000D03*
X124850000Y-74600000D03*
X125150000Y-74600000D03*
X125150000Y-74400000D03*
D40*
X125150000Y-74500000D03*
X124850000Y-74500000D03*
X124150000Y-74500000D03*
X123850000Y-74500000D03*
D16*
X103900000Y-109700000D03*
X105000000Y-109700000D03*
D19*
X102000000Y-105200000D03*
X102000000Y-106300000D03*
D41*
X136865000Y-78480000D03*
X138135000Y-78480000D03*
X136865000Y-79750000D03*
X138135000Y-79750000D03*
X136865000Y-81020000D03*
X138135000Y-81020000D03*
D13*
X64250000Y-84000000D03*
X64250000Y-86000000D03*
X64250000Y-90000000D03*
X64250000Y-88000000D03*
X67750000Y-70750000D03*
X67750000Y-72750000D03*
X67750000Y-77000000D03*
X67750000Y-75000000D03*
X67000000Y-84000000D03*
X67000000Y-86000000D03*
X67000000Y-90000000D03*
X67000000Y-88000000D03*
D20*
X50750000Y-85800000D03*
X50750000Y-86700000D03*
M02*
